<svg width="297" height="410" viewBox="0 0 297 410" fill="none" xmlns="http://www.w3.org/2000/svg">
<path d="M238.585 88.162C241.983 86.5525 247.705 85.6584 255.752 85.4796C263.978 85.3007 268.091 85.4796 270.595 87.089C272.92 88.5196 269.701 98.5339 269.701 98.5339L234.293 102.11L238.585 88.162Z" fill="#74896F"/>
<path d="M231.432 95.8514C223.384 98.355 170.809 112.661 171.525 126.789C172.24 140.737 195.845 138.77 225.53 129.829L231.432 95.8514Z" fill="#93A88D"/>
<path d="M278.642 366.775C284.007 374.286 281.324 387.161 275.781 390.559C272.204 392.526 267.912 393.42 269.701 395.566C271.31 397.712 275.423 398.07 281.861 396.639C290.624 394.672 295.988 379.293 296.346 376.253C296.704 369.457 289.014 359.443 289.014 359.443L278.642 366.775Z" fill="#5E5254"/>
<path d="M246.99 377.326C245.38 394.314 222.133 387.519 221.775 393.599C221.239 399.858 249.851 399.679 253.785 395.566C258.435 390.738 259.329 378.22 259.329 378.22L246.99 377.326Z" fill="#5E5254"/>
<path d="M248.42 196.352L248.063 229.257L254.143 232.654C254.143 232.654 247.347 273.069 245.38 298.463C243.413 324.035 241.267 379.293 241.267 379.293C241.267 379.293 254.143 385.731 263.8 380.366C263.8 380.366 274.708 342.276 278.285 301.145C284.365 269.851 290.266 243.742 292.948 226.932C295.631 210.301 295.094 192.061 295.094 192.061L248.42 196.352Z" fill="#C9C5BF"/>
<path d="M227.14 193.849C227.676 212.447 217.662 259.836 221.596 289.343C223.742 305.616 274.171 370.352 274.171 370.352C274.171 370.352 290.981 369.1 293.127 355.866C293.127 355.866 271.668 304.007 253.785 281.832L258.792 230.687L252.533 226.932L253.07 195.28L227.14 193.849Z" fill="#DFDCD9"/>
<path d="M274.171 371.067C273.993 371.067 273.635 370.888 273.635 370.53C273.456 370.173 273.814 369.815 274.171 369.815C289.908 367.311 292.233 357.297 292.412 355.867C277.212 313.127 253.427 282.547 253.249 282.19C253.129 282.07 253.07 281.951 253.07 281.832L258.077 231.045L252.176 227.647C252.057 227.409 251.937 227.17 251.818 226.932L252.533 202.433C252.533 202.075 252.891 201.717 253.249 201.717C253.606 201.717 253.785 202.075 253.785 202.433L253.249 226.574L259.15 229.972C259.329 230.151 259.508 230.509 259.508 230.687L254.5 281.653C256.646 284.514 279.179 314.379 293.664 355.688C293.783 355.807 293.842 355.926 293.842 356.045C293.664 356.045 292.233 368.384 274.35 371.067C274.35 371.067 274.291 371.067 274.171 371.067Z" fill="#B2AFAB"/>
<path d="M283.649 49.7141C284.186 44.8858 282.219 40.5939 279.179 39.1633C277.211 38.2692 275.066 38.9845 272.92 40.0574C270.595 41.1304 254.143 39.1633 252.712 41.488C251.281 43.634 256.646 48.82 255.931 51.3235C254.858 54.5424 263.263 55.4366 262.548 58.6555C262.011 60.9802 261.474 63.6626 262.726 65.6297C263.978 67.7757 260.938 80.2936 263.62 79.7571C263.62 79.7571 272.025 81.7242 279.179 65.4509C281.682 60.0861 283.292 53.8271 283.649 49.7141Z" fill="#89524B"/>
<path d="M268.091 67.0603C268.091 67.0603 265.767 79.9358 266.482 86.9101C267.197 95.8515 275.96 94.5997 275.96 94.5997C275.96 94.5997 268.985 105.866 252.355 105.687C246.453 105.687 237.333 101.753 235.187 95.4939C235.187 95.4939 241.446 94.4209 243.234 89.0561C244.486 85.4795 245.738 73.4981 245.738 73.4981L263.263 65.272L268.091 67.0603Z" fill="#F19D87"/>
<path d="M266.482 86.7312C265.767 81.3664 267.018 72.7827 267.734 69.0273L264.872 66.3449L259.508 67.239L245.738 73.498C245.738 73.498 244.486 85.4795 243.234 89.056C242.877 90.0098 242.459 90.8443 241.982 91.5596C244.128 92.6325 250.03 95.1361 258.256 92.2749C261.475 91.2019 264.157 89.056 266.482 86.7312Z" fill="#D4847B"/>
<path d="M269.164 64.7356C265.409 63.6626 264.694 60.2649 266.303 57.046C266.303 57.046 260.759 54.0059 263.442 46.8528C259.686 41.6668 240.552 35.7655 238.227 45.601C233.756 63.6626 234.114 74.2134 235.545 79.5782C237.154 85.3007 243.055 87.9831 250.208 86.3737C255.037 85.3007 261.475 80.1147 264.694 73.4981C268.27 75.1075 271.489 73.1405 273.635 70.1004C277.39 63.4838 271.489 62.5896 269.164 64.7356Z" fill="#F6B39B"/>
<path d="M282.04 32.9043C282.576 34.3349 281.682 36.3019 281.146 37.5537C280.43 38.9843 279.179 40.415 277.569 40.7727C277.211 40.9515 276.854 40.7726 276.675 40.415C276.317 40.0573 276.317 39.6401 276.675 39.1632C277.033 38.9844 277.569 38.8055 277.927 38.6267C278.284 38.4479 278.642 38.0902 279 37.7326C279.536 36.8384 280.073 35.9443 280.609 35.0502C280.788 34.3348 280.967 33.6196 281.503 32.9043C281.682 32.7254 281.861 32.7254 282.04 32.9043Z" fill="#89524B"/>
<path d="M284.901 35.5867C284.901 37.0173 283.292 38.4479 282.219 39.5209C281.146 40.5938 279.357 41.3091 277.748 41.1303C277.39 41.1303 277.033 40.7727 277.033 40.415C276.913 39.9381 277.092 39.5805 277.569 39.342C277.927 39.1632 278.463 39.342 278.821 39.342C279.357 39.1632 279.894 38.9844 280.252 38.8056C281.146 38.2691 282.04 37.7326 282.755 37.0173C283.292 36.4808 283.828 35.7655 284.365 35.4079C284.543 35.229 284.901 35.4079 284.901 35.5867Z" fill="#89524B"/>
<path d="M247.705 55.6153C247.705 55.6153 248.063 56.8671 248.063 58.6554C248.063 59.1323 248.063 59.6688 248.063 60.2649C248.063 60.5033 248.003 60.8013 247.884 61.159C247.705 61.3378 247.705 61.6955 247.526 61.8743C247.168 63.1261 246.453 64.199 245.559 65.272C244.665 66.1661 243.771 67.0603 242.877 67.7756C242.698 67.9544 242.519 68.1332 242.34 68.1332C242.459 68.1332 242.459 68.0736 242.34 67.9544C242.34 67.7756 242.519 68.1332 242.34 67.9544C242.519 68.1332 242.877 68.4909 243.055 68.6698C243.771 69.0274 244.307 69.3851 244.844 69.5639C245.321 69.6831 245.559 69.7427 245.559 69.7427C245.917 69.9215 246.095 70.2792 245.917 70.6368C245.738 70.9945 245.559 70.9945 245.201 71.1733C245.201 71.1733 245.023 71.1733 244.307 70.9945C243.771 70.8157 243.055 70.6368 242.161 70.1004C241.625 69.7427 241.267 69.5639 240.731 68.8485C240.731 68.6697 240.552 68.1332 240.552 68.1332C240.552 67.7756 240.552 67.5968 240.731 67.4179C240.731 67.2391 240.91 67.2391 240.91 67.0603C241.267 66.7026 241.446 66.5238 241.625 66.345C242.519 65.6297 243.413 64.9144 244.307 64.0202C245.023 63.3049 245.738 62.232 246.096 61.5167C246.274 61.3378 246.274 60.9802 246.453 60.6225C246.453 60.5033 246.513 60.3244 246.632 60.086C246.632 59.6091 246.632 59.1323 246.632 58.6554C246.811 57.9401 246.811 57.046 246.632 56.6883C246.632 56.0922 246.632 55.7942 246.632 55.7942C246.632 55.6153 246.811 55.2577 247.168 55.2577C247.347 55.2577 247.705 55.4365 247.705 55.6153Z" fill="#D5857C"/>
<path d="M267.734 67.7757C266.661 69.2063 266.303 70.9945 267.376 71.531C268.27 72.2463 270.058 71.531 271.31 70.1004C272.562 68.6698 272.741 67.0603 271.668 66.345C270.774 65.6297 268.985 66.3451 267.734 67.7757Z" fill="#D4847B"/>
<path d="M244.844 52.5753C244.486 53.6483 242.34 53.4694 240.194 53.4694C236.796 53.4694 236.081 53.4694 235.723 52.5753C235.723 52.0388 236.081 50.0717 239.837 49.8929C243.95 49.8929 245.023 51.5023 244.844 52.5753Z" fill="#89524B"/>
<path d="M256.647 56.6883C258.971 57.5824 260.759 58.6554 261.475 57.9401C262.19 57.4036 262.011 55.4365 258.435 53.4694C256.468 52.3964 252.891 51.6811 252.176 53.4694C251.639 55.2577 254.322 55.6153 256.647 56.6883Z" fill="#89524B"/>
<path d="M278.285 39.342C278.285 39.342 279.179 31.116 265.588 26.2876C253.428 21.9958 235.187 25.2146 232.862 34.8713C231.074 41.8456 238.764 45.0645 238.764 45.0645C238.764 45.0645 246.453 48.641 257.541 42.9185C259.15 45.4221 263.263 47.3893 265.588 47.0316C273.993 45.601 278.285 39.342 278.285 39.342Z" fill="#89524B"/>
<path d="M244.486 76.3594C243.055 76.3594 241.982 76.1806 241.446 75.8229C241.267 75.6441 241.267 75.2864 241.446 75.1076C241.625 74.7499 241.982 74.75 242.161 74.9288C243.055 75.6441 249.493 75.6441 252.533 72.2464C252.712 71.8887 253.07 71.8887 253.249 72.0675C253.606 72.2464 253.606 72.604 253.427 72.9617C251.103 75.4653 247.168 76.3594 244.486 76.3594Z" fill="#5E5254"/>
<path d="M250.745 77.2534C250.924 77.7899 250.209 79.0417 248.599 79.3994C246.99 79.757 245.738 79.0417 245.559 78.5052C245.38 77.9688 246.632 78.3264 248.063 77.9687C249.493 77.6111 250.566 76.7169 250.745 77.2534Z" fill="#D4847B"/>
<path d="M275.602 58.8342C272.562 58.8342 269.522 57.5824 267.197 55.6153C265.588 54.1847 264.872 52.7541 265.051 51.3235C265.051 50.9658 265.409 50.6082 265.767 50.787C266.124 50.787 266.303 51.1447 266.303 51.5023C266.124 52.7541 267.197 54.0059 267.912 54.5423C270.416 56.6883 273.635 57.7612 276.854 57.4036C277.033 57.4036 277.39 57.5824 277.39 57.9401C277.569 58.2978 277.211 58.6554 276.854 58.6554C276.496 58.7746 276.079 58.8342 275.602 58.8342Z" fill="#754141"/>
<path d="M273.456 62.0531C271.489 62.0531 269.522 61.3378 268.091 59.9072C267.733 59.7283 267.733 59.3707 268.091 59.013C268.27 58.8342 268.628 58.8342 268.985 59.013C270.416 60.4436 272.562 60.9802 274.529 60.6225C274.887 60.6225 275.244 60.8013 275.244 61.159C275.423 61.5166 275.066 61.8743 274.708 61.8743C274.35 61.9935 273.933 62.0531 273.456 62.0531Z" fill="#754141"/>
<path d="M280.788 51.3235C280.788 51.3235 280.728 51.2639 280.609 51.1446C280.251 51.1446 280.073 50.787 280.252 50.4293C281.503 47.3893 280.609 43.6339 278.106 41.488C277.748 41.3091 277.748 40.9515 277.927 40.5938C278.105 40.415 278.642 40.415 278.821 40.5938C281.682 42.9186 282.755 47.3893 281.503 50.787C281.324 51.1447 281.146 51.3235 280.788 51.3235Z" fill="#754141"/>
<path d="M275.423 39.8786C275.423 39.8786 275.364 39.8786 275.244 39.8786C274.887 39.8786 274.708 39.5209 274.708 39.1633C275.066 36.8385 273.993 34.5137 272.026 33.2619C271.847 32.9043 271.668 32.5466 271.847 32.3678C272.026 32.0101 272.562 32.0101 272.741 32.189C275.066 33.6196 276.317 36.4808 275.96 39.3421C275.96 39.6997 275.781 39.8786 275.423 39.8786Z" fill="#754141"/>
<path d="M237.333 41.6669C237.214 41.6669 237.094 41.6073 236.975 41.4881C235.187 40.4151 234.114 37.7327 234.829 35.2291C235.545 32.9044 237.512 31.1161 239.121 30.222C239.3 30.0431 239.837 30.2219 240.015 30.4008C240.194 30.7584 240.015 31.1161 239.658 31.2949C237.869 32.5467 236.618 33.9773 236.081 35.5868C235.545 37.5539 236.26 39.521 237.691 40.4151C238.048 40.5939 238.048 40.9516 237.869 41.3092C237.75 41.5477 237.571 41.6669 237.333 41.6669Z" fill="#754141"/>
<path d="M240.552 34.3349C240.433 34.3349 240.313 34.2753 240.194 34.1561C239.837 33.9772 239.837 33.6196 240.015 33.2619C241.267 31.6525 243.413 30.7583 245.559 30.7583C245.917 30.9372 246.096 31.116 246.096 31.4736C246.096 31.8313 245.738 32.1889 245.38 32.1889C243.771 32.0101 241.982 32.7254 241.088 34.1561C240.969 34.2753 240.79 34.3349 240.552 34.3349Z" fill="#754141"/>
<path d="M264.336 44.7069C264.217 44.7069 264.157 44.7069 264.157 44.7069C263.8 44.528 263.621 44.1704 263.8 43.8127C264.873 41.8456 267.018 40.2362 269.164 40.0574C269.522 40.0574 269.88 40.2362 269.88 40.5938C269.88 40.9515 269.701 41.3091 269.343 41.3091C267.555 41.488 265.767 42.7398 264.873 44.3492C264.873 44.7069 264.694 44.7069 264.336 44.7069Z" fill="#754141"/>
<path d="M245.023 28.6124C244.665 28.6124 244.486 28.4336 244.307 28.2548C244.307 27.8971 244.486 27.5395 244.844 27.3606C249.314 26.1089 254.322 25.93 258.792 27.1818C259.15 27.3606 259.329 27.7183 259.15 28.0759C259.15 28.4336 258.792 28.6124 258.435 28.4336C254.143 27.3607 249.314 27.3606 245.201 28.6124C245.082 28.6124 245.023 28.6124 245.023 28.6124Z" fill="#754141"/>
<path d="M251.818 60.6225C251.818 61.6955 252.533 62.5896 253.606 62.7684C254.5 62.9473 255.216 62.232 255.216 61.159C255.216 60.086 254.5 59.1919 253.606 59.013C252.533 58.8342 251.818 59.5496 251.818 60.6225Z" fill="#5E5254"/>
<path d="M257.541 62.4108C257.541 60.6225 256.289 59.0131 253.964 58.4766C252.712 58.1189 251.103 59.3707 251.282 60.2649C251.282 60.2649 252.354 59.3707 253.785 59.7284C255.216 60.2649 257.541 62.4108 257.541 62.4108Z" fill="#5E5254"/>
<path d="M237.691 58.4765C237.691 59.3707 238.406 60.2648 239.3 60.4437C240.194 60.6225 240.91 59.9072 240.91 58.8342C240.91 57.7613 240.194 56.8671 239.3 56.8671C238.406 56.6883 237.691 57.4036 237.691 58.4765Z" fill="#5E5254"/>
<path d="M242.698 59.9072C243.055 58.2977 241.804 56.5095 240.015 56.1519C238.406 55.973 236.975 57.5824 236.975 58.2978C236.975 58.2978 238.227 57.2248 239.658 57.5825C241.446 57.9401 242.698 59.9072 242.698 59.9072Z" fill="#5E5254"/>
<path d="M236.26 94.9573C236.26 94.9573 228.749 96.9244 226.782 97.8186C224.815 98.8915 222.133 120.53 223.206 131.796C224.1 142.883 225.709 154.507 226.425 167.025C227.14 179.543 227.14 199.393 227.14 199.393C227.14 199.393 231.968 202.254 254.679 203.684C277.39 204.936 293.485 198.677 293.485 198.677C293.485 198.677 291.518 163.269 290.981 146.638C290.266 129.829 292.948 104.793 290.624 101.216C289.73 100.143 270.953 93.3479 270.953 93.3479C270.953 93.3479 266.124 105.866 248.957 104.793C237.87 104.078 236.26 94.9573 236.26 94.9573Z" fill="#FFF9F5"/>
<path d="M270.595 92.0961C270.595 92.0961 263.978 101.216 264.872 142.883C265.767 184.55 267.197 216.024 267.197 216.024C267.197 216.024 288.656 218.348 295.988 210.48C298.492 196.174 294.915 169.886 295.452 149.321C296.525 119.099 294.736 103.899 291.16 101.037C285.437 96.388 270.595 92.0961 270.595 92.0961Z" fill="#93A88D"/>
<path d="M237.154 94.421C237.333 94.9574 238.585 98.1763 237.691 105.329C236.797 111.946 233.756 122.139 234.293 135.372C235.723 162.554 234.829 210.48 234.293 212.447C234.293 212.447 226.603 211.732 224.994 209.765C223.563 207.798 225.53 172.568 223.206 149.321C221.06 126.073 223.563 100.143 225.709 98.3551C227.855 96.5669 237.154 94.421 237.154 94.421Z" fill="#93A88D"/>
<path d="M224.994 210.48C224.755 210.48 224.577 210.361 224.457 210.122C223.742 209.228 223.742 204.4 223.742 190.809C223.742 178.649 223.742 162.018 222.669 149.321C221.596 138.949 221.417 126.61 222.133 115.523C222.133 115.165 222.49 114.986 222.848 114.986C223.206 114.986 223.563 115.344 223.563 115.701C222.848 126.789 223.027 138.949 223.921 149.321C225.173 162.018 224.994 178.649 224.994 190.809C224.994 199.929 224.994 208.334 225.53 209.407C225.709 209.586 225.709 210.122 225.352 210.301C225.232 210.42 225.113 210.48 224.994 210.48Z" fill="#74896F"/>
<path d="M266.303 110.873C266.303 110.873 263.084 97.8186 263.263 96.0303C263.442 94.242 269.343 87.2677 270.595 87.0889C271.668 86.9101 275.065 93.7056 275.065 93.7056C275.065 93.7056 268.806 104.435 266.303 110.873Z" fill="#93A88D"/>
<path d="M237.691 105.329C237.691 105.329 240.731 96.5669 240.731 94.2421C240.731 92.275 238.942 88.162 238.585 88.162C237.154 87.9832 232.505 95.6727 232.505 95.6727C232.505 95.6727 234.293 102.111 237.691 105.329Z" fill="#93A88D"/>
<path d="M282.219 198.141C280.073 198.141 278.463 197.962 277.569 197.604C275.066 196.531 275.065 180.616 275.244 173.999C275.244 173.641 275.423 173.284 275.781 173.284C275.96 173.284 289.193 171.674 294.915 168.992C295.273 168.992 295.631 168.992 295.809 169.35C295.988 169.707 295.81 170.065 295.452 170.244C290.266 172.568 279.179 174.178 276.496 174.536C276.317 184.55 277.033 195.458 278.106 196.353C280.252 197.247 291.696 197.247 295.809 192.597C295.988 192.239 296.525 192.239 296.704 192.597C297.061 192.776 297.061 193.134 296.883 193.491C293.664 197.068 287.047 198.141 282.219 198.141Z" fill="#74896F"/>
<path d="M276.496 179.543C276.139 179.543 275.781 179.364 275.781 179.006C275.781 178.649 276.139 178.291 276.496 178.291C276.496 178.291 286.689 177.754 295.273 174.178C295.631 173.999 295.988 174.178 296.167 174.536C296.346 174.893 296.167 175.251 295.809 175.43C287.047 179.185 276.496 179.543 276.496 179.543Z" fill="#74896F"/>
<path d="M266.661 110.515C266.422 110.515 266.243 110.456 266.124 110.337C265.766 109.979 265.945 109.621 266.124 109.442C266.124 109.264 272.92 103.005 274.529 93.5267C274.529 93.1691 274.887 92.9902 275.244 92.9902C275.602 92.9902 275.781 93.3479 275.781 93.7056C274.171 103.541 267.376 110.158 267.018 110.337C266.899 110.456 266.78 110.515 266.661 110.515Z" fill="#74896F"/>
<path d="M237.154 105.687C237.035 105.687 236.916 105.687 236.797 105.687C232.326 102.468 232.147 96.388 232.147 96.2092C232.147 95.8515 232.505 95.4939 232.862 95.4939C233.22 95.4939 233.578 95.8515 233.578 96.2092C233.578 96.2092 233.578 101.753 237.512 104.614C237.869 104.793 237.869 105.151 237.691 105.508C237.571 105.627 237.393 105.687 237.154 105.687Z" fill="#74896F"/>
<path d="M222.311 129.113C222.133 129.113 221.775 128.935 221.775 128.756C221.596 128.577 219.45 123.57 219.271 119.457C219.271 119.099 219.45 118.741 219.808 118.741C220.166 118.741 220.523 119.099 220.523 119.457C220.702 123.391 222.848 128.04 222.848 128.219C223.027 128.577 222.848 128.935 222.669 129.113C222.55 129.113 222.431 129.113 222.311 129.113Z" fill="#74896F"/>
<path d="M252.533 227.647C252.414 227.647 252.354 227.647 252.354 227.647L246.274 224.965C246.095 224.786 245.917 224.428 246.096 224.071C246.096 223.713 246.632 223.534 246.811 223.713L252.891 226.396C253.248 226.574 253.249 226.932 253.249 227.29C253.07 227.468 252.891 227.647 252.533 227.647Z" fill="#B2AFAB"/>
<path d="M258.435 233.727C254.322 233.37 250.03 231.224 249.851 231.045C249.493 230.866 249.315 230.508 249.493 230.151C249.672 229.793 250.03 229.793 250.388 229.972C250.388 229.972 254.679 232.118 258.614 232.476C258.971 232.476 259.15 232.833 259.15 233.191C259.15 233.549 258.792 233.727 258.435 233.727Z" fill="#B2AFAB"/>
<path d="M235.187 292.919C235.068 292.919 234.949 292.919 234.829 292.919C234.472 292.74 234.293 292.383 234.472 292.025C235.545 289.164 235.723 285.766 234.829 282.726C234.651 282.547 234.829 282.011 235.187 282.011C235.545 281.832 235.902 282.011 236.081 282.368C236.975 285.766 236.975 289.343 235.723 292.562C235.723 292.74 235.366 292.919 235.187 292.919Z" fill="#B2AFAB"/>
<path d="M192.626 397.354H49.2066C39.1922 397.354 30.9661 389.307 30.9661 379.293V18.0616C30.9661 8.04724 39.1922 0 49.2066 0H192.626C202.462 0 210.688 8.04724 210.688 18.0616V379.293C210.688 389.307 202.462 397.354 192.626 397.354Z" fill="#4C4546"/>
<path d="M178.141 397.354H34.7216C24.7073 397.354 16.4812 389.307 16.4812 379.293V18.0616C16.4812 8.04724 24.7073 0 34.7216 0H178.141C188.155 0 196.203 8.04724 196.203 18.0616V379.293C196.203 389.307 188.155 397.354 178.141 397.354Z" fill="#5E5254"/>
<path d="M174.743 393.42H37.9405C28.2838 393.42 20.5942 385.552 20.5942 375.895V21.4593C20.5942 11.8026 28.2838 3.93422 37.9405 3.93422H174.743C184.4 3.93422 192.268 11.8026 192.268 21.4593V375.895C192.268 385.552 184.4 393.42 174.743 393.42Z" fill="white"/>
<path d="M192.268 23.6052V21.4593C192.268 11.8026 184.4 3.93422 174.743 3.93422H37.9405C28.2838 3.93422 20.5942 11.8026 20.5942 21.4593V23.6052H192.268Z" fill="#B1D7E3"/>
<path d="M20.5942 373.749V375.895C20.5942 385.552 28.2838 393.42 37.9405 393.42H174.743C184.4 393.42 192.268 385.552 192.268 375.895V373.749H20.5942Z" fill="#B1D7E3"/>
<path d="M96.5958 2.32484C96.5958 2.32484 94.2711 14.3062 105.18 14.3062C115.909 14.3062 113.406 2.32484 113.406 2.32484H96.5958Z" fill="#5E5254"/>
<path d="M109.471 6.97432C109.471 9.4779 107.504 11.445 105.001 11.445C102.676 11.445 100.709 9.4779 100.709 6.97432C100.709 4.64956 102.676 2.68242 105.001 2.68242C107.504 2.68242 109.471 4.64956 109.471 6.97432Z" fill="#81706F"/>
<path d="M79.2495 41.8456H47.9547L42.9476 53.1117V105.866H86.9392V55.6153C86.9392 54.0058 86.4026 52.3964 85.5085 50.9657L79.2495 41.8456Z" fill="#CCB9AD"/>
<path d="M79.2495 41.8456H47.9547V32.7254H79.2495V41.8456Z" fill="#B74B4B"/>
<path d="M77.4613 41.8456H45.9877L39.9075 50.9657C39.0134 52.3964 38.4769 54.0058 38.4769 55.6153V105.866H82.2896V54.9C82.2896 53.7078 82.0512 52.5752 81.5744 51.5022L77.4613 41.8456Z" fill="#F2E5DC"/>
<path d="M38.4769 104.435V105.866H82.2896V104.435H38.4769Z" fill="#CCB9AD"/>
<path d="M77.4613 41.8456H45.9877V32.7254H77.4613V41.8456Z" fill="#D5645D"/>
<path d="M76.9248 81.3664H46.5241V55.4364H76.9248V81.3664Z" fill="#E8AF64"/>
<path d="M76.9248 91.3807H46.5241V85.8371H76.9248V91.3807Z" fill="#D5645D"/>
<path d="M66.5528 74.5711C65.1222 75.6441 63.3339 74.5711 61.7245 74.5711C60.115 74.5711 57.9691 75.8229 56.7173 74.5711C53.8561 72.0675 58.3267 67.418 61.7245 67.418C65.1222 67.418 69.7717 72.2464 66.5528 74.5711Z" fill="#F2E5DC"/>
<path d="M56.5386 66.7027C56.8962 67.9545 56.3597 69.2063 55.2868 69.3851C54.2138 69.7427 53.1408 68.8486 52.7832 67.5968C52.6043 66.345 53.1408 65.0932 54.2137 64.9144C55.2867 64.5567 56.3598 65.4509 56.5386 66.7027Z" fill="#F2E5DC"/>
<path d="M61.0092 63.4838C61.1881 64.9144 60.4728 66.1662 59.221 66.345C58.148 66.345 57.075 65.4509 56.8961 64.0203C56.7173 62.5897 57.4326 61.3379 58.6844 61.159C59.7574 60.9802 60.8304 62.0531 61.0092 63.4838Z" fill="#F2E5DC"/>
<path d="M66.9105 66.7027C66.5528 67.9545 67.0893 69.2063 68.1623 69.3851C69.2353 69.7427 70.3082 68.8486 70.6658 67.5968C70.8447 66.345 70.3082 65.0932 69.2352 64.9144C68.1623 64.5567 67.0893 65.4509 66.9105 66.7027Z" fill="#F2E5DC"/>
<path d="M62.4398 63.4838C62.261 64.9144 62.9763 66.1662 64.2281 66.345C65.3011 66.345 66.374 65.4509 66.5528 64.0203C66.7317 62.5897 66.0164 61.3379 64.7646 61.159C63.6916 60.9802 62.6187 62.0531 62.4398 63.4838Z" fill="#F2E5DC"/>
<path d="M41.3382 88.3408C40.8017 88.3408 40.4441 87.9831 40.4441 87.4466V82.6183C40.4441 82.0818 40.8017 81.7242 41.3382 81.7242C42.0535 81.7242 42.4111 82.0818 42.4111 82.6183V87.4466C42.4111 87.9831 42.0535 88.3408 41.3382 88.3408Z" fill="#FFFBF8"/>
<path d="M41.517 78.8629C40.9805 78.8629 40.6229 78.3264 40.6229 77.7899V55.7942C40.6229 55.2577 40.9805 54.9001 41.517 54.9001C42.2323 54.9001 42.5899 55.2577 42.5899 55.7942V77.7899C42.5899 78.3264 42.2323 78.8629 41.517 78.8629Z" fill="#FFFBF8"/>
<path d="M68.6988 35.5868H65.6587C65.301 35.5868 65.1222 35.2291 65.1222 34.8714C65.1222 34.5138 65.301 34.335 65.6587 34.335H68.6988C69.0564 34.335 69.2352 34.5138 69.2352 34.8714C69.2352 35.2291 69.0564 35.5868 68.6988 35.5868Z" fill="#FFCFCF"/>
<path d="M62.6186 35.4078H48.8489C48.4912 35.4078 48.3124 35.0502 48.3124 34.6926C48.3124 34.5137 48.4912 34.156 48.8489 34.156H62.6186C62.9763 34.156 63.334 34.5137 63.334 34.6926C63.334 35.0502 62.9763 35.4078 62.6186 35.4078Z" fill="#FFCFCF"/>
<path d="M63.6916 46.3163C60.1151 46.3163 56.7173 45.601 53.3196 44.3492C53.1407 44.3492 53.1408 43.9915 53.1408 43.8126C53.3196 43.6338 53.4984 43.6339 53.6772 43.6339C59.0421 45.7798 64.9434 46.1374 70.6658 44.7068C70.8447 44.528 71.0235 44.7068 71.0235 44.8856C71.0235 45.0645 71.0236 45.4221 70.8447 45.4221C68.4604 46.0182 66.076 46.3163 63.6916 46.3163Z" fill="#CCB9AD"/>
<path d="M63.6916 48.4622C62.4994 48.4622 61.3072 48.343 60.115 48.1046C59.9362 48.1046 59.7573 47.9257 59.9361 47.7469C59.9361 47.5681 60.115 47.3892 60.2938 47.3892C62.3205 47.8661 64.4069 47.9257 66.5528 47.568C66.7316 47.568 66.9105 47.5681 66.9105 47.9257C67.0893 48.1045 66.9104 48.2833 66.7316 48.2833C65.7778 48.4026 64.7646 48.4622 63.6916 48.4622Z" fill="#CCB9AD"/>
<path d="M80.5013 56.8671C80.3225 56.8671 80.1437 56.6883 80.1437 56.5094C80.5013 54.7212 79.9649 52.9329 78.892 51.5023C78.892 51.3235 78.8919 51.1446 79.0708 50.9658C79.2496 50.7869 79.4284 50.9658 79.6072 50.9658C80.6802 52.5752 81.2167 54.5423 80.859 56.5094C80.859 56.6883 80.6802 56.8671 80.5013 56.8671Z" fill="#CCB9AD"/>
<path fill-rule="evenodd" clip-rule="evenodd" d="M90.1581 127.683H35.0793C34.9004 127.683 34.7216 127.504 34.7216 127.146V113.198C34.7216 112.84 34.9004 112.661 35.0793 112.661H90.1581C90.5157 112.661 90.6945 112.84 90.6945 113.198V127.146C90.6945 127.504 90.5157 127.683 90.1581 127.683ZM35.6157 126.789H89.8004V113.555H35.6157V126.789Z" fill="#93A88D"/>
<path d="M51.3525 127.146H35.0793V113.198H51.3525V127.146Z" fill="#93A88D"/>
<path d="M90.1581 127.146H74.0636V113.198H90.1581V127.146Z" fill="#93A88D"/>
<path d="M64.4068 125.179C63.8704 125.179 63.6916 125 63.6916 124.643V117.311L61.5456 119.457C61.188 119.814 60.8303 119.814 60.6515 119.457C60.2939 119.278 60.2939 118.92 60.6515 118.563L63.8704 115.344C64.0492 115.165 64.4069 114.986 64.5857 115.165C64.7646 115.344 64.9433 115.523 64.9433 115.701V124.643C64.9433 125 64.7645 125.179 64.4068 125.179Z" fill="#93A88D"/>
<path d="M86.7603 123.927C86.4026 123.927 86.045 123.57 86.045 123.391V117.49L84.4356 119.278C84.0779 119.457 83.7202 119.457 83.5414 119.278C83.3626 118.92 83.3626 118.741 83.5414 118.384L86.2238 115.701C86.4623 115.582 86.7007 115.582 86.9392 115.701C87.0584 115.701 87.1775 115.821 87.2967 116.059V123.391C87.2967 123.57 86.9391 123.927 86.7603 123.927Z" fill="white"/>
<path d="M79.4284 122.497C79.0708 122.497 78.892 122.318 78.892 121.96V118.205C78.892 117.847 79.0708 117.668 79.4284 117.668C79.6073 117.668 79.9649 117.847 79.9649 118.205V121.96C79.9649 122.318 79.6073 122.497 79.4284 122.497Z" fill="white"/>
<path d="M81.2167 120.708H77.4613C77.1036 120.708 76.9248 120.351 76.9248 120.172C76.9248 119.814 77.1036 119.635 77.4613 119.635H81.2167C81.5744 119.635 81.7532 119.814 81.7532 120.172C81.7532 120.351 81.5744 120.708 81.2167 120.708Z" fill="white"/>
<path d="M47.7759 123.927C47.5971 123.927 47.2395 123.57 47.2395 123.391V117.49L45.4512 119.278C45.2724 119.457 44.9147 119.457 44.7359 119.278C44.557 118.92 44.557 118.741 44.7359 118.384L47.4183 115.701C47.6567 115.582 47.8355 115.582 47.9547 115.701C48.1932 115.701 48.3124 115.821 48.3124 116.059V123.391C48.3124 123.57 48.1336 123.927 47.7759 123.927Z" fill="white"/>
<path d="M42.4111 120.708H38.6558C38.2982 120.708 38.1192 120.351 38.1192 120.172C38.1192 119.814 38.2982 119.636 38.6558 119.636H42.4111C42.7688 119.636 42.9476 119.814 42.9476 120.172C42.9476 120.351 42.7688 120.708 42.4111 120.708Z" fill="white"/>
<path d="M179.214 69.2063C179.214 85.6584 165.802 98.8917 149.529 98.8917C133.255 98.8917 119.843 85.6584 119.843 69.2063C119.843 52.933 133.255 39.6998 149.529 39.6998C165.802 39.6998 179.214 52.933 179.214 69.2063Z" fill="#93A88D"/>
<path d="M137.19 66.345C137.19 66.345 135.223 69.3851 132.54 69.564C129.5 69.7428 127.891 67.418 127.891 64.9144C127.891 62.232 130.394 61.1591 132.361 61.3379C135.401 61.5167 137.19 63.6626 137.19 66.345Z" fill="white"/>
<path d="M137.368 72.604C137.368 75.2864 134.865 77.4324 132.361 77.6112C129.321 77.79 127.891 76.0017 127.891 73.4981C127.891 70.8157 130.037 68.8486 132.54 69.0275C136.117 69.3851 137.368 69.7428 137.368 72.604Z" fill="white"/>
<path d="M171.167 64.9144C171.167 67.7757 169.021 69.3851 166.517 69.564C163.298 69.7428 161.689 69.0275 161.689 66.5239C161.689 63.8415 163.12 61.159 166.338 60.8014C169.379 60.6226 171.167 62.0532 171.167 64.9144Z" fill="white"/>
<path d="M171.167 73.4981C171.167 76.3594 169.2 77.79 166.517 77.4324C163.12 77.0747 161.689 75.1076 161.689 72.604C161.689 69.7428 163.835 68.8486 166.517 69.0274C169.915 69.3851 171.167 70.8157 171.167 73.4981Z" fill="white"/>
<path d="M164.908 72.4252C153.642 72.0675 142.733 72.0675 132.719 72.4252V66.1662C143.806 67.2392 154.715 67.7757 164.908 66.1662V72.4252Z" fill="white"/>
<path fill-rule="evenodd" clip-rule="evenodd" d="M177.068 127.683H121.989C121.81 127.683 121.453 127.504 121.453 127.146V113.198C121.453 112.84 121.81 112.661 121.989 112.661H177.068C177.247 112.661 177.605 112.84 177.605 113.198V127.146C177.605 127.266 177.545 127.385 177.426 127.504C177.307 127.623 177.187 127.683 177.068 127.683ZM122.526 126.789H176.532V113.555H122.526V126.789Z" fill="#93A88D"/>
<path d="M138.084 127.146H121.989V113.198H138.084V127.146Z" fill="#93A88D"/>
<path d="M177.068 127.146H160.795V113.198H177.068V127.146Z" fill="#93A88D"/>
<path d="M173.492 123.927C173.134 123.927 172.955 123.57 172.955 123.391V117.49L171.167 119.278C170.988 119.457 170.63 119.457 170.451 119.278C170.273 118.92 170.273 118.741 170.451 118.384L173.134 115.701C173.253 115.582 173.432 115.582 173.67 115.701C173.909 115.701 174.028 115.821 174.028 116.059V123.391C174.028 123.57 173.849 123.927 173.492 123.927Z" fill="white"/>
<path d="M166.16 122.497C165.981 122.497 165.623 122.318 165.623 121.96V118.205C165.623 117.847 165.981 117.668 166.16 117.668C166.517 117.668 166.696 117.847 166.696 118.205V121.96C166.696 122.318 166.517 122.497 166.16 122.497Z" fill="white"/>
<path d="M168.127 120.708H164.371C164.014 120.708 163.835 120.351 163.835 120.172C163.835 119.814 164.014 119.635 164.371 119.635H168.127C168.484 119.635 168.663 119.814 168.663 120.172C168.663 120.351 168.484 120.708 168.127 120.708Z" fill="white"/>
<path d="M134.686 123.927C134.328 123.927 134.15 123.57 134.15 123.391V117.49L132.361 119.278C132.182 119.457 131.825 119.457 131.646 119.278C131.288 118.92 131.288 118.741 131.646 118.384L134.328 115.701C134.448 115.582 134.626 115.582 134.865 115.701C135.103 115.701 135.223 115.821 135.223 116.059V123.391C135.223 123.57 135.044 123.927 134.686 123.927Z" fill="white"/>
<path d="M129.321 120.709H125.387C125.208 120.709 124.851 120.351 124.851 120.172C124.851 119.814 125.208 119.636 125.387 119.636H129.321C129.5 119.636 129.858 119.814 129.858 120.172C129.858 120.351 129.5 120.709 129.321 120.709Z" fill="white"/>
<path d="M151.853 125.358H147.025C146.846 125.358 146.667 125.179 146.489 124.822C146.31 124.643 146.489 124.285 146.667 124.106C146.667 124.106 148.277 122.676 149.886 120.351C150.78 119.278 150.959 117.668 150.602 116.774C150.482 116.417 150.184 116.297 149.708 116.417C149.111 116.417 148.694 116.536 148.456 116.774C147.919 117.311 147.919 118.026 147.919 118.026C147.919 118.384 147.74 118.741 147.383 118.741C147.025 118.741 146.667 118.384 146.667 118.205C146.667 118.026 146.667 116.774 147.562 115.88C148.038 115.284 148.754 114.986 149.708 114.986C150.602 114.986 151.317 115.522 151.853 116.238C152.569 117.668 152.032 119.814 150.959 121.066C150.065 122.318 149.35 123.391 148.635 123.927H151.853C152.211 123.927 152.569 124.285 152.569 124.643C152.569 125 152.211 125.358 151.853 125.358Z" fill="#93A88D"/>
<path d="M143.627 197.962H68.5199C54.3925 197.962 42.9476 186.517 42.9476 172.39C42.9476 158.262 54.3925 146.638 68.5199 146.638H143.627C157.755 146.638 169.2 158.262 169.2 172.39C169.2 186.517 157.755 197.962 143.627 197.962Z" fill="#D5645D"/>
<path fill-rule="evenodd" clip-rule="evenodd" d="M80.3226 161.66H87.2968C91.5886 161.66 94.9864 162.733 94.9864 166.846C94.9864 168.634 93.9135 170.601 91.4099 171.138V171.317C94.45 171.853 96.0594 173.463 96.0594 176.145C96.0594 180.437 92.4828 182.225 88.0121 182.225H80.3226V161.66ZM87.118 169.886C89.4427 169.886 90.3369 168.992 90.3369 167.382C90.3369 165.952 89.2639 165.237 87.118 165.237H84.972V169.886H87.118ZM87.6544 178.649C90.158 178.649 91.4099 177.754 91.4099 175.787C91.4099 173.999 90.158 173.284 87.6544 173.284H84.972V178.649H87.6544Z" fill="white"/>
<path d="M99.2782 161.66H103.928V173.105C103.928 177.218 105.18 178.649 107.504 178.649C109.829 178.649 111.081 177.218 111.081 173.105V161.66H115.73V172.747C115.73 179.543 112.869 182.583 107.504 182.583C102.14 182.583 99.2782 179.543 99.2782 172.747V161.66Z" fill="white"/>
<path d="M123.241 174.893L117.161 161.66H121.989L123.956 166.31C124.493 167.919 125.029 169.35 125.566 170.959H125.745C126.281 169.35 126.818 167.919 127.533 166.31L129.321 161.66H134.15L127.891 174.893V182.225H123.241V174.893Z" fill="white"/>
<path fill-rule="evenodd" clip-rule="evenodd" d="M177.068 270.029H121.989C121.81 270.029 121.453 269.851 121.453 269.672V255.544C121.453 255.366 121.81 255.187 121.989 255.187H177.068C177.247 255.187 177.605 255.366 177.605 255.544V269.672C177.605 269.791 177.545 269.91 177.426 270.029C177.307 270.029 177.187 270.029 177.068 270.029ZM122.526 269.135H176.532V256.081H122.526V269.135Z" fill="#93A88D"/>
<path d="M138.084 269.672H121.989V255.544H138.084V269.672Z" fill="#93A88D"/>
<path d="M177.068 269.672H160.795V255.544H177.068V269.672Z" fill="#93A88D"/>
<path d="M151.138 267.705C150.78 267.705 150.423 267.347 150.423 266.989V259.836L148.277 261.982C148.098 262.161 147.74 262.161 147.383 261.982C147.204 261.803 147.204 261.267 147.383 261.088L150.78 257.69C150.959 257.511 151.138 257.511 151.496 257.69C151.675 257.69 151.853 258.048 151.853 258.227V266.989C151.853 267.347 151.496 267.705 151.138 267.705Z" fill="#93A88D"/>
<path d="M173.492 266.274C173.134 266.274 172.955 266.095 172.955 265.738V259.836L171.167 261.625C170.988 261.803 170.63 261.803 170.451 261.625C170.273 261.446 170.273 261.088 170.451 260.909L173.134 258.227C173.253 257.988 173.432 257.929 173.67 258.048C173.909 258.167 174.028 258.346 174.028 258.584V265.738C174.028 266.095 173.849 266.274 173.492 266.274Z" fill="white"/>
<path d="M166.16 265.022C165.981 265.022 165.623 264.664 165.623 264.486V260.73C165.623 260.373 165.981 260.015 166.16 260.015C166.517 260.015 166.696 260.373 166.696 260.73V264.486C166.696 264.664 166.517 265.022 166.16 265.022Z" fill="white"/>
<path d="M168.127 263.055H164.371C164.014 263.055 163.835 262.876 163.835 262.519C163.835 262.161 164.014 261.982 164.371 261.982H168.127C168.484 261.982 168.663 262.161 168.663 262.519C168.663 262.876 168.484 263.055 168.127 263.055Z" fill="white"/>
<path d="M134.686 266.274C134.328 266.274 134.15 266.095 134.15 265.738V259.836L132.361 261.625C132.182 261.803 131.825 261.803 131.646 261.625C131.288 261.446 131.288 261.088 131.646 260.909L134.328 258.227C134.448 257.988 134.626 257.929 134.865 258.048C135.103 258.167 135.223 258.346 135.223 258.584V265.738C135.223 266.095 135.044 266.274 134.686 266.274Z" fill="white"/>
<path d="M129.321 263.055H125.387C125.208 263.055 124.851 262.876 124.851 262.519C124.851 262.161 125.208 261.982 125.387 261.982H129.321C129.5 261.982 129.858 262.161 129.858 262.519C129.858 262.876 129.5 263.055 129.321 263.055Z" fill="white"/>
<path d="M175.101 224.071H123.956C121.81 224.071 120.022 225.501 119.307 227.29C117.161 233.131 115.969 239.033 115.73 244.994C115.73 245.709 116.267 246.066 116.803 246.066H182.254C182.791 246.066 183.327 245.53 183.327 244.994C182.731 238.794 181.539 232.952 179.751 227.468C179.035 225.501 177.247 224.071 175.101 224.071Z" fill="#F4CF7C"/>
<path d="M179.751 227.468C179.035 225.501 177.247 224.071 175.101 224.071H159.007C161.153 224.071 162.941 225.501 163.656 227.468C165.444 232.952 166.637 238.794 167.233 244.994C167.233 245.53 166.696 246.066 166.16 246.066H182.254C182.791 246.066 183.327 245.53 183.327 244.994C182.731 238.794 181.539 232.952 179.751 227.468Z" fill="#E8AF64"/>
<path d="M179.751 227.468C179.035 225.501 177.247 224.071 175.101 224.071H123.956C121.81 224.071 120.022 225.323 119.307 227.29V227.468H179.751Z" fill="#5E5254"/>
<path d="M163.656 227.468H179.751C179.035 225.501 177.247 224.071 175.101 224.071H159.007C161.153 224.071 162.941 225.501 163.656 227.468Z" fill="#4C4546"/>
<path d="M138.62 234.085C138.62 234.085 137.011 236.231 134.686 236.41C132.004 236.589 130.573 234.8 130.573 232.833C130.573 230.687 132.898 229.793 134.507 229.972C137.19 230.151 138.62 231.76 138.62 234.085Z" fill="white"/>
<path d="M138.799 238.913C138.799 241.059 136.653 242.848 134.507 243.026C131.825 243.205 130.573 241.775 130.573 239.629C130.573 237.483 132.361 235.873 134.686 236.052C137.726 236.41 138.799 236.589 138.799 238.913Z" fill="white"/>
<path d="M168.484 232.833C168.484 235.158 166.517 236.231 164.371 236.41C161.689 236.589 160.258 236.052 160.258 234.085C160.258 231.939 161.331 229.793 164.193 229.614C166.875 229.436 168.484 230.509 168.484 232.833Z" fill="white"/>
<path d="M168.484 239.629C168.484 241.953 166.696 243.026 164.371 242.848C161.51 242.49 160.258 240.88 160.258 238.913C160.258 236.767 162.047 235.873 164.371 236.052C167.411 236.41 168.484 237.483 168.484 239.629Z" fill="white"/>
<path d="M162.941 238.735C153.105 238.556 143.449 238.556 134.865 238.735V233.727C144.522 234.622 153.999 234.979 162.941 233.727V238.735Z" fill="white"/>
<path fill-rule="evenodd" clip-rule="evenodd" d="M177.068 353.363H121.989C121.81 353.363 121.453 353.184 121.453 353.005V338.878C121.453 338.699 121.81 338.52 121.989 338.52H177.068C177.247 338.52 177.605 338.699 177.605 338.878V353.005C177.605 353.125 177.545 353.244 177.426 353.363C177.307 353.363 177.187 353.363 177.068 353.363ZM122.526 352.469H176.532V339.414H122.526V352.469Z" fill="#93A88D"/>
<path d="M138.084 353.005H121.989V338.878H138.084V353.005Z" fill="#93A88D"/>
<path d="M177.068 353.005H160.795V338.878H177.068V353.005Z" fill="#93A88D"/>
<path d="M151.138 351.038C150.78 351.038 150.423 350.68 150.423 350.323V343.17L148.277 345.316C148.098 345.494 147.74 345.494 147.383 345.316C147.204 344.958 147.204 344.6 147.383 344.421L150.78 341.024C150.959 340.845 151.138 340.845 151.496 341.024C151.675 341.024 151.853 341.203 151.853 341.56V350.323C151.853 350.68 151.496 351.038 151.138 351.038Z" fill="#93A88D"/>
<path d="M173.492 349.607C173.134 349.607 172.955 349.429 172.955 349.071V343.17L171.167 344.958C170.988 345.137 170.63 345.137 170.451 344.958C170.273 344.779 170.273 344.421 170.451 344.243L173.134 341.56C173.253 341.322 173.432 341.262 173.67 341.381C173.849 341.381 174.028 341.739 174.028 341.918V349.071C174.028 349.429 173.849 349.607 173.492 349.607Z" fill="white"/>
<path d="M166.16 348.356C165.981 348.356 165.623 347.998 165.623 347.819V343.885C165.623 343.706 165.981 343.349 166.16 343.349C166.517 343.349 166.696 343.706 166.696 343.885V347.819C166.696 347.998 166.517 348.356 166.16 348.356Z" fill="white"/>
<path d="M168.127 346.389H164.371C164.014 346.389 163.835 346.21 163.835 345.852C163.835 345.494 164.014 345.316 164.371 345.316H168.127C168.484 345.316 168.663 345.494 168.663 345.852C168.663 346.21 168.484 346.389 168.127 346.389Z" fill="white"/>
<path d="M134.686 349.607C134.328 349.607 134.15 349.429 134.15 349.071V343.17L132.361 344.958C132.182 345.137 131.825 345.137 131.646 344.958C131.288 344.779 131.288 344.421 131.646 344.243L134.328 341.56C134.448 341.322 134.626 341.262 134.865 341.381C135.103 341.501 135.223 341.679 135.223 341.918V349.071C135.223 349.429 135.044 349.607 134.686 349.607Z" fill="white"/>
<path d="M129.321 346.389H125.387C125.208 346.389 124.851 346.21 124.851 345.852C124.851 345.494 125.208 345.316 125.387 345.316H129.321C129.5 345.316 129.858 345.494 129.858 345.852C129.858 346.21 129.5 346.389 129.321 346.389Z" fill="white"/>
<path d="M165.981 312.233C165.981 321.889 158.649 330.652 148.635 329.579C139.336 328.327 132.719 324.214 131.467 312.233C130.573 302.934 139.336 294.529 148.635 295.065C160.258 295.959 165.981 300.788 165.981 312.233Z" fill="#D5645D"/>
<path d="M153.463 295.78C158.649 297.748 161.331 302.039 161.331 309.193C161.331 317.419 155.072 325.108 146.489 324.214C138.441 323.32 132.719 319.565 131.646 309.729C131.467 310.623 131.467 311.517 131.467 312.233C132.719 324.214 139.336 328.327 148.635 329.579C158.649 330.652 165.981 321.889 165.981 312.233C165.981 302.576 161.689 297.569 153.463 295.78Z" fill="#B74B4B"/>
<path d="M146.846 296.138C146.846 296.138 147.383 292.204 148.813 292.204C150.423 292.204 150.78 296.138 150.78 296.138H146.846Z" fill="#D5645D"/>
<path d="M146.846 328.327C146.846 328.327 147.383 332.261 148.813 332.261C150.423 332.261 150.78 328.148 150.78 328.148L146.846 328.327Z" fill="#B74B4B"/>
<path d="M158.828 299.357C158.828 299.357 162.047 297.032 162.941 297.926C164.014 298.999 161.51 302.218 161.51 302.218L158.828 299.357Z" fill="#B74B4B"/>
<path d="M136.117 322.247C136.117 322.247 133.613 325.287 134.686 326.36C135.759 327.433 138.978 324.75 138.978 324.75L136.117 322.247Z" fill="#B74B4B"/>
<path d="M164.908 310.265C164.908 310.265 168.842 310.802 168.842 312.233C168.842 313.663 164.729 314.2 164.729 314.2L164.908 310.265Z" fill="#B74B4B"/>
<path d="M132.719 310.265C132.719 310.265 128.785 310.802 128.785 312.233C128.785 313.663 132.898 314.2 132.898 314.2L132.719 310.265Z" fill="#D5645D"/>
<path d="M161.51 322.247C161.51 322.247 164.014 325.287 162.941 326.36C161.868 327.433 158.649 324.75 158.649 324.75L161.51 322.247Z" fill="#B74B4B"/>
<path d="M138.799 299.357C138.799 299.357 135.58 297.032 134.686 297.926C133.613 298.999 136.117 302.218 136.117 302.218L138.799 299.357Z" fill="#D5645D"/>
<path d="M150.959 312.411C150.959 313.663 150.065 314.736 148.635 314.557C147.383 314.379 146.668 313.842 146.489 312.411C146.31 311.16 147.383 310.087 148.635 310.087C150.244 310.265 150.959 310.802 150.959 312.411Z" fill="#F7A3A1"/>
<path d="M158.291 304.722C158.291 305.974 157.397 307.225 156.145 307.047C154.894 306.868 153.999 306.331 153.821 304.722C153.642 303.47 154.894 302.397 156.145 302.576C157.576 302.576 158.291 303.291 158.291 304.722Z" fill="#B74B4B"/>
<path d="M143.449 304.722C143.449 305.974 142.376 307.225 141.124 307.047C139.872 306.868 138.978 306.331 138.799 304.722C138.799 303.47 139.872 302.397 141.124 302.576C142.555 302.576 143.449 303.291 143.449 304.722Z" fill="#F7A3A1"/>
<path d="M158.291 319.207C158.291 320.459 157.397 321.71 156.145 321.532C154.894 321.353 153.999 320.816 153.821 319.207C153.642 317.955 154.894 316.882 156.145 317.061C157.576 317.061 158.291 317.776 158.291 319.207Z" fill="#B74B4B"/>
<path d="M143.449 319.207C143.449 320.459 142.376 321.71 141.124 321.532C139.872 321.353 138.978 320.816 138.799 319.207C138.799 317.955 139.872 316.882 141.124 317.061C142.555 317.061 143.449 317.776 143.449 319.207Z" fill="#B74B4B"/>
<path d="M202.64 129.829C193.341 124.285 177.605 114.807 175.995 117.132C174.207 119.278 184.042 123.391 183.864 124.285C183.685 125.358 182.075 124.464 181.36 126.073C180.645 127.862 181.896 129.65 181.896 129.65C181.896 129.65 180.824 129.471 180.466 131.617C179.929 133.763 182.969 136.266 186.367 137.697C190.301 139.306 193.878 139.843 196.381 141.452C203.177 139.843 202.64 129.829 202.64 129.829Z" fill="#F6B39B"/>
<path d="M202.64 129.829C214.443 137.697 229.107 142.525 229.107 142.525L219.808 159.872C219.808 159.872 204.071 150.752 196.381 141.453C188.871 132.332 202.64 129.829 202.64 129.829Z" fill="#F6B39B"/>
<path d="M201.21 147.89C201.21 147.89 201.925 139.128 209.972 131.975L216.41 136.088C216.41 136.088 209.794 145.029 207.29 153.255L201.21 147.89Z" fill="#74896F"/>
<path d="M207.29 153.255C208.899 156.653 227.855 176.324 258.256 170.78C291.875 164.7 304.393 108.012 289.372 99.7858C272.562 90.4867 265.945 137.34 248.599 141.81C236.975 144.85 218.914 133.763 216.41 136.088C212.297 139.664 205.681 150.036 207.29 153.255Z" fill="#93A88D"/>
<path d="M247.705 172.39C223.206 172.39 207.111 156.653 205.859 151.825C205.859 151.467 206.038 151.109 206.396 150.93C206.754 150.93 207.111 151.109 207.111 151.467C208.184 155.222 226.961 175.787 258.077 170.244C278.463 166.488 291.16 144.314 294.2 125.179C296.167 113.198 294.2 103.72 289.014 100.859C288.656 100.68 288.657 100.322 288.835 99.9647C289.014 99.7858 289.372 99.607 289.729 99.7858C295.452 102.826 297.598 112.661 295.631 125.358C292.412 144.85 279.357 167.74 258.435 171.496C254.739 172.211 251.162 172.509 247.705 172.39Z" fill="#74896F"/>
<path d="M266.124 164.164C265.766 164.164 265.409 163.985 265.409 163.627C265.409 163.269 265.588 162.912 265.945 162.912C267.912 162.554 269.701 161.66 270.774 160.229C271.131 160.051 271.489 159.872 271.847 160.229C272.026 160.408 272.026 160.766 271.847 161.124C270.416 162.733 268.27 163.806 266.124 164.164Z" fill="#74896F"/>
<path d="M261.296 154.865C260.938 154.865 260.759 154.865 260.581 154.507C258.792 149.857 255.216 145.744 250.745 143.598C250.387 143.42 250.209 143.062 250.388 142.704C250.566 142.347 250.924 142.168 251.282 142.347C256.11 144.671 260.044 148.963 261.832 154.149C262.011 154.328 261.832 154.865 261.475 154.865C261.356 154.865 261.296 154.865 261.296 154.865Z" fill="#74896F"/>
<path d="M260.223 146.817C259.985 146.817 259.806 146.758 259.686 146.638C258.077 144.493 255.752 143.062 253.07 142.347C252.712 142.347 252.533 141.989 252.533 141.631C252.712 141.274 253.07 141.095 253.427 141.095C256.289 141.81 258.971 143.42 260.759 145.744C260.938 146.102 260.759 146.46 260.581 146.817C260.461 146.817 260.342 146.817 260.223 146.817Z" fill="#74896F"/>
<path d="M265.588 123.391C265.469 123.391 265.349 123.331 265.23 123.212C265.051 123.212 264.872 122.676 265.051 122.497C265.051 122.318 268.27 115.165 269.88 111.946C270.058 111.588 270.416 111.41 270.774 111.588C271.131 111.767 271.31 112.125 271.131 112.483C269.522 115.701 266.303 122.855 266.124 123.033C266.124 123.212 265.767 123.391 265.588 123.391Z" fill="#74896F"/>
<path d="M183.506 130.902C183.506 130.902 183.446 130.902 183.327 130.902L181.718 130.008C181.36 130.008 181.36 129.65 181.539 129.292C181.539 129.114 181.897 128.935 182.254 129.114L183.864 130.008C184.042 130.008 184.221 130.365 184.042 130.544C183.923 130.783 183.744 130.902 183.506 130.902Z" fill="#D4847B"/>
<path d="M185.652 125.716C185.533 125.716 185.473 125.656 185.473 125.537L183.685 124.822C183.506 124.643 183.327 124.464 183.506 124.106C183.506 123.928 183.864 123.749 184.042 123.928L185.831 124.643C186.188 124.822 186.188 125 186.188 125.358C186.069 125.597 185.89 125.716 185.652 125.716Z" fill="#D4847B"/>
<path d="M47.4183 273.785C54.7502 263.77 59.5786 252.325 62.4398 240.165C66.1952 224.071 63.5127 194.207 64.4069 191.345C65.6587 187.232 69.414 182.583 66.7316 180.079C65.1222 178.649 63.5127 180.079 63.5127 180.079C63.5127 180.079 63.334 176.145 60.1151 176.145C55.8232 176.145 55.6444 180.258 55.6444 180.258C55.6444 180.258 53.8561 178.112 51.889 179.9C49.5642 182.225 52.0678 186.875 52.2466 190.988C53.4984 212.268 50.1007 221.567 47.4183 229.793C45.4512 236.231 47.4183 273.785 47.4183 273.785Z" fill="#F1C49D"/>
<path d="M62.4398 240.702C62.4398 240.702 62.3802 240.702 62.2609 240.702C61.9033 240.702 61.7245 240.344 61.7245 239.986C63.5128 229.793 63.5128 214.772 63.5128 203.684C63.5128 198.141 63.5128 193.67 63.6916 191.345C63.6916 191.226 63.7512 191.107 63.8704 190.988C63.8704 190.988 66.5529 186.875 66.9105 183.656C67.0893 181.867 66.3741 180.437 65.4799 180.258C64.9434 179.9 64.4069 180.258 64.0492 180.794C62.9762 181.689 62.6186 183.477 62.6186 184.729C62.6186 185.086 62.261 185.265 61.9034 185.265C61.5457 185.265 61.188 184.908 61.188 184.55C61.3668 183.119 61.7245 180.973 62.9763 179.722C63.8704 178.827 65.1222 178.47 66.0164 179.006C67.447 179.543 68.3412 181.689 68.1623 183.835C67.9835 187.053 65.4799 190.809 65.1222 191.703C64.7646 194.028 64.7646 198.32 64.7646 203.684C64.7646 214.772 64.7645 229.972 63.1551 240.165C62.9762 240.523 62.7975 240.702 62.4398 240.702Z" fill="#C18C68"/>
<path d="M56.0019 185.444C55.6443 185.444 55.4655 185.265 55.2867 185.086C55.2867 184.908 54.3925 182.583 54.929 180.258C54.929 180.079 55.2867 177.576 57.075 176.324C58.0287 175.609 59.1016 175.37 60.2938 175.609C63.3339 175.966 64.0492 178.827 64.2281 180.258C64.2281 180.616 63.8704 180.973 63.5127 180.973C63.155 180.973 62.7975 180.616 62.7975 180.258C62.7975 180.079 62.6186 177.218 60.115 176.86C59.2805 176.741 58.5652 176.92 57.9691 177.397C56.5385 178.291 56.3596 180.437 56.3596 180.437C55.8231 182.583 56.5385 184.55 56.5385 184.55C56.7173 184.908 56.5385 185.265 56.1808 185.444C56.1808 185.444 56.1211 185.444 56.0019 185.444Z" fill="#C18C68"/>
<path d="M52.7831 210.48C52.4255 210.48 52.0679 210.301 52.0679 209.943L52.4255 190.809C52.2466 189.736 51.889 188.305 51.5313 186.696C50.6372 183.656 49.7431 180.437 51.5313 179.185C52.3659 178.589 53.2004 178.35 54.035 178.47C55.2867 178.649 56.002 179.543 56.002 179.721C56.3597 179.9 56.1808 180.437 56.002 180.616C55.6444 180.794 55.1079 180.794 54.9291 180.437C54.9291 180.437 54.3926 179.9 53.6773 179.721C53.3196 179.721 52.9023 179.9 52.4255 180.258C51.3525 180.973 52.2467 184.013 52.7831 186.338C53.3196 188.126 53.6773 189.557 53.6773 190.809L53.4985 209.943C53.4985 210.301 53.1408 210.48 52.7831 210.48Z" fill="#C18C68"/>
<path d="M42.0534 216.381C39.0133 217.454 34.3639 220.852 32.5756 224.428C30.6085 228.363 27.7472 239.271 30.072 241.417C32.5755 243.563 41.1593 242.311 44.557 236.946C47.9548 231.76 42.0534 216.381 42.0534 216.381Z" fill="#D29769"/>
<path d="M40.6229 303.291C43.6629 309.192 44.7358 322.247 41.6958 344.958C41.1593 350.144 39.5499 356.939 37.2251 360.874C28.8202 374.643 11.1163 379.472 10.401 386.625C9.8645 392.884 13.4411 402.183 15.4082 403.077C17.3753 403.971 19.8788 403.435 20.2365 406.296C20.4153 409.157 7.89744 409.693 5.75152 406.475C3.42676 403.435 0.744371 385.909 1.63851 380.545C3.06913 372.319 12.7258 361.947 14.6929 353.184C18.4483 337.268 10.401 324.572 22.3824 302.397C31.5026 285.766 40.6229 303.291 40.6229 303.291Z" fill="#F1C49D"/>
<path d="M39.9076 222.282C40.6229 216.202 44.5571 212.089 47.4183 209.586C49.7431 207.44 51.889 208.334 54.9291 205.473C58.148 202.611 62.9764 194.743 65.48 193.67C67.9835 192.597 72.8119 196.174 74.4213 200.644C76.5673 206.724 69.0565 223.534 71.7389 227.826C74.0637 235.516 84.6145 248.928 87.8334 265.201C93.1982 292.204 79.4284 302.397 70.3082 320.28C62.7975 335.301 58.8633 351.038 42.4112 346.389C12.3682 337.805 12.3682 318.134 28.105 293.277C36.5099 280.044 42.7689 272.175 44.0207 254.471C44.3783 244.636 39.3711 228.72 39.9076 222.282Z" fill="#F1C49D"/>
<path d="M30.7874 315.63C30.7874 315.63 16.3024 315.63 10.5799 303.47C3.06918 287.733 10.9375 275.752 9.5069 274.321C8.25511 273.069 -4.62042 287.197 3.06916 305.795C10.9376 324.393 30.4297 325.108 30.4297 325.108C36.8675 324.035 35.2581 315.988 30.7874 315.63Z" fill="#F1C49D"/>
<path d="M84.7933 276.288C92.8405 266.632 98.3841 255.544 101.961 243.563C106.968 227.826 106.074 197.783 107.147 195.101C108.577 191.166 112.69 186.696 110.187 183.835C108.756 182.404 106.968 183.835 106.968 183.835C106.968 183.835 106.968 179.9 103.749 179.543C99.6359 179.185 99.0994 183.477 99.0994 183.477C99.0994 183.477 97.4899 181.152 95.344 182.762C93.0192 184.908 95.1652 189.736 95.1652 194.028C94.9864 215.308 90.8733 224.25 87.6544 232.297C85.3297 238.556 77.8189 248.212 74.7789 251.968L84.7933 276.288Z" fill="#F1C49D"/>
<path d="M52.7831 207.797C52.5447 207.797 52.3659 207.738 52.2467 207.619C51.889 207.261 52.0678 206.903 52.4255 206.546C53.1408 206.069 53.8561 205.532 54.5714 204.936C55.8232 203.863 57.6115 201.538 59.221 199.393C61.5457 196.531 63.6917 193.67 65.1223 192.955C65.4799 192.955 65.8376 192.955 66.0164 193.312C66.1952 193.67 66.0164 194.207 65.6587 194.207C64.4069 194.743 62.261 197.783 60.2939 200.287C58.6845 202.433 56.8962 204.757 55.4655 206.009C54.7502 206.605 53.9753 207.201 53.1408 207.797C53.0216 207.797 52.9024 207.797 52.7831 207.797Z" fill="#C18C68"/>
<path d="M67.9834 310.623C67.0893 322.247 78.3554 334.407 71.2023 356.224C64.2281 378.22 62.7975 380.545 61.9034 386.625C61.0092 392.705 64.7645 402.183 66.7316 403.077C68.8776 403.971 71.2023 403.435 71.56 406.296C71.7388 409.157 59.3998 409.694 57.075 406.475C54.9291 403.435 49.0278 386.267 49.3855 380.545C49.5643 378.578 50.2795 366.954 49.743 360.516C49.3854 354.257 46.3454 347.104 41.517 345.852C36.8675 344.779 67.9834 310.623 67.9834 310.623Z" fill="#F1C49D"/>
<path d="M71.7389 229.972C69.2353 225.323 75.1365 217.633 75.673 213.341C76.2095 209.228 73.7059 205.651 73.7059 205.651C69.5929 216.202 66.374 226.574 71.7389 229.972Z" fill="#F1C49D"/>
<path d="M63.1551 195.458C63.1551 196.174 70.3082 195.995 70.4871 195.458C70.6659 194.743 69.2352 192.776 66.7316 192.955C63.6916 193.134 63.1551 194.922 63.1551 195.458Z" fill="#4C4546"/>
<path d="M69.7717 218.706C69.6525 218.706 69.5929 218.646 69.5929 218.527C69.4141 218.348 69.4141 217.991 69.5929 217.812C69.5929 217.812 73.3483 213.878 74.0636 207.261C75.3154 198.677 69.9505 195.816 69.7717 195.637C69.414 195.458 69.4141 195.279 69.5929 195.101C69.5929 194.743 69.9505 194.743 70.1294 194.743C70.1294 194.922 76.3883 197.962 75.1365 207.44C74.2424 214.235 70.3082 218.348 70.1294 218.527C70.1294 218.646 70.0101 218.706 69.7717 218.706Z" fill="#4C4546"/>
<path d="M79.9649 244.993C79.8456 244.993 79.7264 244.874 79.6072 244.636C77.2824 239.807 71.7388 229.435 71.7388 229.257C71.7388 229.137 71.6792 229.078 71.56 229.078C71.2023 228.362 69.9505 226.038 73.3482 218.706C76.9248 211.374 74.2424 207.797 74.2424 207.619C74.0635 207.44 74.0635 207.261 74.2424 207.082C74.6 206.903 74.7789 206.903 74.9577 207.082C75.1365 207.261 77.9977 211.195 74.2424 219.063C72.0964 223.713 71.5003 226.872 72.4541 228.541C72.4541 228.661 72.5138 228.78 72.633 228.899C72.9906 229.793 78.1766 239.629 80.5013 244.278C80.5013 244.457 80.5013 244.815 80.1436 244.993C80.1436 244.993 80.0841 244.993 79.9649 244.993Z" fill="#4C4546"/>
<path d="M61.0092 210.122C61.3668 209.407 62.4397 209.228 63.155 209.765C64.0492 210.301 64.228 211.195 63.8704 211.911C63.5127 212.447 62.4397 212.626 61.7244 212.089C61.0091 211.553 60.6515 210.659 61.0092 210.122Z" fill="#4C4546"/>
<path d="M58.6844 216.56C62.0821 217.275 65.4799 226.753 66.1952 231.045C66.9105 235.516 64.2281 246.066 59.0421 246.961C54.7502 247.855 48.4913 238.377 47.5972 233.906C46.5242 227.29 52.6043 215.308 58.6844 216.56Z" fill="#D29769"/>
<path d="M64.5858 409.515C62.6187 409.515 60.4727 409.157 58.3268 408.084C52.4255 404.686 49.3854 384.121 49.2065 383.227C48.6701 379.651 49.0277 375.895 49.2065 371.782C49.5642 367.49 49.7431 362.841 49.0278 358.728C46.8818 347.462 44.0205 346.567 37.2251 344.422C36.3906 344.183 35.4964 343.945 34.5427 343.706C33.9466 343.468 33.3505 343.229 32.7544 342.991C32.3968 342.812 32.218 342.454 32.3968 342.097C32.5757 341.739 32.9333 341.56 33.291 341.739C33.7679 341.978 34.3639 342.156 35.0793 342.276C35.9138 342.633 36.7482 342.931 37.5828 343.17C44.557 345.316 47.9548 346.389 50.2796 358.37C51.1737 362.841 50.816 367.49 50.6371 371.961C50.2795 375.895 50.1007 379.651 50.6371 383.048C51.3525 388.771 54.5714 404.329 59.0421 406.832C64.228 409.694 70.1294 407.369 70.6658 406.654C71.0235 406.296 71.3812 406.296 71.7389 406.475C71.9177 406.654 72.0965 407.011 71.9176 407.369C71.2023 408.263 68.1623 409.515 64.5858 409.515Z" fill="#C18C68"/>
<path d="M69.414 322.426C69.0564 322.426 68.818 322.247 68.6988 321.889C68.5199 321.532 64.5857 312.59 65.6587 306.331C65.6587 305.974 66.0164 305.795 66.374 305.795C66.7317 305.974 67.0893 306.153 67.0893 306.689C66.1951 311.16 68.5199 317.597 69.414 320.101L79.6072 303.112C84.6144 294.708 89.6215 286.124 88.1909 271.281C88.1909 271.043 88.2506 270.864 88.3698 270.745C88.3698 270.566 98.2053 256.617 101.424 243.384C103.749 233.37 104.822 218.348 105.537 207.261C105.895 201.717 106.074 197.247 106.431 194.922C106.431 194.803 106.491 194.743 106.61 194.743C106.61 194.743 109.65 190.809 110.187 187.59C110.366 185.802 109.829 184.371 108.935 184.013C108.398 183.656 107.862 184.013 107.325 184.371C106.431 185.444 105.895 187.054 105.716 188.305C105.716 188.663 105.358 188.842 105.001 188.842C104.643 188.842 104.464 188.484 104.464 188.126C104.643 186.696 105.18 184.55 106.431 183.477C107.504 182.583 108.577 182.225 109.65 182.762C111.081 183.477 111.796 185.623 111.438 187.769C110.902 190.988 108.398 194.564 107.862 195.458C107.504 197.604 107.147 201.896 106.789 207.44C106.074 218.527 105.18 233.727 102.676 243.742C99.6359 256.26 90.8734 269.493 89.6216 271.281C91.0522 286.482 85.8662 295.244 80.859 303.828L69.9506 322.068C69.8314 322.307 69.6525 322.426 69.414 322.426Z" fill="#C18C68"/>
<path d="M15.4082 404.329C15.289 404.329 15.2293 404.329 15.2293 404.329C12.7257 403.256 9.32802 392.884 9.8645 386.625C10.0433 382.869 14.3353 379.829 19.8789 376.253C25.4225 372.319 32.3968 367.49 36.6886 360.516C38.6557 357.297 40.0863 352.29 40.8016 345.852C40.9804 345.494 41.3381 345.137 41.6958 345.316C42.0534 345.316 42.2323 345.673 42.2323 346.031C41.3382 352.648 39.9076 357.834 37.7616 361.231C33.291 368.563 26.3166 373.392 20.5941 377.326C15.4082 380.902 11.474 383.585 11.1163 386.804C10.5798 392.884 14.1563 402.362 15.7658 403.077C16.1234 403.256 16.1235 403.613 16.1235 403.971C15.9446 404.15 15.7659 404.329 15.4082 404.329Z" fill="#C18C68"/>
<path d="M30.4297 325.824C30.2508 325.824 10.401 324.929 2.53264 306.153C-4.44163 289.343 4.85735 276.288 8.07624 274.142C9.1492 273.427 9.68575 273.606 10.0434 273.964C10.2222 274.142 10.2222 274.679 10.0434 274.858C9.86458 275.037 9.50688 275.037 9.32805 275.037C8.79157 275.215 7.00332 276.646 5.21505 279.686C3.06912 283.263 -1.40155 293.098 3.78445 305.616C11.2952 323.499 30.4297 324.393 30.6086 324.393C30.9662 324.393 31.145 324.751 31.145 325.108C31.145 325.466 30.7873 325.824 30.4297 325.824Z" fill="#C18C68"/>
<path d="M99.2782 188.663C98.9206 188.663 98.563 188.484 98.563 188.126C98.563 188.126 97.8476 185.802 98.3841 183.298C98.5629 183.298 98.9206 180.794 100.888 179.543C101.841 178.947 102.914 178.768 104.107 179.006C107.147 179.721 107.683 182.583 107.683 184.013C107.683 184.371 107.325 184.729 106.968 184.55C106.61 184.55 106.253 184.371 106.253 183.835C106.253 183.835 106.431 180.973 103.928 180.258C102.974 180.139 102.199 180.258 101.603 180.616C100.172 181.51 99.8147 183.656 99.8147 183.656C99.2782 185.802 99.8147 187.769 99.8147 187.769C99.9935 188.126 99.8148 188.484 99.4571 188.663C99.3379 188.663 99.2782 188.663 99.2782 188.663Z" fill="#C18C68"/>
<path d="M95.8806 194.564C95.5229 194.564 95.1652 194.207 95.1652 193.849C95.1652 192.776 94.9864 191.166 94.6288 189.736C93.9135 186.517 93.377 183.298 95.1652 182.046C95.9998 181.45 96.7747 181.271 97.49 181.51C98.9206 181.689 99.6359 182.762 99.6359 182.94C99.8147 183.119 99.636 183.656 99.4571 183.835C99.0995 184.013 98.7418 183.835 98.3841 183.656C98.3841 183.656 98.0265 182.94 97.3112 182.762C96.8343 182.642 96.3575 182.762 95.8806 183.119C94.8076 183.835 95.3441 186.875 95.8806 189.378C96.2382 190.988 96.5958 192.597 96.5958 193.849C96.5958 194.207 96.2382 194.564 95.8806 194.564Z" fill="#C18C68"/>
<path d="M85.5085 276.288C85.3893 276.288 85.2701 276.288 85.1509 276.288C84.7933 275.931 84.7932 275.573 84.972 275.215C86.045 273.427 88.191 270.745 88.3698 270.745C88.5486 270.387 89.0851 270.387 89.2639 270.566C89.6216 270.924 89.6215 271.281 89.4427 271.639C89.4427 271.639 87.118 274.321 86.0451 275.931C85.9258 276.169 85.7469 276.288 85.5085 276.288Z" fill="#C18C68"/>
<path d="M44.0206 254.471C42.7688 272.175 36.5098 280.044 28.105 293.277C25.2437 297.926 22.2036 302.04 20.5942 306.331C23.8131 308.477 31.8603 312.412 40.9805 304.722C53.1408 294.708 42.59 285.23 43.663 278.077C44.7359 270.924 52.0679 260.552 44.0206 254.471Z" fill="#D29769"/>
<path d="M63.6917 342.991C62.6187 350.681 66.0164 353.184 65.6587 357.834C65.3011 361.947 61.0093 369.279 64.5858 376.432C66.0164 372.319 68.1623 366.417 71.2023 356.224C74.0636 347.462 73.8848 340.13 72.8118 333.871C69.4141 336.911 64.407 337.447 63.6917 342.991Z" fill="#D29769"/>
<path d="M98.2053 241.953C98.0861 241.953 97.9668 241.894 97.8476 241.775C97.4899 241.596 97.3111 241.238 97.4899 240.88C98.9205 238.198 99.6359 235.158 99.6359 232.297C99.6359 231.939 99.9936 231.581 100.351 231.581C100.709 231.581 101.066 231.939 101.066 232.297C100.888 235.516 100.172 238.735 98.7417 241.596C98.5629 241.775 98.3841 241.953 98.2053 241.953Z" fill="#C18C68"/>
<path d="M58.5056 247.676C57.5518 247.676 56.4789 247.318 55.2867 246.603C51.7102 244.099 48.3124 238.019 47.7759 234.621C47.5971 234.264 47.9547 233.906 48.3124 233.727C48.6701 233.727 49.0278 233.906 49.0278 234.264C49.5642 237.483 52.962 243.205 56.1809 245.53C57.2538 246.245 58.2075 246.543 59.042 246.424C63.5127 245.53 66.1952 235.516 65.4799 231.224C64.7646 225.68 61.3668 218.527 58.5056 217.812C58.1479 217.812 57.7903 217.454 57.9691 217.096C57.9691 216.739 58.3267 216.56 58.6844 216.56C62.6186 217.275 66.0164 225.501 66.9105 231.045C67.447 235.516 64.9434 246.603 59.2209 247.676C58.9825 247.676 58.744 247.676 58.5056 247.676Z" fill="#B27E5B"/>
<path d="M58.1479 245.172C57.7903 245.172 57.6115 244.994 57.4327 244.636C57.4327 244.457 57.6115 243.921 57.9691 243.921C59.2209 243.384 60.4728 242.311 61.0092 240.881C61.1881 240.523 61.5457 240.344 61.9034 240.523C62.261 240.702 62.4398 241.059 62.2609 241.417C61.5456 243.205 60.1151 244.457 58.3268 245.172C58.3268 245.172 58.2671 245.172 58.1479 245.172Z" fill="#B27E5B"/>
</svg>
