<svg width="411" height="203" viewBox="0 0 411 203" fill="none" xmlns="http://www.w3.org/2000/svg">
<path d="M223.644 176.094H220.045V20.5719C220.045 13.7597 214.518 8.2329 207.706 8.2329H32.5184C25.7062 8.2329 20.1794 13.7597 20.1794 20.5719V176.094H16.5805V20.5719C16.5805 11.7032 23.6497 4.63403 32.5184 4.63403H207.706C216.575 4.63403 223.644 11.7032 223.644 20.5719V176.094Z" fill="#C9C3C3"/>
<path d="M221.845 154.887H19.0226V151.288H221.845V154.887Z" fill="#C9C3C3"/>
<path d="M35.8602 182.007C35.8602 184.834 34.4464 187.405 32.3899 187.148C30.4619 186.762 29.1766 185.606 28.9195 182.007C28.791 179.308 30.4619 176.866 32.3899 176.994C34.7034 177.251 35.8602 178.665 35.8602 182.007Z" fill="#5E5254"/>
<path d="M8.22594 182.007C8.22594 184.834 6.68359 187.405 4.75563 187.148C2.82766 186.762 1.54234 185.606 1.28527 182.007C1.02821 179.308 2.82766 176.866 4.75563 176.994C7.06918 177.251 8.22594 178.665 8.22594 182.007Z" fill="#5E5254"/>
<path d="M36.6313 178.279H0V174.681H36.6313V178.279Z" fill="#C9C3C3"/>
<path d="M239.325 182.007C239.325 184.834 237.911 187.405 235.854 187.148C233.926 186.762 232.641 185.606 232.384 182.007C232.256 179.308 233.926 176.866 235.854 176.994C238.168 177.251 239.325 178.665 239.325 182.007Z" fill="#5E5254"/>
<path d="M211.691 182.007C211.691 184.834 210.148 187.405 208.22 187.148C206.292 186.762 204.878 185.606 204.75 182.007C204.493 179.308 206.292 176.866 208.22 176.994C210.534 177.251 211.691 178.665 211.691 182.007Z" fill="#5E5254"/>
<path d="M240.096 178.279H203.465V174.681H240.096V178.279Z" fill="#C9C3C3"/>
<path d="M114.393 136.121C114.393 136.121 100.254 137.664 96.3983 128.666C91.6426 117.613 100.511 105.531 99.3545 104.888C98.0692 104.374 85.6017 114.914 91 129.823C96.0127 143.833 109.894 144.604 109.894 144.604L114.393 136.121Z" fill="#F2E5DC"/>
<path fill-rule="evenodd" clip-rule="evenodd" d="M90.4858 128.795C90.3573 128.795 90.2288 128.666 90.2288 128.538C87.0155 117.741 92.9279 109.13 96.9124 105.788C97.8121 105.145 98.9689 104.374 99.483 104.631C99.6116 104.76 99.7401 104.888 99.6116 105.145C99.6116 105.274 99.3545 105.402 99.226 105.274C98.8404 105.274 97.0409 106.431 94.9844 108.873C92.7994 111.572 88.0438 118.77 90.8715 128.281C91 128.538 90.8714 128.666 90.6144 128.795C90.6144 128.795 90.5715 128.795 90.4858 128.795Z" fill="#CCB9AD"/>
<path d="M193.953 96.1481C199.352 94.4772 210.02 104.76 210.148 109.515C210.277 119.155 201.408 127.638 199.48 127.767C195.881 128.152 190.483 116.842 190.097 114.4C189.84 112.986 192.668 110.415 193.696 103.86C194.339 99.6185 192.539 96.5337 193.953 96.1481Z" fill="#B27E5B"/>
<path d="M175.83 170.182C175.83 170.182 175.059 182.778 174.674 187.791C174.16 192.675 174.031 196.531 174.674 197.431C175.316 198.33 178.53 197.688 178.53 200.644C178.53 203.6 167.862 203.729 167.219 200.387C166.576 197.045 165.034 183.292 165.034 171.981C165.034 160.799 175.83 170.182 175.83 170.182Z" fill="#F2E5DC"/>
<path d="M193.825 170.182C193.825 170.182 193.182 182.778 192.668 187.791C192.282 192.675 192.025 196.531 192.668 197.431C193.311 198.33 196.524 197.688 196.524 200.644C196.524 203.6 185.856 203.729 185.213 200.387C184.571 197.045 183.028 183.292 183.028 171.981C183.028 160.799 193.825 170.182 193.825 170.182Z" fill="#F2E5DC"/>
<path d="M132.515 131.109C124.932 132.265 115.421 131.88 112.465 139.463C107.838 151.416 123.004 166.712 123.775 171.596C124.418 176.608 122.747 180.593 123.261 184.32C123.775 188.048 127.76 200.13 129.559 201.544C131.487 203.086 143.184 203.086 140.613 199.358C137.914 195.503 136.757 197.559 135.343 196.402C133.929 195.245 130.073 186.891 132.644 182.649C135.086 178.279 137.657 175.066 141.513 171.082C145.369 167.097 144.469 163.113 145.24 158.1C146.011 152.959 132.515 131.109 132.515 131.109Z" fill="#E8D6CA"/>
<path d="M109.894 144.604L114.393 136.121C114.393 136.121 100.254 137.664 96.3983 128.666C95.8842 127.51 95.4986 126.224 95.3701 125.068C94.5989 125.582 94.7274 126.61 94.3418 126.738C93.8277 126.867 93.185 125.325 92.4138 125.71C91.6426 126.224 92.2853 128.666 91.7712 128.924C91.5141 129.052 91 128.024 90.3574 127.638C90.5287 128.324 90.743 129.052 91 129.823C96.0127 143.833 109.894 144.604 109.894 144.604Z" fill="#D29769"/>
<path d="M109.894 144.99C109.765 144.99 95.627 144.09 90.6143 129.952C90.443 129.523 90.2716 129.052 90.1002 128.538C89.9717 128.281 90.2288 128.024 90.3573 128.024C90.6144 127.895 90.8714 128.024 90.9999 128.281C91.0856 128.795 91.2141 129.266 91.3855 129.695C96.2697 143.319 109.765 144.09 109.894 144.09C110.151 144.09 110.408 144.347 110.408 144.604C110.408 144.861 110.151 144.99 109.894 144.99Z" fill="#B27E5B"/>
<path d="M131.616 160.285C136.628 158.486 145.626 167.097 161.564 165.683L161.821 149.231L130.33 147.046L131.616 160.285Z" fill="#F2E5DC"/>
<path d="M190.483 95.634C187.141 95.1199 180.972 98.0761 178.787 101.161C176.987 103.86 174.159 117.227 171.717 124.168C171.717 124.168 173.26 131.366 180.715 134.065C188.298 136.764 196.395 135.864 196.395 135.864C196.395 135.864 196.267 125.453 196.524 124.168C199.866 127.381 208.606 126.996 209.634 123.397C212.719 123.525 216.318 117.998 212.976 115.556C209.763 113.243 204.107 109.13 203.336 107.459C202.693 105.788 201.28 100.904 199.223 99.2329C197.038 97.562 193.696 96.1481 190.483 95.634Z" fill="#F2E5DC"/>
<path d="M203.465 107.459C202.693 105.788 201.408 100.775 199.223 99.1043C197.167 97.562 193.696 96.1481 190.483 95.634C187.141 95.1199 181.357 97.819 179.044 100.904L185.727 117.613C191.511 117.613 197.295 114.914 197.424 109.258C197.681 100.775 192.025 98.3331 192.668 97.819C193.311 97.4334 196.267 98.3331 198.709 102.318C200.765 105.531 202.308 110.158 206.421 110.544C204.878 109.387 203.85 108.101 203.465 107.459Z" fill="#D29769"/>
<path d="M183.799 96.5337C180.2 94.4772 165.676 104.631 165.419 109.515C164.777 119.027 175.316 126.996 177.373 126.61C179.429 126.353 186.756 117.613 187.398 115.171C187.655 113.757 184.699 110.929 183.799 104.374C183.157 100.133 185.213 97.4334 183.799 96.5337Z" fill="#D29769"/>
<path d="M133.929 131.109C125.832 132.265 116.578 131.88 110.151 139.463C100.254 151.416 108.095 166.712 106.552 171.596C105.138 176.608 101.539 180.593 100.254 184.32C99.0974 188.048 97.555 200.13 98.8403 201.544C99.9971 203.086 111.565 203.729 110.665 200.001C109.765 196.274 107.838 197.559 106.938 196.402C106.038 195.245 106.038 186.891 110.537 182.649C115.035 178.279 118.891 175.066 124.675 171.082C130.33 167.097 131.873 163.113 134.829 158.1C137.785 152.959 133.929 131.109 133.929 131.109Z" fill="#F2E5DC"/>
<path d="M133.929 160.414C133.844 160.414 133.758 160.414 133.672 160.414C133.544 160.285 133.544 160.028 133.544 159.899C135.472 156.815 136.114 153.087 135.6 149.617C135.472 149.488 135.6 149.231 135.857 149.231C135.986 149.231 136.243 149.36 136.243 149.488C136.886 153.216 136.114 157.072 134.186 160.285C134.101 160.371 134.015 160.414 133.929 160.414Z" fill="#CCB9AD"/>
<path d="M196.267 155.144C195.11 164.398 195.11 171.596 193.825 173.395C192.411 175.195 184.056 176.351 182.514 174.681C180.972 173.138 181.357 164.141 181.357 164.141L196.267 155.144Z" fill="#BF4E4B"/>
<path d="M184.828 179.051C184.57 179.051 184.442 178.922 184.313 178.665C183.542 173.781 183.285 168.768 183.414 163.755C183.414 163.498 183.671 163.37 183.928 163.37C184.185 163.37 184.313 163.498 184.313 163.755C184.185 168.768 184.442 173.652 185.213 178.536C185.342 178.794 185.085 179.051 184.828 179.051Z" fill="#AD4040"/>
<path d="M187.912 176.866C187.655 176.866 187.527 176.609 187.527 176.351V160.414C187.527 160.157 187.655 159.899 187.912 159.899C188.169 159.899 188.426 160.157 188.426 160.414V176.351C188.426 176.609 188.169 176.866 187.912 176.866Z" fill="#AD4040"/>
<path d="M191.511 177.251C191.254 177.251 190.997 176.994 191.125 176.737C191.64 171.082 191.768 165.298 191.511 159.514C191.511 159.257 191.768 159 192.025 159C192.154 159 192.411 159.257 192.411 159.514C192.668 165.298 192.539 171.082 191.897 176.866C191.897 177.123 191.768 177.251 191.511 177.251Z" fill="#AD4040"/>
<path d="M177.887 167.097C177.501 171.082 177.116 173.909 176.345 174.938C174.931 176.737 166.062 176.48 164.391 174.938C163.106 173.781 163.106 166.84 163.106 166.84C163.106 166.84 167.861 168.125 177.887 167.097Z" fill="#BF4E4B"/>
<path d="M167.604 178.922C167.476 178.922 167.219 178.665 167.219 178.536C166.448 173.652 166.319 168.768 166.833 164.012C166.833 163.755 167.09 163.498 167.219 163.498C167.476 163.627 167.733 163.755 167.733 164.012C167.219 168.768 167.347 173.652 168.119 178.279C168.119 178.536 167.99 178.794 167.733 178.794C167.733 178.879 167.69 178.922 167.604 178.922Z" fill="#AD4040"/>
<path d="M171.46 179.051C171.203 179.051 171.075 178.922 171.075 178.665L171.203 163.498C171.203 163.241 171.332 163.113 171.589 163.113C171.846 163.113 172.103 163.241 172.103 163.498L171.975 178.665C171.975 178.922 171.717 179.051 171.46 179.051Z" fill="#AD4040"/>
<path d="M174.417 178.408C174.16 178.408 174.031 178.151 174.031 177.894L174.674 164.912C174.674 164.655 174.802 164.398 175.059 164.398C175.316 164.398 175.573 164.655 175.573 164.912L174.931 178.022C174.931 178.279 174.674 178.408 174.417 178.408Z" fill="#AD4040"/>
<path d="M208.606 116.97C208.863 115.685 214.261 115.428 214.647 116.97C214.904 118.127 213.233 120.312 211.948 120.312C210.662 120.312 208.349 118.384 208.606 116.97Z" fill="#5E5254"/>
<path d="M177.244 127.124C176.216 127.124 174.288 125.967 172.36 124.168C170.561 122.497 164.905 116.713 165.419 109.258C165.419 109.001 165.677 108.873 165.934 108.873C166.191 108.873 166.319 109.13 166.319 109.387C165.934 116.327 171.332 121.983 172.874 123.525C175.059 125.453 176.73 126.224 177.244 126.224C179.044 125.967 186.241 117.484 186.884 115.042C187.013 114.657 186.627 113.885 186.113 112.857C185.213 111.058 183.799 108.487 183.285 104.374C183.028 102.446 183.157 100.775 183.414 99.6185C183.542 98.2046 183.542 97.562 183.028 97.1764C182.9 97.0478 182.771 96.7908 182.9 96.6622C183.028 96.4052 183.285 96.2766 183.542 96.4052C184.571 97.0478 184.442 98.2046 184.314 99.747C184.056 100.904 183.928 102.446 184.185 104.246C184.699 108.23 185.984 110.801 186.884 112.472C187.527 113.757 187.912 114.528 187.784 115.299C187.141 117.613 179.943 126.738 177.373 127.124C177.373 127.124 177.33 127.124 177.244 127.124Z" fill="#B27E5B"/>
<path d="M191.64 109.001C191.768 109.772 192.539 110.158 193.311 110.029C194.082 109.901 194.467 109.13 194.339 108.359C194.21 107.587 193.439 107.073 192.668 107.33C191.897 107.459 191.383 108.23 191.64 109.001Z" fill="#4C4546"/>
<path d="M189.069 106.559C188.983 106.559 188.898 106.516 188.812 106.431C188.555 106.302 188.555 106.045 188.683 105.788C189.712 104.246 191.897 103.474 193.696 104.117C193.953 104.246 194.082 104.503 193.953 104.76C193.825 105.017 193.568 105.017 193.439 105.017C192.025 104.503 190.226 105.017 189.455 106.302C189.369 106.473 189.24 106.559 189.069 106.559Z" fill="#4C4546"/>
<path d="M202.308 107.073C202.565 107.844 203.079 108.23 203.593 108.102C203.979 107.973 204.236 107.202 203.979 106.431C203.593 105.788 203.079 105.274 202.565 105.531C202.179 105.659 202.051 106.431 202.308 107.073Z" fill="#4C4546"/>
<path d="M200.508 104.117C200.423 104.117 200.38 104.117 200.38 104.117C200.123 103.989 199.994 103.731 200.123 103.474C200.466 102.96 200.851 102.66 201.28 102.575C202.051 102.318 202.693 102.832 202.693 102.832C202.95 102.96 202.95 103.346 202.822 103.474C202.693 103.731 202.436 103.731 202.179 103.603C202.051 103.474 201.794 103.346 201.537 103.346C201.28 103.432 201.065 103.603 200.894 103.86C200.808 104.031 200.68 104.117 200.508 104.117Z" fill="#4C4546"/>
<path d="M135.086 139.335C134.572 134.707 133.929 131.109 133.929 131.109C125.832 132.265 116.449 131.751 110.151 139.335C108.223 141.648 107.066 144.219 106.295 146.661C106.809 147.518 107.452 148.332 108.223 149.103C115.035 155.401 122.876 153.473 133.929 149.36L135.086 139.335Z" fill="#D29769"/>
<path d="M204.878 124.553C198.709 124.553 196.524 119.798 196.524 119.798C196.395 119.669 196.524 119.412 196.652 119.284C196.91 119.284 197.038 119.284 197.167 119.541C197.295 119.669 199.48 124.425 205.907 123.782C210.919 123.268 211.434 119.926 211.434 119.798C211.434 119.541 211.691 119.412 211.819 119.412C212.076 119.412 212.205 119.669 212.205 119.798C212.205 119.926 211.562 124.039 206.035 124.553C205.607 124.553 205.221 124.553 204.878 124.553Z" fill="#5E5254"/>
<path d="M196.395 134.964C196.138 134.964 196.01 134.836 196.01 134.579C195.881 131.237 196.138 124.168 196.138 124.039C196.138 123.868 196.224 123.782 196.395 123.782C196.481 123.697 196.61 123.697 196.781 123.782C196.781 123.782 199.994 126.353 204.878 125.71C209.12 125.196 209.249 123.397 209.249 123.397C209.377 123.14 209.506 123.011 209.634 123.011C209.891 123.011 210.02 123.14 210.02 123.397C210.02 123.525 209.891 125.839 205.007 126.481C200.894 126.996 198.066 125.453 196.781 124.682C196.781 126.61 196.653 131.751 196.781 134.579C196.781 134.836 196.653 134.964 196.395 134.964Z" fill="#5E5254"/>
<path d="M129.688 131.237C127.117 134.836 126.346 156.301 147.682 163.884C161.949 169.025 174.16 169.154 182.257 167.097C190.354 165.041 194.467 163.241 195.881 158.486C197.167 153.859 196.781 134.193 196.781 134.193C196.781 134.193 188.169 137.535 179.558 133.036C171.075 128.538 171.975 123.654 171.975 123.654C171.975 123.654 168.119 126.738 166.062 127.253C154.623 129.823 131.616 128.409 129.688 131.237Z" fill="#D5645D"/>
<path d="M166.062 127.253C167.476 125.71 169.918 124.039 171.975 123.654C171.975 123.654 173.774 130.337 181.357 133.294C189.069 136.25 196.781 134.193 196.781 134.193C197.552 136.25 197.424 138.563 196.781 141.005C196.781 141.005 187.527 144.861 176.473 138.949C167.219 133.936 166.062 127.253 166.062 127.253Z" fill="#BF4E4B"/>
<path d="M195.881 120.183C195.796 120.183 195.71 120.141 195.624 120.055C195.496 119.798 195.624 119.669 195.753 119.541L197.424 118.77C197.681 118.641 197.809 118.77 197.938 118.898C198.066 119.155 197.938 119.284 197.809 119.412L196.138 120.183C196.053 120.183 195.967 120.183 195.881 120.183Z" fill="#5E5254"/>
<path d="M177.116 124.811C177.116 124.811 177.073 124.768 176.987 124.682C174.545 123.782 172.489 121.983 171.203 119.798C171.075 119.541 171.075 119.284 171.332 119.155C171.46 119.027 171.846 119.155 171.975 119.284C173.131 121.34 175.059 123.011 177.244 123.911C177.501 124.039 177.63 124.296 177.501 124.425C177.501 124.682 177.373 124.811 177.116 124.811Z" fill="#B27E5B"/>
<path d="M174.674 202.7C174.545 202.7 174.417 202.572 174.417 202.315C174.288 201.286 173.645 200.258 172.746 199.873C172.617 199.744 172.489 199.616 172.617 199.358C172.617 199.23 172.874 199.101 173.003 199.23C174.288 199.744 175.059 201.029 175.059 202.315C175.059 202.572 174.931 202.7 174.674 202.7Z" fill="#B7A69E"/>
<path d="M177.116 202.058C176.859 201.929 176.73 201.801 176.73 201.672C176.859 200.644 176.345 199.616 175.445 199.23C175.188 199.101 175.188 198.844 175.188 198.716C175.316 198.459 175.573 198.459 175.702 198.459C176.859 199.101 177.63 200.387 177.501 201.672C177.501 201.929 177.373 202.058 177.116 202.058Z" fill="#B7A69E"/>
<path d="M137.4 202.443C137.271 202.443 137.014 202.315 137.014 202.058C137.014 201.029 136.243 200.13 135.215 199.744C135.086 199.616 134.958 199.487 135.086 199.23C135.086 199.101 135.343 198.973 135.472 199.101C136.757 199.487 137.657 200.772 137.785 202.058C137.785 202.186 137.657 202.443 137.4 202.443Z" fill="#B7A69E"/>
<path d="M139.842 201.544C139.756 201.544 139.713 201.544 139.713 201.544C139.585 201.544 139.456 201.415 139.456 201.158C139.456 200.13 138.813 199.23 137.914 198.844C137.657 198.716 137.528 198.587 137.657 198.33C137.657 198.202 137.914 198.073 138.042 198.202C139.328 198.587 140.227 199.873 140.099 201.158C140.099 201.415 139.97 201.544 139.842 201.544Z" fill="#B7A69E"/>
<path d="M107.066 202.572C106.809 202.572 106.681 202.443 106.681 202.186C106.681 201.158 106.038 200.13 105.01 199.744C104.881 199.616 104.753 199.358 104.881 199.23C105.01 199.101 105.138 198.973 105.395 199.101C106.552 199.616 107.323 200.901 107.452 202.186C107.452 202.315 107.195 202.572 107.066 202.572Z" fill="#B7A69E"/>
<path d="M109.508 201.801C109.508 201.801 109.466 201.801 109.38 201.801C109.251 201.801 109.123 201.672 109.123 201.415C109.251 200.515 108.609 199.487 107.709 198.973C107.58 198.973 107.452 198.716 107.58 198.587C107.58 198.33 107.837 198.33 107.966 198.33C109.251 198.844 109.894 200.258 109.894 201.544C109.765 201.672 109.637 201.801 109.508 201.801Z" fill="#B7A69E"/>
<path d="M193.311 202.572C193.054 202.572 192.925 202.443 192.925 202.315C192.925 201.286 192.282 200.387 191.511 199.873C191.254 199.744 191.254 199.616 191.383 199.358C191.383 199.23 191.64 199.23 191.768 199.23C192.925 199.873 193.568 201.029 193.568 202.315C193.568 202.443 193.439 202.572 193.311 202.572Z" fill="#B7A69E"/>
<path d="M195.367 202.058C195.281 202.058 195.239 202.058 195.239 202.058C195.11 201.929 194.982 201.801 194.982 201.544C195.11 200.644 194.596 199.616 193.696 199.23C193.568 199.23 193.439 198.973 193.568 198.716C193.568 198.587 193.825 198.459 193.953 198.587C195.11 199.101 195.881 200.515 195.624 201.672C195.624 201.929 195.496 202.058 195.367 202.058Z" fill="#B7A69E"/>
<path d="M102.568 183.292C102.482 183.292 102.439 183.292 102.439 183.292C102.311 183.292 102.182 183.035 102.182 182.907C102.696 181.493 103.468 180.336 104.496 179.308C104.753 179.179 104.881 179.179 105.01 179.308C105.138 179.436 105.138 179.693 105.01 179.822C104.11 180.722 103.339 181.878 102.953 183.164C102.825 183.292 102.696 183.292 102.568 183.292Z" fill="#CCB9AD"/>
<path d="M105.524 181.107C105.438 181.107 105.395 181.064 105.395 180.979C105.138 180.979 105.138 180.721 105.267 180.593C106.038 179.436 107.066 178.408 108.223 177.765C108.352 177.637 108.609 177.637 108.737 177.894C108.866 178.022 108.737 178.279 108.609 178.279C107.58 179.051 106.552 179.95 105.91 180.979C105.824 181.064 105.695 181.107 105.524 181.107Z" fill="#CCB9AD"/>
<path d="M165.933 133.422C165.762 133.422 165.634 133.379 165.548 133.294C165.419 133.037 165.419 132.779 165.548 132.651L174.674 124.553C174.802 124.296 175.059 124.425 175.188 124.553C175.445 124.811 175.445 125.068 175.188 125.196L166.191 133.294C166.105 133.379 166.019 133.422 165.933 133.422Z" fill="#AD4040"/>
<path d="M168.376 135.864C168.29 135.864 168.204 135.821 168.118 135.736C167.861 135.607 167.861 135.35 167.99 135.093C170.818 131.494 174.159 128.409 178.015 125.967C178.144 125.839 178.529 125.839 178.658 126.096C178.787 126.353 178.658 126.61 178.529 126.738C174.802 129.181 171.46 132.137 168.761 135.736C168.675 135.821 168.547 135.864 168.376 135.864Z" fill="#AD4040"/>
<path d="M174.674 140.877C174.588 140.877 174.502 140.834 174.417 140.748C174.288 140.62 174.16 140.363 174.288 140.106L179.301 131.366C179.429 131.237 179.686 131.109 179.943 131.237C180.072 131.366 180.2 131.623 180.072 131.88L175.059 140.62C174.974 140.791 174.845 140.877 174.674 140.877Z" fill="#AD4040"/>
<path d="M180.2 143.319C180.115 143.319 180.029 143.319 179.943 143.319C179.815 143.19 179.686 142.933 179.686 142.676L184.185 131.237C184.185 130.98 184.442 130.851 184.699 130.98C184.956 130.98 185.085 131.237 184.956 131.494L180.586 143.062C180.458 143.19 180.329 143.319 180.2 143.319Z" fill="#AD4040"/>
<path d="M187.27 145.118C187.184 145.118 187.141 145.118 187.141 145.118C186.884 144.99 186.756 144.733 186.756 144.476C187.784 140.363 188.298 136.121 188.426 131.751C188.426 131.494 188.555 131.366 188.812 131.366C189.069 131.366 189.326 131.623 189.326 131.88C189.198 136.121 188.683 140.491 187.655 144.733C187.655 144.99 187.398 145.118 187.27 145.118Z" fill="#AD4040"/>
<path d="M190.483 145.375C190.397 145.375 190.354 145.375 190.354 145.375C190.097 145.247 189.969 144.99 189.969 144.733C190.997 139.977 191.383 134.964 191.126 130.08C191.126 129.823 191.254 129.566 191.511 129.566C191.768 129.566 192.025 129.695 192.025 129.952C192.282 134.964 191.897 139.977 190.869 144.99C190.869 145.118 190.611 145.375 190.483 145.375Z" fill="#AD4040"/>
<path d="M194.724 144.604C194.724 144.604 194.682 144.604 194.596 144.604C194.467 144.604 194.21 144.347 194.21 144.219C194.596 140.106 194.596 135.993 194.339 131.88C194.339 131.623 194.467 131.366 194.724 131.366C194.981 131.366 195.238 131.494 195.238 131.751C195.496 135.864 195.496 140.106 195.11 144.219C195.11 144.476 194.981 144.604 194.724 144.604Z" fill="#AD4040"/>
<path d="M163.363 168.254C158.222 167.611 152.823 166.197 147.554 164.398C135.986 160.157 131.23 152.188 129.302 146.275C127.117 139.463 127.888 133.036 129.302 130.98C129.431 130.851 129.688 130.723 129.945 130.98C130.073 131.109 130.202 131.366 130.073 131.494C128.917 133.036 127.888 138.949 130.202 146.018C132.001 151.802 136.628 159.514 147.939 163.498C153.08 165.426 158.35 166.712 163.491 167.354C163.748 167.354 163.877 167.611 163.877 167.868C163.877 168.125 163.62 168.254 163.363 168.254Z" fill="#BF4E4B"/>
<path d="M178.915 162.085C178.787 162.085 178.53 161.956 178.53 161.699C178.401 161.442 178.53 161.185 178.787 161.185C182.643 159.899 186.241 157.586 188.941 154.501C189.069 154.244 189.326 154.244 189.583 154.373C189.712 154.501 189.712 154.887 189.583 155.015C186.884 158.229 183.157 160.799 179.044 161.956C179.044 162.042 179.001 162.085 178.915 162.085Z" fill="#BF4E4B"/>
<path d="M182.128 156.301C181.957 156.301 181.829 156.215 181.743 156.044C181.614 155.915 181.614 155.658 181.871 155.529C183.414 154.758 184.699 153.73 185.856 152.445C185.984 152.316 186.241 152.188 186.37 152.445C186.627 152.573 186.627 152.83 186.499 153.087C185.342 154.373 183.928 155.529 182.257 156.301C182.171 156.301 182.128 156.301 182.128 156.301Z" fill="#BF4E4B"/>
<path d="M371.583 192.546C371.583 194.86 369.655 196.788 367.342 196.788C365.028 196.788 363.1 194.86 363.1 192.546H354.874C354.874 194.86 352.946 196.788 350.633 196.788C348.319 196.788 346.391 194.86 346.391 192.546H331.739V202.829H376.724V192.546H371.583Z" fill="#B27E5B"/>
<path d="M371.583 192.546C371.583 194.86 369.655 196.788 367.342 196.788C365.028 196.788 363.1 194.86 363.1 192.546C363.1 190.233 365.028 188.305 367.342 188.305C369.655 188.305 371.583 190.233 371.583 192.546Z" fill="#DBA172"/>
<path d="M340.222 137.407L333.024 141.648L363.871 194.988L371.069 190.747L340.222 137.407Z" fill="#DBA172"/>
<path d="M355.388 57.8459H291.508L269.015 202.829H332.895L355.388 57.8459Z" fill="#4C4546"/>
<path d="M349.733 57.8459H285.724L263.232 202.829H327.24L349.733 57.8459Z" fill="#5E5254"/>
<path d="M343.692 62.6015H288.424L267.473 197.559H322.741L343.692 62.6015Z" fill="#B1D7E3"/>
<path d="M306.289 96.1481C300.891 94.4772 290.352 104.76 290.223 109.515C289.966 119.155 298.963 127.638 300.891 127.767C304.49 128.152 309.76 116.842 310.274 114.4C310.531 112.986 307.703 110.415 306.547 103.86C305.904 99.6185 307.832 96.5337 306.289 96.1481Z" fill="#B27E5B"/>
<path d="M324.541 170.182C324.541 170.182 325.184 182.778 325.698 187.791C326.083 192.675 326.34 196.531 325.698 197.431C324.926 198.33 321.842 197.688 321.842 200.644C321.842 203.6 332.381 203.729 333.024 200.387C333.795 197.045 335.337 183.292 335.337 171.981C335.337 160.799 324.541 170.182 324.541 170.182Z" fill="#F2E5DC"/>
<path d="M306.547 170.182C306.547 170.182 307.189 182.778 307.703 187.791C308.089 192.675 308.346 196.531 307.703 197.431C306.932 198.33 303.847 197.688 303.847 200.644C303.847 203.6 314.387 203.729 315.03 200.387C315.801 197.045 317.343 183.292 317.343 171.981C317.343 160.799 306.547 170.182 306.547 170.182Z" fill="#F2E5DC"/>
<path d="M367.856 131.109C375.439 132.265 384.95 131.88 387.907 139.463C392.534 151.416 377.367 166.712 376.596 171.596C375.825 176.608 377.624 180.593 377.11 184.32C376.596 188.048 372.611 200.13 370.683 201.544C368.884 203.086 357.188 203.086 359.758 199.358C362.329 195.503 363.486 197.559 365.028 196.402C366.442 195.245 370.169 186.891 367.727 182.649C365.157 178.279 362.714 175.066 358.859 171.082C355.003 167.097 355.902 163.113 355.131 158.1C354.36 152.959 367.856 131.109 367.856 131.109Z" fill="#E8D6CA"/>
<path d="M385.85 136.121C385.85 136.121 399.989 137.664 403.844 128.666C408.729 117.613 399.732 105.531 401.017 104.888C402.174 104.374 414.77 114.914 409.371 129.823C404.23 143.833 390.349 144.604 390.349 144.604L385.85 136.121Z" fill="#F2E5DC"/>
<path d="M390.349 144.99C390.22 144.99 390.092 144.733 390.092 144.604C390.092 144.347 390.22 144.219 390.349 144.219C390.477 144.219 404.102 143.319 408.986 129.695C412.328 120.183 408.472 112.986 405.772 109.515C403.716 106.688 401.531 105.274 401.145 105.274C400.888 105.402 400.76 105.274 400.631 105.145C400.503 104.888 400.631 104.76 400.888 104.631C401.531 104.246 402.945 105.402 403.716 106.174C404.873 107.073 414.513 116.327 409.628 129.952C404.616 144.09 390.606 144.861 390.477 144.99C390.392 144.99 390.349 144.99 390.349 144.99Z" fill="#CCB9AD"/>
<path d="M368.627 160.285C363.743 158.486 354.746 167.097 338.679 165.683L338.422 149.231L370.041 147.046L368.627 160.285Z" fill="#F2E5DC"/>
<path d="M309.76 95.634C313.23 95.1199 319.4 98.0761 321.585 101.161C323.384 103.86 326.212 117.227 328.525 124.168C328.525 124.168 327.111 131.366 319.528 134.065C312.073 136.764 303.976 135.864 303.976 135.864C303.976 135.864 304.104 125.453 303.719 124.168C300.506 127.381 291.637 126.996 290.609 123.397C287.652 123.525 284.054 117.998 287.267 115.556C290.609 113.243 296.136 109.13 296.907 107.459C297.678 105.788 298.963 100.904 301.148 99.2329C303.205 97.562 306.547 96.1481 309.76 95.634Z" fill="#F2E5DC"/>
<path d="M296.778 107.459C297.549 105.788 298.963 100.775 301.02 99.1043C303.076 97.562 306.547 96.1481 309.76 95.634C313.102 95.1199 319.014 97.819 321.328 100.904L314.644 117.613C308.732 117.613 303.076 114.914 302.948 109.258C302.691 100.775 308.346 98.3331 307.703 97.819C306.932 97.4334 303.976 98.3331 301.534 102.318C299.477 105.531 298.063 110.158 293.822 110.544C295.364 109.387 296.521 108.101 296.778 107.459Z" fill="#D29769"/>
<path d="M316.572 96.5337C320.171 94.4772 334.566 104.631 334.823 109.515C335.466 119.027 325.055 126.996 322.999 126.61C320.813 126.353 313.616 117.613 312.973 115.171C312.588 113.757 315.672 110.929 316.572 104.374C317.215 100.133 315.158 97.4334 316.572 96.5337Z" fill="#D29769"/>
<path d="M366.442 131.109C374.539 132.265 383.794 131.88 390.092 139.463C399.989 151.416 392.148 166.712 393.691 171.596C395.233 176.608 398.832 180.593 399.989 184.32C401.145 188.048 402.688 200.13 401.531 201.544C400.246 203.086 388.806 203.729 389.706 200.001C390.606 196.274 392.534 197.559 393.434 196.402C394.333 195.245 394.333 186.891 389.835 182.649C385.336 178.279 381.352 175.066 375.696 171.082C370.041 167.097 368.498 163.113 365.542 158.1C362.458 152.959 366.442 131.109 366.442 131.109Z" fill="#F2E5DC"/>
<path d="M366.442 160.414C366.271 160.414 366.142 160.371 366.056 160.285C364.128 157.072 363.486 153.216 364 149.488C364.128 149.36 364.257 149.231 364.514 149.231C364.643 149.231 364.771 149.488 364.771 149.617C364.128 153.087 364.9 156.815 366.699 159.899C366.828 160.028 366.699 160.285 366.57 160.414C366.485 160.414 366.442 160.414 366.442 160.414Z" fill="#CCB9AD"/>
<path d="M303.976 155.144C305.133 164.398 305.133 171.596 306.547 173.395C307.832 175.195 316.186 176.351 317.729 174.681C319.4 173.138 318.886 164.141 318.886 164.141L303.976 155.144Z" fill="#BF4E4B"/>
<path d="M315.544 179.051C315.458 179.051 315.415 179.051 315.415 179.051C315.158 179.051 315.03 178.794 315.03 178.536C315.801 173.652 316.186 168.768 315.929 163.755C315.929 163.498 316.186 163.37 316.443 163.37C316.7 163.37 316.829 163.498 316.829 163.755C317.086 168.768 316.7 173.781 315.929 178.665C315.929 178.922 315.672 179.051 315.544 179.051Z" fill="#AD4040"/>
<path d="M312.33 176.866C312.073 176.866 311.945 176.609 311.945 176.351V160.414C311.945 160.157 312.073 159.899 312.33 159.899C312.587 159.899 312.844 160.157 312.844 160.414V176.351C312.844 176.609 312.587 176.866 312.33 176.866Z" fill="#AD4040"/>
<path d="M308.86 177.251C308.603 177.251 308.346 177.123 308.346 176.866C307.832 171.082 307.703 165.298 307.832 159.514C307.832 159.257 308.089 159 308.346 159C308.603 159 308.732 159.257 308.732 159.514C308.603 165.298 308.732 171.082 309.246 176.737C309.246 176.994 309.117 177.251 308.86 177.251Z" fill="#AD4040"/>
<path d="M322.484 167.097C322.87 171.082 323.127 173.909 324.027 174.938C325.441 176.737 334.309 176.48 335.98 174.938C337.265 173.781 337.137 166.84 337.137 166.84C337.137 166.84 332.51 168.125 322.484 167.097Z" fill="#BF4E4B"/>
<path d="M332.638 178.922C332.638 178.922 332.638 178.879 332.638 178.794C332.381 178.794 332.124 178.536 332.253 178.279C333.024 173.652 333.152 168.768 332.638 164.012C332.638 163.755 332.767 163.627 333.024 163.498C333.281 163.498 333.538 163.755 333.538 164.012C334.052 168.768 333.924 173.652 333.152 178.536C333.024 178.665 332.895 178.922 332.638 178.922Z" fill="#AD4040"/>
<path d="M328.782 179.051C328.525 179.051 328.397 178.922 328.397 178.665L328.268 163.627L328.654 163.498H329.168L329.296 178.665C329.296 178.922 329.039 179.051 328.782 179.051Z" fill="#AD4040"/>
<path d="M325.826 178.408C325.569 178.408 325.441 178.279 325.441 178.022L324.798 164.912C324.798 164.655 324.927 164.398 325.184 164.398C325.441 164.398 325.698 164.655 325.698 164.912L326.34 177.894C326.34 178.151 326.083 178.408 325.826 178.408Z" fill="#AD4040"/>
<path d="M291.766 116.97C291.508 115.685 285.982 115.428 285.596 116.97C285.339 118.127 287.138 120.312 288.295 120.312C289.58 120.312 292.023 118.384 291.766 116.97Z" fill="#5E5254"/>
<path d="M322.999 127.124C322.999 127.124 322.956 127.124 322.87 127.124C320.428 126.738 313.102 117.613 312.587 115.299C312.33 114.528 312.716 113.757 313.359 112.472C314.258 110.801 315.544 108.23 316.186 104.246C316.443 102.446 316.186 100.904 316.058 99.747C315.929 98.2046 315.801 97.0478 316.829 96.4052C316.958 96.2766 317.343 96.4052 317.472 96.6622C317.472 96.7908 317.472 97.0478 317.215 97.1764C316.701 97.562 316.829 98.2046 316.958 99.6185C317.086 100.775 317.343 102.446 316.958 104.374C316.443 108.487 315.158 111.058 314.258 112.857C313.744 113.885 313.359 114.657 313.359 115.042C314.001 117.484 321.328 125.967 322.999 126.224C323.513 126.224 325.184 125.453 327.369 123.525C329.039 121.983 334.438 116.327 333.924 109.387C333.924 109.13 334.181 108.873 334.438 108.873C334.695 108.873 334.823 109.001 334.823 109.258C335.338 116.713 329.682 122.497 328.011 124.168C325.955 125.967 324.155 127.124 322.999 127.124Z" fill="#B27E5B"/>
<path d="M308.732 109.001C308.474 109.772 307.832 110.158 307.061 110.029C306.289 109.901 305.775 109.13 305.904 108.359C306.161 107.587 306.932 107.073 307.703 107.33C308.346 107.459 308.86 108.23 308.732 109.001Z" fill="#4C4546"/>
<path d="M311.302 106.559C311.131 106.559 311.002 106.473 310.917 106.302C310.145 105.017 308.346 104.503 306.932 105.017C306.675 105.017 306.418 105.017 306.289 104.76C306.289 104.503 306.418 104.246 306.547 104.117C308.346 103.474 310.66 104.246 311.688 105.788C311.816 106.045 311.688 106.302 311.431 106.431C311.431 106.516 311.388 106.559 311.302 106.559Z" fill="#4C4546"/>
<path d="M298.063 107.073C297.806 107.844 297.164 108.23 296.778 108.102C296.264 107.973 296.136 107.202 296.393 106.431C296.65 105.788 297.292 105.274 297.678 105.531C298.192 105.659 298.321 106.431 298.063 107.073Z" fill="#4C4546"/>
<path d="M299.734 104.117C299.563 104.117 299.434 104.031 299.349 103.86C299.177 103.603 299.006 103.432 298.835 103.346C298.578 103.346 298.192 103.474 298.063 103.603C297.935 103.731 297.678 103.731 297.549 103.474C297.292 103.346 297.421 102.96 297.549 102.832C297.678 102.832 298.32 102.318 298.963 102.575C299.477 102.66 299.863 102.96 300.12 103.474C300.248 103.731 300.248 103.989 299.991 104.117C299.906 104.117 299.82 104.117 299.734 104.117Z" fill="#4C4546"/>
<path d="M295.493 124.553C295.15 124.553 294.765 124.553 294.336 124.553C288.681 124.039 288.167 119.926 288.167 119.798C288.167 119.669 288.295 119.412 288.424 119.412C288.681 119.412 288.809 119.541 288.809 119.798C288.938 119.926 289.323 123.268 294.336 123.782C300.891 124.425 303.076 119.541 303.205 119.541C303.205 119.284 303.462 119.284 303.59 119.284C303.847 119.412 303.847 119.669 303.847 119.798C303.719 119.798 301.534 124.553 295.493 124.553Z" fill="#5E5254"/>
<path d="M303.976 134.964C303.719 134.964 303.59 134.836 303.59 134.579C303.719 131.751 303.59 126.61 303.462 124.682C302.305 125.453 299.349 126.996 295.364 126.481C290.48 125.839 290.352 123.525 290.223 123.397C290.223 123.14 290.48 123.011 290.609 123.011C290.866 123.011 290.994 123.14 290.994 123.397C290.994 123.397 291.251 125.196 295.493 125.71C300.377 126.353 303.59 123.782 303.59 123.782C303.676 123.697 303.805 123.697 303.976 123.782C304.062 123.782 304.147 123.868 304.233 124.039C304.233 124.168 304.362 131.237 304.233 134.579C304.233 134.836 304.105 134.964 303.976 134.964Z" fill="#5E5254"/>
<path d="M370.683 131.237C373.126 134.836 374.025 156.301 352.561 163.884C338.294 169.025 326.083 169.154 317.986 167.097C309.888 165.041 305.904 163.241 304.49 158.486C303.076 153.859 303.59 134.193 303.59 134.193C303.59 134.193 312.202 137.535 320.685 133.036C329.297 128.538 328.397 123.654 328.397 123.654C328.397 123.654 332.124 126.738 334.181 127.253C345.62 129.823 368.627 128.409 370.683 131.237Z" fill="#D5645D"/>
<path d="M334.181 127.253C332.895 125.71 330.325 124.039 328.397 123.654C328.397 123.654 326.597 130.337 318.885 133.294C311.302 136.25 303.59 134.193 303.59 134.193C302.819 136.25 302.819 138.563 303.59 141.005C303.59 141.005 312.845 144.861 323.898 138.949C333.024 133.936 334.181 127.253 334.181 127.253Z" fill="#BF4E4B"/>
<path d="M304.362 120.183C304.362 120.183 304.319 120.183 304.233 120.183L302.562 119.412C302.305 119.284 302.305 119.155 302.305 118.898C302.434 118.77 302.691 118.641 302.819 118.77L304.49 119.541C304.747 119.669 304.747 119.798 304.747 120.055C304.661 120.141 304.533 120.183 304.362 120.183Z" fill="#5E5254"/>
<path d="M323.127 124.811C322.998 124.811 322.87 124.682 322.741 124.425C322.613 124.296 322.741 124.039 322.998 123.911C325.184 123.011 327.111 121.34 328.397 119.284C328.525 119.155 328.782 119.027 329.039 119.155C329.168 119.284 329.296 119.541 329.168 119.798C327.754 121.983 325.698 123.782 323.384 124.682C323.298 124.768 323.213 124.811 323.127 124.811Z" fill="#B27E5B"/>
<path d="M325.569 202.7C325.441 202.7 325.184 202.572 325.184 202.315C325.312 201.029 326.083 199.744 327.24 199.23C327.369 199.101 327.626 199.23 327.754 199.358C327.754 199.616 327.754 199.744 327.497 199.873C326.597 200.258 325.955 201.286 325.955 202.315C325.955 202.572 325.826 202.7 325.569 202.7Z" fill="#B7A69E"/>
<path d="M323.127 202.058C322.999 202.058 322.87 201.929 322.87 201.672C322.613 200.387 323.384 199.101 324.541 198.459C324.798 198.459 325.055 198.459 325.055 198.716C325.184 198.844 325.055 199.101 324.927 199.23C324.027 199.616 323.384 200.644 323.513 201.672C323.513 201.801 323.384 201.929 323.256 202.058C323.17 202.058 323.127 202.058 323.127 202.058Z" fill="#B7A69E"/>
<path d="M362.843 202.443C362.715 202.443 362.586 202.186 362.586 202.058C362.715 200.644 363.614 199.487 364.771 199.101C365.028 198.973 365.157 199.101 365.285 199.23C365.285 199.487 365.285 199.616 365.028 199.744C364.129 200.13 363.357 201.029 363.229 202.058C363.229 202.315 363.1 202.443 362.843 202.443Z" fill="#B7A69E"/>
<path d="M360.53 201.544C360.401 201.544 360.144 201.415 360.144 201.158C360.144 199.873 361.044 198.587 362.2 198.202C362.458 198.073 362.586 198.202 362.715 198.33C362.715 198.587 362.586 198.716 362.458 198.844C361.558 199.23 360.915 200.13 360.915 201.158C360.915 201.415 360.787 201.544 360.53 201.544Z" fill="#B7A69E"/>
<path d="M393.305 202.572C393.048 202.572 392.919 202.315 392.919 202.186C392.919 200.901 393.691 199.616 394.976 199.101C395.104 198.973 395.361 199.101 395.361 199.23C395.49 199.358 395.362 199.616 395.233 199.744C394.333 200.13 393.691 201.158 393.562 202.186C393.562 202.443 393.434 202.572 393.305 202.572Z" fill="#B7A69E"/>
<path d="M390.863 201.801C390.606 201.801 390.477 201.672 390.477 201.544C390.349 200.258 391.12 198.844 392.277 198.33C392.534 198.33 392.662 198.33 392.791 198.587C392.791 198.716 392.791 198.973 392.534 198.973C391.634 199.487 391.12 200.515 391.248 201.415C391.248 201.672 391.12 201.801 390.863 201.801Z" fill="#B7A69E"/>
<path d="M307.061 202.572C306.804 202.572 306.675 202.443 306.675 202.315C306.675 201.029 307.446 199.873 308.475 199.23C308.603 199.23 308.86 199.23 308.989 199.358C309.117 199.616 308.989 199.744 308.86 199.873C307.96 200.387 307.446 201.286 307.446 202.315C307.446 202.443 307.189 202.572 307.061 202.572Z" fill="#B7A69E"/>
<path d="M305.004 202.058C304.876 202.058 304.619 201.929 304.619 201.672C304.362 200.515 305.133 199.101 306.29 198.587C306.547 198.459 306.675 198.587 306.804 198.716C306.932 198.973 306.804 199.23 306.675 199.23C305.775 199.616 305.133 200.644 305.39 201.544C305.39 201.801 305.261 201.929 305.004 202.058Z" fill="#B7A69E"/>
<path d="M397.804 183.292C397.632 183.292 397.504 183.249 397.418 183.164C396.904 181.878 396.261 180.722 395.233 179.822C395.104 179.693 395.104 179.436 395.233 179.308C395.361 179.179 395.618 179.179 395.747 179.308C396.775 180.336 397.546 181.493 398.061 182.907C398.189 183.035 398.061 183.292 397.932 183.292C397.846 183.292 397.804 183.292 397.804 183.292Z" fill="#CCB9AD"/>
<path d="M394.719 181.107C394.633 181.107 394.547 181.064 394.462 180.979C393.69 179.95 392.791 179.051 391.763 178.279C391.505 178.279 391.505 178.022 391.634 177.894C391.763 177.637 391.891 177.637 392.148 177.765C393.305 178.408 394.333 179.436 395.104 180.593C395.104 180.721 395.104 180.979 394.976 180.979C394.89 181.064 394.804 181.107 394.719 181.107Z" fill="#CCB9AD"/>
<path d="M334.438 133.422C334.352 133.422 334.266 133.379 334.181 133.294L325.055 125.196C324.926 125.068 324.926 124.811 325.055 124.553C325.184 124.425 325.569 124.425 325.698 124.553L334.695 132.651C334.952 132.779 334.952 133.036 334.823 133.294C334.652 133.379 334.523 133.422 334.438 133.422Z" fill="#AD4040"/>
<path d="M331.996 135.864C331.824 135.864 331.696 135.821 331.61 135.736C328.911 132.137 325.569 129.181 321.842 126.738C321.585 126.61 321.585 126.353 321.713 126.096C321.842 125.839 322.099 125.839 322.356 125.967C326.083 128.409 329.554 131.494 332.253 135.093C332.51 135.35 332.381 135.607 332.253 135.736C332.167 135.821 332.081 135.864 331.996 135.864Z" fill="#AD4040"/>
<path d="M325.698 140.877C325.526 140.877 325.398 140.791 325.312 140.62L320.299 131.88C320.171 131.623 320.171 131.366 320.428 131.237C320.685 131.109 320.942 131.237 321.071 131.366L326.083 140.106C326.212 140.363 326.083 140.62 325.826 140.748C325.741 140.834 325.698 140.877 325.698 140.877Z" fill="#AD4040"/>
<path d="M320.171 143.319C319.914 143.319 319.785 143.19 319.785 143.062L315.287 131.494C315.287 131.237 315.287 130.98 315.544 130.98C315.801 130.851 316.058 130.98 316.186 131.237L320.556 142.676C320.685 142.933 320.556 143.19 320.299 143.319C320.214 143.319 320.171 143.319 320.171 143.319Z" fill="#AD4040"/>
<path d="M313.102 145.118C312.845 145.118 312.716 144.99 312.587 144.733C311.688 140.491 311.174 136.121 311.045 131.88C311.045 131.623 311.174 131.366 311.431 131.366C311.688 131.366 311.945 131.494 311.945 131.751C312.073 136.121 312.587 140.363 313.487 144.476C313.616 144.733 313.359 144.99 313.102 145.118Z" fill="#AD4040"/>
<path d="M309.888 145.375C309.631 145.375 309.503 145.118 309.503 144.99C308.475 139.977 308.089 134.964 308.346 129.952C308.346 129.695 308.603 129.566 308.86 129.566C308.989 129.566 309.246 129.823 309.246 130.08C308.989 134.964 309.374 139.977 310.274 144.733C310.402 144.99 310.274 145.247 310.017 145.375C309.931 145.375 309.888 145.375 309.888 145.375Z" fill="#AD4040"/>
<path d="M305.647 144.604C305.39 144.604 305.133 144.476 305.133 144.219C304.876 140.106 304.747 135.864 305.133 131.751C305.133 131.494 305.39 131.366 305.647 131.366C305.904 131.366 306.032 131.623 306.032 131.88C305.647 135.993 305.775 140.106 306.032 144.219C306.032 144.347 305.904 144.604 305.647 144.604Z" fill="#AD4040"/>
<path d="M336.88 168.254C336.623 168.254 336.494 168.125 336.494 167.868C336.366 167.611 336.623 167.354 336.88 167.354C341.893 166.712 347.162 165.426 352.432 163.498C363.743 159.514 368.241 151.802 370.169 146.018C372.354 138.949 371.326 133.036 370.298 131.494C370.169 131.366 370.169 131.109 370.426 130.98C370.555 130.723 370.941 130.851 371.069 130.98C372.483 133.036 373.126 139.463 370.941 146.275C369.141 152.188 364.385 160.157 352.689 164.398C347.419 166.197 342.15 167.611 337.008 168.254C336.923 168.254 336.88 168.254 336.88 168.254Z" fill="#BF4E4B"/>
<path d="M321.328 162.085C321.328 162.085 321.285 162.042 321.199 161.956C317.215 160.799 313.487 158.229 310.659 155.015C310.531 154.887 310.531 154.501 310.788 154.373C310.917 154.244 311.174 154.244 311.431 154.501C314.001 157.586 317.6 159.899 321.456 161.185C321.713 161.185 321.842 161.442 321.842 161.699C321.713 161.956 321.585 162.085 321.328 162.085Z" fill="#BF4E4B"/>
<path d="M318.243 156.301C318.157 156.301 318.071 156.301 317.986 156.301C316.443 155.529 315.03 154.373 313.873 153.087C313.616 152.83 313.744 152.573 313.873 152.445C314.13 152.188 314.387 152.316 314.515 152.445C315.544 153.73 316.958 154.758 318.371 155.529C318.628 155.658 318.757 155.915 318.628 156.044C318.5 156.301 318.371 156.301 318.243 156.301Z" fill="#BF4E4B"/>
<path d="M312.973 84.1947C312.887 84.1947 312.802 84.1519 312.716 84.0662L295.75 70.8275C295.493 70.699 295.493 70.4419 295.621 70.1848C295.75 69.9278 296.135 69.9278 296.264 70.0563L313.23 83.4235C313.487 83.5521 313.487 83.8091 313.359 84.0662C313.187 84.1519 313.059 84.1947 312.973 84.1947Z" fill="white"/>
<path d="M311.559 77.7682C311.473 77.7682 311.388 77.7253 311.302 77.6396L302.176 70.3134C301.919 70.1848 301.919 69.9278 302.048 69.7992C302.176 69.5422 302.434 69.5422 302.691 69.6707L311.816 76.997C312.073 77.1255 312.073 77.3826 311.945 77.6396C311.859 77.7253 311.731 77.7682 311.559 77.7682Z" fill="white"/>
<path d="M297.806 188.69C297.721 188.69 297.635 188.648 297.549 188.562L280.583 175.323C280.455 175.066 280.326 174.809 280.583 174.681C280.712 174.423 280.969 174.423 281.097 174.552L298.063 187.791C298.32 188.048 298.321 188.305 298.192 188.433C298.106 188.605 297.978 188.69 297.806 188.69Z" fill="white"/>
<path d="M296.393 182.264C296.307 182.264 296.221 182.221 296.135 182.135L287.01 174.809C286.753 174.681 286.753 174.423 286.881 174.166C287.138 174.038 287.395 173.909 287.524 174.166L296.778 181.493C296.907 181.621 296.907 181.878 296.778 182.135C296.692 182.221 296.564 182.264 296.393 182.264Z" fill="white"/>
<path d="M49.6129 22.3713C49.0988 22.3713 48.7132 21.9857 48.7132 21.4716V14.5309C47.4279 13.7597 43.829 10.932 43.829 6.69051C43.829 2.19193 46.9138 0.00690326 49.7415 0.00690326C52.1836 -0.121628 54.8827 1.54927 55.0113 4.63402C55.1398 5.01961 54.7542 5.53374 54.2401 5.53374C53.7259 5.53374 53.3403 5.14814 53.2118 4.63402C53.2118 2.57752 51.4124 1.80633 49.7415 1.80633C47.8135 1.80633 45.6285 3.09164 45.6285 6.69051C45.6285 10.8035 49.9985 13.2456 50.1271 13.2456C50.3841 13.3741 50.5127 13.7597 50.5127 14.0168V21.4716C50.5127 21.9857 50.1271 22.3713 49.6129 22.3713Z" fill="#5E5254"/>
<path d="M24.678 35.9956C24.4209 35.9956 24.0353 35.867 23.9068 35.61C23.6497 35.2244 23.7783 34.7103 24.1639 34.4532C26.3489 33.0394 45.6285 20.9574 49.4844 20.9574C53.0833 20.9574 68.507 32.1396 71.5918 34.4532C71.9774 34.7103 72.1059 35.2244 71.7203 35.7385C71.4633 36.1241 70.9491 36.1241 70.5635 35.867C63.6228 30.8543 51.798 22.7569 49.4844 22.7569C47.0423 22.7569 33.2895 30.8543 25.1921 35.867C25.0207 35.9527 24.8493 35.9956 24.678 35.9956Z" fill="#5E5254"/>
<path d="M23.5212 33.425L35.089 25.7131C35.089 25.7131 37.9167 36.7668 49.9986 36.7668C62.209 36.7668 66.1935 28.1552 66.1935 28.1552L75.9619 37.1524C75.9619 37.1524 75.3192 44.8642 66.4506 47.949C66.4506 47.949 66.4506 59.6453 66.4506 68.1283C66.4506 77.254 64.9082 89.2074 50.8983 89.2074C37.274 89.2074 34.0608 80.3388 34.0608 70.4419C34.0608 60.545 34.0608 47.949 34.0608 47.949C34.0608 47.949 24.0354 42.5507 23.5212 33.425Z" fill="#93A88D"/>
<path d="M64.1371 75.5831C63.1088 83.0379 57.582 88.0507 50.3843 88.0507C43.1865 88.0507 36.8885 83.9377 36.2458 75.1976C35.8603 68.3854 43.1865 66.3289 50.3843 66.3289C57.582 66.3289 65.0368 68.771 64.1371 75.5831Z" fill="#74896F"/>
<path d="M57.1963 53.9899C57.1107 53.9899 57.0678 53.9899 57.0678 53.9899C51.9266 51.8049 47.2994 48.5916 43.572 44.6072C43.4435 44.4787 43.4435 44.2216 43.572 44.0931C43.7006 43.9645 43.9577 43.9645 44.0862 44.0931C47.6851 48.0775 52.3122 51.1623 57.3249 53.3473C57.4534 53.3473 57.5819 53.6044 57.4534 53.7329C57.3677 53.9043 57.282 53.9899 57.1963 53.9899Z" fill="#74896F"/>
<path d="M52.8263 55.2753C52.8263 55.2753 52.7834 55.2753 52.6978 55.2753C50.3842 54.7611 48.1992 53.4758 46.6568 51.8049C46.5283 51.5478 46.5283 51.4193 46.6568 51.2908C46.9139 51.1623 47.0424 51.1623 47.1709 51.2908C48.7133 52.9617 50.7698 54.1185 52.8263 54.5041C53.0834 54.6326 53.2119 54.7611 53.2119 55.0182C53.0833 55.1467 52.9548 55.2753 52.8263 55.2753Z" fill="#74896F"/>
<path fill-rule="evenodd" clip-rule="evenodd" d="M50.3843 41.2654C37.1456 41.2654 31.3616 28.5408 31.3616 28.4123C31.2331 28.2837 31.3617 28.1552 31.4902 28.0267L34.832 25.4561C34.9177 25.3704 35.0034 25.3704 35.0891 25.4561C35.2605 25.4561 35.3461 25.5417 35.3461 25.7131C35.4746 26.0987 38.6879 36.8953 49.9986 36.3812C61.4379 35.8671 65.9365 28.0267 65.9365 28.0267C66.0222 27.941 66.1079 27.8553 66.1936 27.7696C66.2792 27.7696 66.3649 27.8125 66.4506 27.8981L70.4351 31.6255C70.5636 31.7541 70.5636 32.0111 70.4351 32.1397C70.3066 32.2682 63.3659 41.2654 50.3843 41.2654ZM32.1328 28.4123C33.0326 30.2117 38.6879 40.6227 50.3843 40.6227C61.8235 40.6227 68.5071 33.425 69.6639 32.0111L66.3221 28.7979C65.1653 30.3402 60.4097 36.6383 49.9986 37.1524C39.5876 37.538 35.6032 28.5408 34.832 26.3558L32.1328 28.4123Z" fill="#74896F"/>
<path d="M34.3178 32.2682C34.2321 32.2682 34.1464 32.2254 34.0608 32.1397C33.9322 32.0112 33.9322 31.7541 34.0608 31.6256L36.2458 29.5691C36.3743 29.4405 36.6314 29.4405 36.7599 29.5691C36.8884 29.6976 36.8884 29.9547 36.7599 30.0832L34.5749 32.1397C34.4892 32.2254 34.4035 32.2682 34.3178 32.2682Z" fill="#74896F"/>
<path d="M36.5028 34.9674C36.4171 34.9674 36.3314 34.9245 36.2458 34.8388C36.1172 34.7103 36.1172 34.4532 36.2458 34.3247L38.4308 32.3967C38.5593 32.2682 38.8164 32.2682 38.9449 32.3967C39.0734 32.5253 39.0734 32.7823 38.8164 32.9109L36.7599 34.8388C36.6742 34.9245 36.5885 34.9674 36.5028 34.9674Z" fill="#74896F"/>
<path d="M42.6724 39.0803C42.6724 39.0803 42.6295 39.0803 42.5438 39.0803C42.4153 38.9518 42.2867 38.6947 42.2867 38.5662L43.1865 35.9956C43.315 35.8671 43.5721 35.7385 43.7006 35.7385C43.8291 35.8671 43.9577 36.1241 43.9577 36.2527L43.0579 38.8233C42.9294 38.9518 42.8009 39.0803 42.6724 39.0803Z" fill="#74896F"/>
<path d="M47.8136 40.8798C47.8136 40.8798 47.7707 40.8798 47.6851 40.8798C47.5565 40.7512 47.428 40.6227 47.428 40.4942L47.8136 37.1524C47.9421 36.8953 48.0706 36.7668 48.3277 36.7668C48.4562 36.8953 48.5848 37.0238 48.5848 37.2809L48.1992 40.4942C48.0706 40.7512 47.9421 40.8798 47.8136 40.8798Z" fill="#74896F"/>
<path d="M57.582 39.9801C57.4106 39.9801 57.282 39.8944 57.1963 39.723L55.911 36.2527C55.7825 36.1241 55.911 35.8671 56.0396 35.7385C56.2966 35.7385 56.4251 35.8671 56.5537 35.9956L57.839 39.4659C57.9675 39.5945 57.839 39.8515 57.7105 39.9801C57.6248 39.9801 57.582 39.9801 57.582 39.9801Z" fill="#74896F"/>
<path d="M63.1088 37.4094C63.0231 37.4094 62.9374 37.3666 62.8517 37.2809L60.4096 34.1962C60.2811 34.0676 60.2811 33.8106 60.4096 33.8106C60.6667 33.682 60.7952 33.682 60.9237 33.8106L63.3659 36.7668C63.4944 37.0238 63.4944 37.1524 63.3659 37.2809C63.2802 37.3666 63.1945 37.4094 63.1088 37.4094Z" fill="#74896F"/>
<path d="M67.3503 34.9674C67.1789 34.9674 67.0504 34.9245 66.9647 34.8388L64.137 31.3685C64.0085 31.24 64.0085 30.9829 64.2656 30.8544C64.3941 30.7258 64.6512 30.8544 64.7797 30.9829L67.6074 34.4532C67.7359 34.5818 67.7359 34.8388 67.4788 34.9674C67.4788 34.9674 67.436 34.9674 67.3503 34.9674Z" fill="#74896F"/>
<path d="M34.4463 48.3346C34.3607 48.3346 34.3178 48.3346 34.3178 48.3346C23.1356 42.4221 23.2641 34.0676 23.2641 33.682C23.2641 33.5535 23.3926 33.425 23.6497 33.425C23.7782 33.425 24.0353 33.5535 24.0353 33.8106C24.0353 33.8106 23.9068 41.908 34.3178 47.5634L37.9167 43.836C38.0452 43.7074 38.3022 43.7074 38.4308 43.836C38.5593 43.9645 38.5593 44.2216 38.4308 44.3501L34.7034 48.206C34.6177 48.2917 34.532 48.3346 34.4463 48.3346Z" fill="#74896F"/>
<path d="M66.4506 48.3346C66.2792 48.3346 66.1507 48.2917 66.065 48.206L63.7514 45.2498C63.6229 44.9928 63.6229 44.8642 63.7514 44.7357C63.88 44.6072 64.137 44.6072 64.2655 44.7357L66.5791 47.5634C67.7359 47.1778 73.9054 45.1213 75.4478 37.538C75.5763 37.4094 75.7048 37.2809 75.9619 37.2809C76.0904 37.2809 76.2189 37.538 76.2189 37.6665C74.4195 46.5351 66.5791 48.3346 66.4506 48.3346Z" fill="#74896F"/>
<path d="M65.2937 22.3713C64.7795 22.3713 64.3939 21.9857 64.3939 21.4716V14.5309C62.9801 13.7597 59.3812 10.932 59.3812 6.69051C59.3812 2.19193 62.466 0.00690326 65.2937 0.00690326C67.8643 -0.121628 70.5634 1.54927 70.6919 4.63402C70.6919 5.01961 70.3064 5.53374 69.7922 5.53374C69.2781 5.53374 68.8925 5.14814 68.8925 4.63402C68.764 2.57752 66.9645 1.80633 65.4222 1.80633C63.4942 1.80633 61.1807 3.09164 61.1807 6.69051C61.1807 10.8035 65.6792 13.2456 65.6792 13.2456C65.9363 13.5027 66.1934 13.7597 66.1934 14.0168V21.4716C66.1934 21.9857 65.8078 22.3713 65.2937 22.3713Z" fill="#5E5254"/>
<path d="M40.2302 35.9956C39.9731 35.9956 39.716 35.867 39.459 35.61C39.2019 35.2244 39.3304 34.7103 39.8446 34.4532C42.0296 33.0394 61.3092 20.9574 65.0366 20.9574C68.764 20.9574 84.1878 32.1396 87.144 34.4532C87.5296 34.7103 87.6581 35.2244 87.401 35.7385C87.0154 36.1241 86.5013 36.1241 86.1157 35.867C79.3036 30.8543 67.4787 22.7569 65.0366 22.7569C62.5946 22.7569 48.8417 30.8543 40.7443 35.867C40.5729 35.9527 40.4015 35.9956 40.2302 35.9956Z" fill="#5E5254"/>
<path d="M39.0734 33.425L50.6412 25.7131C50.6412 25.7131 53.4689 36.7668 65.6794 36.7668C77.7613 36.7668 81.8743 28.1552 81.8743 28.1552L91.6426 37.1524C91.6426 37.1524 90.8715 44.8642 82.0028 47.949C82.0028 47.949 82.0028 59.6453 82.0028 68.1283C82.0028 77.254 80.4604 89.2074 66.4506 89.2074C52.8263 89.2074 49.613 80.3388 49.613 70.4419C49.613 60.545 49.613 47.949 49.613 47.949C49.613 47.949 39.7161 42.5507 39.0734 33.425Z" fill="#F2E5DC"/>
<path d="M79.6892 75.5831C78.7895 83.0379 73.1341 88.0507 66.0649 88.0507C58.8672 88.0507 52.4407 83.9377 51.9265 75.1976C51.4124 68.3854 58.8672 66.3289 66.0649 66.3289C73.1341 66.3289 80.589 68.771 79.6892 75.5831Z" fill="#CCB9AD"/>
<path d="M72.7485 53.9899C72.6628 53.9899 72.62 53.9899 72.62 53.9899C67.4787 51.8049 62.8516 48.5916 59.1242 44.6072C58.9957 44.4787 58.9957 44.2216 59.1242 44.0931C59.2528 43.9645 59.5098 43.9645 59.6383 44.0931C63.3657 48.0775 67.8644 51.1623 72.8771 53.3473C73.1341 53.3473 73.1341 53.6044 73.1341 53.7329C73.0484 53.9043 72.9199 53.9899 72.7485 53.9899Z" fill="#CCB9AD"/>
<path d="M68.3785 55.2753C66.065 54.7611 63.8799 53.4758 62.3375 51.8049C62.209 51.5478 62.209 51.4193 62.3375 51.2908C62.4661 51.1623 62.7231 51.1623 62.8517 51.2908C64.2655 52.9617 66.322 54.1185 68.5071 54.5041C68.6356 54.6326 68.7641 54.7611 68.7641 55.0182C68.7641 55.1467 68.6356 55.2753 68.3785 55.2753Z" fill="#CCB9AD"/>
<path fill-rule="evenodd" clip-rule="evenodd" d="M65.9364 41.2654C52.8263 41.2654 47.0423 28.5408 46.9138 28.4123C46.9138 28.2837 46.9138 28.1552 47.0424 28.0267L50.3842 25.4561C50.4699 25.3704 50.5984 25.3704 50.7697 25.4561C50.8554 25.4561 50.9411 25.5417 51.0268 25.7131C51.1554 26.0987 54.2401 36.8953 65.6794 36.3812C77.1186 35.8671 81.4887 28.0267 81.4887 28.0267C81.5743 27.941 81.66 27.8553 81.7457 27.7696C81.9171 27.7696 82.0456 27.8125 82.1313 27.8981L85.9872 31.6255C86.1158 31.7541 86.1158 32.0111 85.9872 32.1397C85.9872 32.2682 79.0466 41.2654 65.9364 41.2654ZM47.685 28.4123C48.5847 30.2117 54.2401 40.6227 65.9364 40.6227C77.5042 40.6227 84.0593 33.425 85.2161 32.0111L81.8743 28.7979C80.846 30.3402 75.9618 36.6383 65.6794 37.1524C55.1398 37.538 51.2839 28.5408 50.5127 26.3558L47.685 28.4123Z" fill="#CCB9AD"/>
<path d="M49.8701 32.2682C49.7844 32.2682 49.6987 32.2254 49.613 32.1397C49.4845 32.0112 49.4845 31.7541 49.613 31.6256L51.9265 29.5691C52.0551 29.4405 52.3122 29.4405 52.4407 29.5691C52.5692 29.6976 52.5692 29.9547 52.4407 30.0832L50.1271 32.1397C50.0414 32.2254 49.9558 32.2682 49.8701 32.2682Z" fill="#CCB9AD"/>
<path d="M52.1836 34.9674C52.0122 34.9674 51.9265 34.9245 51.9265 34.8388C51.7979 34.7103 51.7979 34.4532 51.9265 34.3247L53.983 32.3967C54.1115 32.2682 54.3686 32.2682 54.4971 32.3967C54.6256 32.5253 54.6256 32.7823 54.4971 32.9109L52.4406 34.8388C52.3549 34.9245 52.2692 34.9674 52.1836 34.9674Z" fill="#CCB9AD"/>
<path d="M58.2246 39.0803C57.9676 38.9518 57.839 38.6947 57.9675 38.5662L58.8673 35.9956C58.8673 35.8671 59.1243 35.7385 59.2528 35.7385C59.5099 35.8671 59.6385 36.1241 59.5099 36.2527L58.6102 38.8233C58.6102 38.9518 58.4817 39.0803 58.2246 39.0803Z" fill="#CCB9AD"/>
<path d="M63.3658 40.8798C63.1088 40.7512 62.9802 40.6227 62.9802 40.4942L63.4943 37.1524C63.4943 36.8953 63.7514 36.7668 63.88 36.7668C64.137 36.8953 64.2655 37.0238 64.137 37.2809L63.7514 40.4942C63.7514 40.7512 63.6229 40.8798 63.3658 40.8798Z" fill="#CCB9AD"/>
<path d="M73.1341 39.9801C72.9628 39.9801 72.8343 39.8944 72.7486 39.723L71.4633 36.2527C71.3347 36.1241 71.4633 35.8671 71.7203 35.7385C71.8489 35.7385 72.1059 35.8671 72.1059 35.9956L73.5198 39.4659C73.5198 39.5945 73.5198 39.8515 73.2627 39.9801C73.2627 39.9801 73.2198 39.9801 73.1341 39.9801Z" fill="#CCB9AD"/>
<path d="M78.661 37.4094C78.5753 37.4094 78.4896 37.3666 78.4039 37.2809L75.9619 34.1962C75.8333 34.0676 75.9619 33.8106 76.0904 33.8106C76.2189 33.682 76.476 33.682 76.6045 33.8106L78.9181 36.7668C79.0466 37.0238 79.0466 37.1524 78.9181 37.2809C78.8324 37.3666 78.7467 37.4094 78.661 37.4094Z" fill="#CCB9AD"/>
<path d="M82.9026 34.9674C82.8169 34.9674 82.7312 34.9245 82.6455 34.8388L79.8178 31.3685C79.6893 31.24 79.6893 30.9829 79.8178 30.8544C79.9464 30.7258 80.2034 30.8544 80.3319 30.9829L83.1596 34.4532C83.2882 34.5818 83.2882 34.8388 83.1596 34.9674C83.074 34.9674 82.9883 34.9674 82.9026 34.9674Z" fill="#CCB9AD"/>
<path d="M49.9986 48.3346C49.9986 48.3346 49.9558 48.3346 49.8701 48.3346C38.6879 42.4221 38.8164 34.0676 38.8164 33.682C38.8164 33.5535 39.0735 33.425 39.202 33.425C39.459 33.425 39.5876 33.5535 39.5876 33.8106C39.5876 33.8106 39.459 41.908 49.9986 47.5634L53.4689 43.836C53.726 43.7074 53.8545 43.7074 53.9831 43.836C54.2401 43.9645 54.2401 44.2216 53.9831 44.3501L50.2557 48.206C50.17 48.2917 50.0843 48.3346 49.9986 48.3346Z" fill="#CCB9AD"/>
<path d="M82.0028 48.3346C81.9171 48.3346 81.8314 48.2917 81.7457 48.206L79.3037 45.2498C79.1751 44.9928 79.1751 44.8642 79.4322 44.7357C79.5607 44.6072 79.6892 44.6072 79.8178 44.7357L82.1313 47.5634C83.4166 47.1778 89.5861 45.1213 91.1285 37.538C91.1285 37.4094 91.3856 37.2809 91.5141 37.2809C91.7712 37.2809 91.8997 37.538 91.7711 37.6665C89.9717 46.5351 82.1313 48.3346 82.1313 48.3346C82.0456 48.3346 82.0028 48.3346 82.0028 48.3346Z" fill="#CCB9AD"/>
<path d="M83.5451 22.3713C83.031 22.3713 82.6454 21.9857 82.6454 21.4716V14.5309C81.3601 13.7597 77.7612 10.932 77.7612 6.69051C77.7612 2.19193 80.846 0.00690326 83.6737 0.00690326C86.1158 -0.121628 88.8149 1.54927 88.9434 4.63402C88.9434 5.01961 88.5578 5.53374 88.1722 5.53374C87.6581 5.53374 87.144 5.14814 87.144 4.63402C87.144 2.57752 85.3446 1.80633 83.6737 1.80633C81.7457 1.80633 79.5607 3.09164 79.5607 6.69051C79.5607 10.8035 83.9307 13.2456 84.0592 13.2456C84.3163 13.5027 84.4449 13.7597 84.4449 14.0168V21.4716C84.4449 21.9857 84.0592 22.3713 83.5451 22.3713Z" fill="#5E5254"/>
<path d="M58.6102 35.9956C58.3531 35.9956 57.9675 35.867 57.839 35.61C57.5819 35.2244 57.7105 34.7103 58.0961 34.4532C60.2811 33.0394 79.5608 20.9574 83.2882 20.9574C87.0156 20.9574 102.439 32.1396 105.524 34.4532C105.91 34.7103 106.038 35.2244 105.653 35.7385C105.395 36.1241 104.881 36.1241 104.367 35.867C97.5551 30.8543 85.7302 22.7569 83.2882 22.7569C80.9746 22.7569 67.2218 30.8543 59.1243 35.867C58.9529 35.9527 58.7816 35.9956 58.6102 35.9956Z" fill="#5E5254"/>
<path d="M57.3248 33.425L68.8926 25.7131C68.8926 25.7131 71.8488 36.7668 83.9308 36.7668C96.1412 36.7668 100.126 28.1552 100.126 28.1552L109.894 37.1524C109.894 37.1524 109.251 44.8642 100.254 47.949C100.254 47.949 100.254 59.6453 100.254 68.1283C100.254 77.254 98.7118 89.2074 84.8305 89.2074C71.2062 89.2074 67.9929 80.3388 67.9929 70.4419C67.9929 60.545 67.9929 47.949 67.9929 47.949C67.9929 47.949 57.9675 42.5507 57.3248 33.425Z" fill="#D5645D"/>
<path d="M98.0692 75.5831C97.0409 83.0379 91.5141 88.0507 84.3163 88.0507C77.1186 88.0507 70.692 83.9377 70.1779 75.1976C69.7923 68.3854 77.1186 66.3289 84.3163 66.3289C91.5141 66.3289 98.9689 68.771 98.0692 75.5831Z" fill="#BF4E4B"/>
<path d="M91 53.9899C91 53.9899 90.9572 53.9899 90.8715 53.9899C85.8588 51.8049 81.2317 48.5916 77.3757 44.6072C77.2472 44.4787 77.2472 44.2216 77.5043 44.0931C77.6328 43.9645 77.7613 43.9645 78.0184 44.0931C81.6173 48.0775 86.2444 51.1623 91.2571 53.3473C91.3856 53.3473 91.5141 53.6044 91.3856 53.7329C91.2999 53.9043 91.1714 53.9899 91 53.9899Z" fill="#BF4E4B"/>
<path d="M86.7584 55.2753C86.6727 55.2753 86.6298 55.2753 86.6298 55.2753C84.3163 54.7611 82.1313 53.4758 80.5889 51.8049C80.4604 51.5478 80.4604 51.4193 80.5889 51.2908C80.7174 51.1623 80.9745 51.1623 81.103 51.2908C82.6454 52.9617 84.5733 54.1185 86.7584 54.5041C87.0154 54.6326 87.144 54.7611 87.0154 55.0182C87.0154 55.1467 86.8869 55.2753 86.7584 55.2753Z" fill="#BF4E4B"/>
<path fill-rule="evenodd" clip-rule="evenodd" d="M84.1878 41.2654C71.0777 41.2654 65.2938 28.5408 65.2938 28.4123C65.1653 28.2837 65.1653 28.1552 65.2938 28.0267L68.7641 25.4561C68.8498 25.3704 68.9355 25.3704 69.0212 25.4561C69.1926 25.4561 69.2782 25.5417 69.2782 25.7131C69.4067 26.0987 72.6201 36.8953 83.9308 36.3812C95.37 35.8671 99.7401 28.0267 99.8686 28.0267C99.8686 27.941 99.9543 27.8553 100.126 27.7696C100.211 27.7696 100.297 27.8125 100.383 27.8981L104.367 31.6255C104.496 31.7541 104.496 32.0111 104.367 32.1397C104.239 32.2682 97.298 41.2654 84.1878 41.2654ZM66.0649 28.4123C66.9647 30.2117 72.62 40.6227 84.1878 40.6227C95.7556 40.6227 102.311 33.425 103.596 32.0111L100.254 28.7979C99.0974 30.3402 94.3418 36.6383 83.9308 37.1524C73.3912 37.538 69.5353 28.5408 68.7641 26.3558L66.0649 28.4123Z" fill="#BF4E4B"/>
<path d="M68.25 32.2682C68.0787 32.2682 67.9502 32.2254 67.8645 32.1397C67.7359 32.0112 67.8644 31.7541 67.993 31.6256L70.178 29.5691C70.3065 29.4405 70.5636 29.4405 70.6921 29.5691C70.8207 29.6976 70.8207 29.9547 70.6921 30.0832L68.3786 32.1397C68.3786 32.2254 68.3357 32.2682 68.25 32.2682Z" fill="#BF4E4B"/>
<path d="M70.435 34.9674C70.3493 34.9674 70.2636 34.9245 70.1779 34.8388C70.0494 34.7103 70.0494 34.4532 70.1779 34.3247L72.363 32.3967C72.4915 32.2682 72.62 32.2682 72.7486 32.3967C73.0056 32.5253 72.8771 32.7823 72.7486 32.9109L70.6921 34.8388C70.6064 34.9245 70.5207 34.9674 70.435 34.9674Z" fill="#BF4E4B"/>
<path d="M76.6045 39.0803C76.5188 39.0803 76.476 39.0803 76.476 39.0803C76.3474 38.9518 76.2189 38.6947 76.2189 38.5662L77.1186 35.9956C77.2472 35.8671 77.3757 35.7385 77.6327 35.7385C77.7613 35.8671 77.8898 36.1241 77.8898 36.2527L76.9901 38.8233C76.8616 38.9518 76.733 39.0803 76.6045 39.0803Z" fill="#BF4E4B"/>
<path d="M81.7457 40.8798C81.6601 40.8798 81.6172 40.8798 81.6172 40.8798C81.4887 40.7512 81.3602 40.6227 81.3602 40.4942L81.7457 37.1524C81.8743 36.8953 82.0028 36.7668 82.2599 36.7668C82.3884 36.8953 82.5169 37.0238 82.5169 37.2809L82.0028 40.4942C82.0028 40.7512 81.8743 40.8798 81.7457 40.8798Z" fill="#BF4E4B"/>
<path d="M91.5141 39.9801C91.3427 39.9801 91.2142 39.8944 91.1285 39.723L89.7147 36.2527C89.7147 36.1241 89.8432 35.8671 89.9717 35.7385C90.1002 35.7385 90.3573 35.8671 90.4858 35.9956L91.7711 39.4659C91.8997 39.5945 91.7712 39.8515 91.6426 39.9801C91.5569 39.9801 91.5141 39.9801 91.5141 39.9801Z" fill="#BF4E4B"/>
<path d="M97.0409 37.4094C96.8695 37.4094 96.7839 37.3666 96.7839 37.2809L94.3418 34.1962C94.2132 34.0676 94.2132 33.8106 94.3418 33.8106C94.4703 33.682 94.7274 33.682 94.8559 33.8106L97.298 36.7668C97.4265 37.0238 97.4265 37.1524 97.1695 37.2809C97.1695 37.3666 97.1266 37.4094 97.0409 37.4094Z" fill="#BF4E4B"/>
<path d="M101.154 34.9674C101.068 34.9674 100.983 34.9245 100.897 34.8388L98.0692 31.3685C97.9406 31.24 97.9406 30.9829 98.0692 30.8544C98.3262 30.7258 98.4548 30.8544 98.5833 30.9829L101.539 34.4532C101.668 34.5818 101.539 34.8388 101.411 34.9674C101.325 34.9674 101.24 34.9674 101.154 34.9674Z" fill="#BF4E4B"/>
<path d="M68.3785 48.3346C68.2928 48.3346 68.2071 48.3346 68.1214 48.3346C56.9392 42.4221 57.1963 34.0676 57.1963 33.682C57.1963 33.5107 57.3249 33.425 57.5819 33.425C57.7104 33.425 57.9675 33.5535 57.839 33.8106C57.839 33.8106 57.7104 41.908 68.25 47.5634L71.8488 43.836C71.9774 43.7074 72.2344 43.7074 72.363 43.836C72.4915 43.9645 72.4915 44.2216 72.363 44.3501L68.6355 48.206C68.5499 48.2917 68.4642 48.3346 68.3785 48.3346Z" fill="#BF4E4B"/>
<path d="M100.254 48.3346C100.169 48.3346 100.083 48.2917 99.9972 48.206L97.6836 45.2498C97.5551 44.9928 97.5551 44.8642 97.6836 44.7357C97.8121 44.6072 98.0692 44.6072 98.1977 44.7357L100.383 47.5634C101.668 47.1778 107.838 45.1213 109.38 37.538C109.508 37.4094 109.637 37.2809 109.894 37.2809C110.023 37.2809 110.151 37.538 110.151 37.6665C108.223 46.5351 100.511 48.3346 100.383 48.3346C100.383 48.3346 100.34 48.3346 100.254 48.3346Z" fill="#BF4E4B"/>
<path d="M130.202 22.3713C129.688 22.3713 129.302 21.9857 129.302 21.4716V14.5309C127.888 13.7597 124.289 10.932 124.289 6.69051C124.289 2.19193 127.374 0.00690326 130.202 0.00690326C132.773 -0.121628 135.472 1.54927 135.6 4.63402C135.6 5.01961 135.215 5.53374 134.701 5.53374C134.186 5.53374 133.801 5.14814 133.801 4.63402C133.672 2.57752 131.873 1.80633 130.33 1.80633C128.402 1.80633 126.089 3.09164 126.089 6.69051C126.089 10.8035 130.588 13.2456 130.588 13.2456C130.845 13.3741 131.102 13.7597 131.102 14.0168V21.4716C131.102 21.9857 130.716 22.3713 130.202 22.3713Z" fill="#5E5254"/>
<path d="M105.138 35.9956C104.881 35.9956 104.624 35.867 104.367 35.61C104.11 35.2244 104.239 34.7103 104.753 34.4532C106.938 33.0394 126.217 20.9574 129.945 20.9574C133.672 20.9574 149.096 32.1396 152.052 34.4532C152.438 34.7103 152.566 35.2244 152.309 35.7385C151.924 36.1241 151.41 36.1241 151.024 35.867C144.083 30.8543 132.387 22.7569 129.945 22.7569C127.503 22.7569 113.75 30.8543 105.652 35.867C105.481 35.9527 105.31 35.9956 105.138 35.9956Z" fill="#5E5254"/>
<path d="M121.333 79.6961C121.333 79.6961 124.804 71.3416 130.33 71.7272C135.986 72.1128 139.713 80.3388 139.713 80.3388L144.083 79.182C144.083 79.182 140.998 55.7893 130.587 55.7893C120.048 55.7893 119.02 79.3105 119.02 79.3105L121.333 79.6961Z" fill="#C9C5BF"/>
<path d="M119.791 23.3996C119.791 23.3996 104.881 32.1397 104.239 33.1679C103.467 34.1962 108.737 41.651 109.765 41.651C110.794 41.651 112.85 39.5945 112.85 39.5945C112.85 39.5945 113.236 44.7357 113.236 52.9617C113.236 61.1877 111.951 76.997 111.951 76.997C111.951 76.997 117.991 79.6961 120.948 79.4391C120.948 79.4391 121.847 61.9589 125.318 59.5168C127.76 57.9744 133.672 58.4885 135.343 59.6453C138.556 61.9589 140.484 79.3105 140.484 79.3105L148.453 76.4829C148.453 76.4829 147.682 58.6171 147.168 52.5761C146.782 46.6637 146.011 40.4942 146.011 40.4942L148.839 42.0365L153.98 34.1962L139.199 23.3996H119.791Z" fill="#DFDCD9"/>
<path d="M120.948 15.8162C120.048 15.9447 119.277 22.4998 119.277 23.3995C119.277 24.1707 122.619 26.8699 129.431 26.8699C136.371 26.8699 138.299 24.4278 139.199 23.3995C139.713 22.6283 138.042 16.2018 137.4 16.2018C136.371 16.0733 134.315 17.3586 130.073 17.6156C125.575 17.8727 121.59 15.6877 120.948 15.8162Z" fill="#C9C5BF"/>
<path d="M100.64 35.0959C100.64 34.4532 105.267 31.1114 105.91 31.497C106.552 31.8826 112.208 40.2371 112.079 41.1368C111.951 42.0365 107.58 44.7357 107.066 44.7357C106.424 44.7357 100.383 36.2526 100.64 35.0959Z" fill="#C9C5BF"/>
<path d="M152.181 44.6072C151.409 44.8642 146.654 42.2936 146.782 41.5224C146.782 40.8798 151.538 32.3967 152.309 32.0111C153.209 31.6256 157.322 34.4532 157.579 34.9674C157.965 35.4815 153.209 44.2216 152.181 44.6072Z" fill="#C9C5BF"/>
<path d="M132.001 59.5167H128.017V26.2272H132.001V59.5167Z" fill="#C9C5BF"/>
<path d="M130.973 30.9829C130.973 31.6255 130.588 32.1396 130.073 32.1396C129.431 32.1396 129.045 31.6255 129.045 30.9829C129.045 30.4687 129.431 29.9546 130.073 29.9546C130.588 29.9546 130.973 30.4687 130.973 30.9829Z" fill="#5E5254"/>
<path d="M130.973 42.0365C130.973 42.5507 130.588 43.0648 130.073 43.0648C129.431 43.0648 129.045 42.5507 129.045 42.0365C129.045 41.3939 129.431 40.8798 130.073 40.8798C130.588 40.8798 130.973 41.3939 130.973 42.0365Z" fill="#5E5254"/>
<path d="M130.973 52.9617C130.973 53.4758 130.588 53.9899 130.073 53.9899C129.431 53.9899 129.045 53.4758 129.045 52.9617C129.045 52.319 129.431 51.9334 130.073 51.9334C130.588 51.9334 130.973 52.319 130.973 52.9617Z" fill="#5E5254"/>
<path d="M154.623 42.8077C154.537 42.8077 154.494 42.8077 154.494 42.8077C151.41 42.0365 148.582 40.6227 146.268 38.5662C146.14 38.4377 146.14 38.1806 146.268 37.9235C146.397 37.795 146.654 37.6665 146.911 37.9235C149.096 39.8515 151.795 41.2653 154.623 41.908C154.88 42.0365 155.008 42.2936 155.008 42.4221C155.008 42.6792 154.751 42.8077 154.623 42.8077Z" fill="#B2AFAB"/>
<path d="M156.808 39.4659C156.722 39.4659 156.636 39.4231 156.551 39.3374L148.453 34.8388C148.325 34.7103 148.196 34.4532 148.325 34.1961C148.453 34.0676 148.71 33.9391 148.967 34.0676L157.065 38.5662C157.193 38.6947 157.322 38.9518 157.193 39.2089C157.108 39.2945 156.979 39.3802 156.808 39.4659Z" fill="#B2AFAB"/>
<path d="M100.254 38.1806C100.083 38.1806 99.9543 38.1378 99.8686 38.0521C99.7401 37.795 99.7401 37.5379 99.9971 37.4094L107.966 32.0111C108.223 31.8826 108.48 32.0111 108.609 32.1396C108.737 32.3967 108.737 32.6538 108.48 32.7823L100.511 38.1806C100.426 38.1806 100.34 38.1806 100.254 38.1806Z" fill="#B2AFAB"/>
<path d="M101.282 40.2371C101.197 40.2371 101.068 40.1514 100.897 39.98C100.768 39.8515 100.768 39.5944 101.025 39.4659C103.596 37.2809 106.424 35.4815 109.251 33.682C109.508 33.682 109.766 33.682 109.894 33.9391C110.023 34.0676 109.894 34.4532 109.765 34.5817C106.938 36.2526 104.11 38.0521 101.54 40.1086C101.454 40.1943 101.368 40.2371 101.282 40.2371Z" fill="#B2AFAB"/>
<path d="M103.21 43.8359C103.039 43.8359 102.911 43.7503 102.825 43.5789C102.696 43.4503 102.825 43.0648 103.082 42.9362C106.038 41.3939 108.866 39.2088 111.179 36.7667C111.436 36.6382 111.693 36.6382 111.822 36.7667C112.079 36.8953 112.079 37.2809 111.822 37.4094C109.38 39.98 106.552 42.0365 103.467 43.8359C103.382 43.8359 103.296 43.8359 103.21 43.8359Z" fill="#B2AFAB"/>
<path d="M122.362 27.7696C122.105 27.7696 121.976 27.5125 121.976 27.2555C122.104 23.1425 122.747 19.158 123.775 15.1736C123.904 14.9165 124.032 14.788 124.29 14.788C124.547 14.9165 124.675 15.1736 124.675 15.4306C123.647 19.2865 123.004 23.271 122.876 27.2555C122.876 27.5125 122.619 27.7696 122.362 27.7696Z" fill="#B2AFAB"/>
<path d="M128.145 29.0549C127.888 29.0549 127.76 28.9264 127.76 28.6693C127.374 24.6849 127.374 20.7004 128.017 16.7159C128.017 16.4589 128.274 16.3304 128.531 16.3304C128.788 16.3304 128.917 16.5874 128.917 16.8445C128.274 20.7004 128.274 24.6849 128.66 28.5408C128.66 28.7979 128.403 29.0549 128.145 29.0549Z" fill="#B2AFAB"/>
<path d="M135.472 27.5125C135.215 27.5125 135.086 27.384 135.086 27.1269C134.829 23.3995 134.058 19.6722 132.773 16.2018C132.773 15.9448 132.901 15.6877 133.158 15.5592C133.287 15.5592 133.544 15.6877 133.672 15.8162C134.958 19.5436 135.729 23.271 135.986 27.1269C135.986 27.384 135.729 27.5125 135.472 27.5125Z" fill="#B2AFAB"/>
<path d="M129.431 27.2555C121.719 27.2555 119.277 24.1707 119.148 24.0422C119.02 23.7851 119.02 23.5281 119.277 23.3995C119.405 23.271 119.662 23.271 119.919 23.5281C119.919 23.5281 122.233 26.3558 129.431 26.3558C136.757 26.3558 138.813 23.3995 138.813 23.3995C139.071 23.1425 139.328 23.1425 139.456 23.271C139.713 23.3995 139.713 23.6566 139.585 23.7851C139.585 24.0422 137.271 27.2555 129.431 27.2555Z" fill="#B2AFAB"/>
<path d="M131.873 58.8741C131.616 58.8741 131.487 58.617 131.487 58.36V27.1269C131.487 26.8699 131.616 26.6128 131.873 26.6128C132.13 26.6128 132.387 26.8699 132.387 27.1269V58.36C132.387 58.617 132.13 58.8741 131.873 58.8741Z" fill="#B2AFAB"/>
<path d="M120.948 79.9532C120.691 79.9532 120.562 79.6961 120.562 79.439C120.691 77.6396 121.462 61.5732 125.061 59.1311C127.631 57.3317 133.801 57.9744 135.729 59.3882C138.814 61.5732 140.741 77.5111 140.999 79.3105C140.999 79.5676 140.741 79.8246 140.613 79.8246C140.356 79.8246 140.099 79.6961 140.099 79.439C139.456 74.5549 137.528 61.8303 135.086 60.0309C133.544 58.8741 127.76 58.36 125.575 59.9023C122.876 61.8303 121.719 74.6834 121.462 79.5676C121.462 79.6961 121.205 79.9532 120.948 79.9532Z" fill="#B2AFAB"/>
<path d="M109.38 82.7809C108.994 82.1382 110.151 76.6114 110.794 76.4829C111.436 76.3543 121.333 78.6679 121.847 79.4391C122.362 80.0817 120.948 85.0944 120.562 85.48C120.177 85.8656 110.023 83.6806 109.38 82.7809Z" fill="#C9C5BF"/>
<path d="M140.999 86.1227C140.227 85.8656 138.171 80.5959 138.685 80.0817C139.199 79.5676 148.71 76.0973 149.482 76.4829C150.381 76.7399 151.924 81.6241 151.795 82.1382C151.667 82.7809 142.027 86.5083 140.999 86.1227Z" fill="#C9C5BF"/>
<path d="M143.312 87.1509C143.141 87.1509 143.012 87.0652 142.927 86.8939C141.513 84.0662 140.484 80.9814 139.842 77.7682C139.842 77.5111 139.97 77.254 140.227 77.254C140.484 77.254 140.741 77.3826 140.741 77.6396C141.256 80.7244 142.284 83.6806 143.698 86.5083C143.826 86.7653 143.698 87.0224 143.569 87.1509C143.484 87.1509 143.398 87.1509 143.312 87.1509Z" fill="#B2AFAB"/>
<path d="M146.783 86.1227C146.654 86.1227 146.397 85.9941 146.397 85.7371C145.626 82.6523 144.469 79.5676 143.184 76.7399C143.055 76.4828 143.184 76.2258 143.441 76.0973C143.569 75.9687 143.955 76.0973 143.955 76.3543C145.369 79.3105 146.397 82.3953 147.297 85.48C147.297 85.7371 147.168 85.9941 146.911 86.1227C146.911 86.1227 146.868 86.1227 146.783 86.1227Z" fill="#B2AFAB"/>
<path d="M149.996 84.7088C149.739 84.7088 149.61 84.5803 149.482 84.3232C149.096 81.2385 147.811 78.1537 146.14 75.4546C146.011 75.1975 146.14 74.9405 146.268 74.8119C146.525 74.6834 146.783 74.6834 146.911 74.9405C148.71 77.7681 149.867 80.9814 150.381 84.1947C150.51 84.4518 150.253 84.7088 149.996 84.7088Z" fill="#B2AFAB"/>
<path d="M117.477 86.5083C117.392 86.5083 117.349 86.5083 117.349 86.5083C117.092 86.3797 116.963 86.1227 117.092 85.8656C118.12 83.0379 118.891 80.0817 119.277 77.1255C119.277 76.8684 119.534 76.7399 119.791 76.7399C120.048 76.7399 120.176 76.997 120.176 77.254C119.791 80.3388 119.02 83.295 117.863 86.2512C117.863 86.3797 117.606 86.5083 117.477 86.5083Z" fill="#B2AFAB"/>
<path d="M114.778 86.3797C114.693 86.3797 114.65 86.3797 114.65 86.3797C114.393 86.3797 114.264 86.1226 114.264 85.8656L116.835 76.6113C116.963 76.4828 117.22 76.2258 117.477 76.3543C117.734 76.4828 117.863 76.6113 117.734 76.8684L115.164 86.1226C115.164 86.2512 114.907 86.3797 114.778 86.3797Z" fill="#B2AFAB"/>
<path d="M111.436 85.3515C111.179 85.3515 111.051 85.223 111.051 84.9659C111.179 81.7526 111.951 78.5393 113.107 75.5831C113.236 75.4546 113.493 75.3261 113.75 75.3261C114.007 75.4546 114.136 75.7117 114.007 75.9687C112.85 78.7964 112.079 81.8811 111.951 84.9659C111.951 85.223 111.693 85.3515 111.436 85.3515Z" fill="#B2AFAB"/>
<path d="M167.347 22.3713C166.833 22.3713 166.448 21.9857 166.448 21.4716V14.5309C165.162 13.7597 161.563 10.932 161.563 6.69051C161.563 2.19193 164.648 0.00690326 167.476 0.00690326C169.918 -0.121628 172.617 1.54927 172.746 4.63402C172.746 5.01961 172.36 5.53374 171.974 5.53374C171.46 5.53374 170.946 5.14814 170.946 4.63402C170.946 2.57752 169.147 1.80633 167.476 1.80633C165.548 1.80633 163.363 3.09164 163.363 6.69051C163.363 10.8035 167.733 13.2456 167.861 13.2456C168.119 13.5027 168.247 13.7597 168.247 14.0168V21.4716C168.247 21.9857 167.861 22.3713 167.347 22.3713Z" fill="#5E5254"/>
<path d="M142.412 35.9956C142.155 35.9956 141.77 35.867 141.641 35.61C141.384 35.2244 141.513 34.7103 141.898 34.4532C144.083 33.0394 163.363 20.9574 167.219 20.9574C170.818 20.9574 186.241 32.1396 189.326 34.4532C189.712 34.7103 189.84 35.2244 189.455 35.7385C189.198 36.1241 188.683 36.1241 188.169 35.867C181.357 30.8543 169.532 22.7569 167.219 22.7569C164.777 22.7569 151.024 30.8543 142.926 35.867C142.755 35.9527 142.584 35.9956 142.412 35.9956Z" fill="#5E5254"/>
<path d="M151.795 57.5888C151.795 57.5888 149.224 60.1594 145.883 63.6297C145.883 63.6297 147.039 65.3006 149.739 67.2286C151.538 68.5139 154.366 69.9278 157.836 70.699C165.805 72.4984 171.46 72.4984 177.244 71.3416C179.943 70.8275 182.771 69.1566 184.313 68.2569C186.756 66.9716 187.912 65.9433 187.912 65.9433L181.743 57.3317L151.795 57.5888Z" fill="#E8D6CA"/>
<path d="M155.265 52.319C155.265 52.319 152.438 54.247 148.582 57.4602C148.582 57.4602 148.839 58.8741 151.795 60.4165C153.08 61.1876 155.008 61.4447 157.836 62.6015C161.949 64.2724 166.576 64.915 170.432 64.658C174.031 64.4009 176.73 63.2441 179.943 62.473C185.856 60.9306 186.113 59.5167 186.113 59.5167L179.943 52.1905L155.265 52.319Z" fill="#F2E5DC"/>
<path d="M150.253 27.8981L156.808 24.4278C156.808 24.4278 159.379 30.0831 167.347 30.0831C175.316 30.0831 178.016 24.6848 178.016 24.6848L184.185 29.4405C184.185 29.4405 182.9 33.1679 179.686 35.2244L179.943 52.1905C179.943 52.1905 175.445 56.432 167.09 56.432C158.736 56.432 155.266 52.319 155.266 52.319V35.4814C155.266 35.4814 149.996 32.1396 150.253 27.8981Z" fill="#D5645D"/>
<path d="M167.99 64.9151C165.933 64.9151 164.134 64.658 162.078 64.1439C159.378 63.3727 157.193 62.6015 154.751 61.8303C154.151 61.6589 153.552 61.4447 152.952 61.1877C149.739 60.1594 148.71 57.7173 148.71 57.5888C148.582 57.4603 148.71 57.3317 148.839 57.2032C148.967 57.2032 149.096 57.2032 149.224 57.4603C149.224 57.4603 150.124 59.7738 153.08 60.6735C153.68 60.9306 154.28 61.1448 154.88 61.3162C157.322 62.0874 159.635 62.8586 162.335 63.6298C165.676 64.5295 168.247 64.658 172.36 64.0153C174.802 63.7583 176.602 63.1156 178.401 62.6015C179.558 62.2159 180.715 61.9589 182 61.5733C185.085 60.8021 185.856 59.3882 185.856 59.3882C185.984 59.2597 186.113 59.2597 186.241 59.2597C186.37 59.3882 186.498 59.5168 186.37 59.6453C186.37 59.7738 185.599 61.3162 182.128 62.0874C180.843 62.473 179.686 62.73 178.53 63.1156C176.73 63.6297 174.931 64.2724 172.36 64.658C170.689 64.7865 169.275 64.9151 167.99 64.9151Z" fill="#CCB9AD"/>
<path d="M152.052 60.6735C152.052 60.6735 152.009 60.6307 151.924 60.545C151.795 60.545 151.795 60.2879 151.924 60.2879L156.294 55.2752C156.422 55.1467 156.551 55.1467 156.679 55.2752C156.808 55.4037 156.808 55.5323 156.679 55.6608L152.309 60.545C152.224 60.6307 152.138 60.6735 152.052 60.6735Z" fill="#CCB9AD"/>
<path d="M153.209 61.1876C153.209 61.1876 153.166 61.1448 153.08 61.0591C152.952 60.9306 152.952 60.802 153.08 60.6735L155.394 57.8458C155.522 57.7173 155.651 57.7173 155.78 57.8458C155.908 57.8458 155.908 58.1029 155.908 58.2314L153.466 61.0591C153.38 61.1448 153.295 61.1876 153.209 61.1876Z" fill="#CCB9AD"/>
<path d="M166.062 64.5294H165.805V60.1594C165.805 60.0308 165.934 59.9023 166.062 59.9023C166.319 59.9023 166.448 60.0308 166.448 60.1594L166.319 64.5294H166.062Z" fill="#CCB9AD"/>
<path d="M167.733 64.7865C167.604 64.7865 167.476 64.658 167.476 64.5295V62.3444C167.347 62.2159 167.476 62.0874 167.733 62.0874C167.861 62.0874 167.99 62.2159 167.99 62.3444V64.5295C167.99 64.658 167.861 64.7865 167.733 64.7865Z" fill="#CCB9AD"/>
<path d="M177.244 63.2441C177.073 63.2441 176.987 63.2013 176.987 63.1156L175.316 59.6453C175.188 59.5167 175.316 59.3882 175.445 59.2597C175.573 59.2597 175.702 59.2597 175.83 59.3882L177.373 62.8585C177.501 62.9871 177.501 63.1156 177.373 63.2441C177.287 63.2441 177.244 63.2441 177.244 63.2441Z" fill="#CCB9AD"/>
<path d="M178.915 62.73C178.829 62.73 178.744 62.6872 178.658 62.6015C177.887 61.4875 177.159 60.2879 176.473 59.0026C176.473 58.8741 176.473 58.7455 176.602 58.7455C176.73 58.617 176.987 58.7455 176.987 58.8741C177.587 60.0737 178.315 61.2305 179.172 62.3444C179.301 62.4729 179.172 62.6015 179.044 62.73C179.044 62.73 179.001 62.73 178.915 62.73Z" fill="#CCB9AD"/>
<path d="M169.532 72.3698C166.833 72.3698 164.391 72.1128 162.72 71.9843C159.378 71.4701 153.466 69.6707 150.767 68.1283C147.939 66.5859 145.883 64.0153 145.883 63.8868C145.754 63.7583 145.754 63.6297 145.883 63.5012C146.011 63.3727 146.14 63.5012 146.268 63.6297C146.268 63.6297 148.196 66.2004 151.024 67.7427C153.723 69.1566 159.507 70.956 162.849 71.3416C166.062 71.8557 172.874 71.9843 176.73 71.2131C180.715 70.3134 186.37 66.843 187.655 66.0718C187.784 65.9433 187.912 65.9433 188.041 66.0718C188.041 66.2004 188.041 66.4574 187.912 66.4574C186.627 67.3571 180.972 70.8275 176.859 71.7272C174.931 72.1128 172.103 72.3698 169.532 72.3698Z" fill="#CCB9AD"/>
<path d="M154.751 69.6707C154.623 69.5421 154.494 69.4136 154.494 69.2851L156.294 65.0436C156.294 64.915 156.551 64.7865 156.679 64.7865C156.808 64.915 156.808 65.0436 156.808 65.1721L155.008 69.5421C155.008 69.6278 154.923 69.6707 154.751 69.6707Z" fill="#CCB9AD"/>
<path d="M155.908 70.1848C155.908 70.1848 155.865 70.1848 155.78 70.1848C155.651 70.0563 155.651 69.9277 155.651 69.7992L156.165 68.3854C156.294 68.2568 156.422 68.2568 156.551 68.2568C156.679 68.3854 156.808 68.5139 156.679 68.6424L156.165 70.0563C156.079 70.142 155.994 70.1848 155.908 70.1848Z" fill="#CCB9AD"/>
<path d="M172.746 71.9842C172.617 71.9842 172.489 71.9842 172.489 71.8557L171.975 68.2568C171.975 67.9998 172.103 67.8712 172.232 67.8712C172.36 67.8712 172.489 67.9998 172.489 68.1283L173.003 71.7272C173.131 71.8557 173.003 71.9842 172.874 71.9842C172.874 71.9842 172.831 71.9842 172.746 71.9842Z" fill="#CCB9AD"/>
<path d="M178.401 70.956C178.23 70.956 178.144 70.8703 178.144 70.6989L177.373 68.8995C177.244 68.771 177.373 68.5139 177.501 68.5139C177.63 68.5139 177.758 68.5139 177.887 68.6424L178.658 70.5704C178.658 70.6989 178.53 70.8274 178.401 70.956Z" fill="#CCB9AD"/>
<path d="M186.113 67.3571C186.027 67.3571 185.942 67.3143 185.856 67.2286L183.414 63.8868C183.285 63.7583 183.414 63.5012 183.414 63.5012C183.542 63.3727 183.799 63.3727 183.799 63.5012L186.37 66.9715C186.37 66.9715 186.37 67.2286 186.241 67.2286C186.241 67.3143 186.199 67.3571 186.113 67.3571Z" fill="#CCB9AD"/>
<path d="M146.911 64.915C146.911 64.915 146.868 64.915 146.782 64.915C146.654 64.7865 146.654 64.658 146.782 64.5294C147.125 63.9296 147.596 63.4155 148.196 62.9871C148.325 62.8585 148.453 62.9871 148.582 63.1156C148.582 63.1156 148.582 63.3727 148.453 63.3727C147.939 63.8011 147.511 64.2724 147.168 64.7865C147.168 64.8722 147.082 64.915 146.911 64.915Z" fill="#CCB9AD"/>
<path d="M170.047 41.3939C170.047 41.3939 170.004 41.3939 169.918 41.3939C167.69 39.9372 165.676 38.2234 163.877 36.2526C163.877 36.1241 163.877 35.9956 163.877 35.867C164.006 35.7385 164.263 35.7385 164.263 35.867C166.062 37.8379 168.033 39.5087 170.175 40.8797C170.304 41.0083 170.432 41.1368 170.304 41.2653C170.218 41.351 170.132 41.3939 170.047 41.3939Z" fill="#BF4E4B"/>
<path d="M168.119 42.2936C168.033 42.2936 167.99 42.2507 167.99 42.165L165.419 40.2371C165.291 40.1085 165.291 39.98 165.291 39.8515C165.419 39.7229 165.548 39.7229 165.676 39.7229L168.247 41.7794C168.376 41.908 168.376 42.0365 168.376 42.165C168.29 42.2507 168.204 42.2936 168.119 42.2936Z" fill="#BF4E4B"/>
<path d="M167.347 30.3402C159.25 30.3402 156.551 24.5563 156.551 24.5563C156.551 24.2992 156.551 24.1707 156.679 24.1707C156.808 24.0422 156.936 24.1707 157.065 24.2992C157.065 24.2992 159.507 29.8261 167.347 29.8261C175.188 29.8261 177.758 24.5563 177.758 24.5563C177.758 24.4278 178.016 24.2992 178.144 24.4278C178.273 24.4278 178.273 24.6848 178.273 24.8134C178.273 24.8134 175.573 30.3402 167.347 30.3402Z" fill="#BF4E4B"/>
<path d="M189.84 22.3713C189.455 22.3713 188.941 21.9857 188.941 21.4716V14.5309C187.655 13.7597 184.056 10.932 184.056 6.69051C184.056 2.19193 187.141 0.00690326 189.969 0.00690326C192.411 -0.121628 195.11 1.54927 195.239 4.63402C195.367 5.01961 194.982 5.53374 194.467 5.53374C193.953 5.53374 193.568 5.14814 193.439 4.63402C193.439 2.57752 191.64 1.80633 189.969 1.80633C188.041 1.80633 185.856 3.09164 185.856 6.69051C185.856 10.8035 190.226 13.2456 190.354 13.2456C190.611 13.3741 190.74 13.7597 190.74 14.0168V21.4716C190.74 21.9857 190.354 22.3713 189.84 22.3713Z" fill="#5E5254"/>
<path d="M164.905 35.9956C164.648 35.9956 164.263 35.867 164.134 35.61C163.877 35.2244 164.005 34.7103 164.391 34.4532C166.576 33.0394 185.856 20.9574 189.712 20.9574C193.439 20.9574 208.734 32.1396 211.819 34.4532C212.205 34.7103 212.333 35.2244 211.948 35.7385C211.69 36.1241 211.176 36.1241 210.791 35.867C203.85 30.8543 192.025 22.7569 189.712 22.7569C187.27 22.7569 173.517 30.8543 165.419 35.867C165.248 35.9527 165.077 35.9956 164.905 35.9956Z" fill="#5E5254"/>
<path d="M169.532 28.7978L182 21.7286L189.069 28.1552L196.909 21.8572L208.349 28.7978C208.349 28.7978 208.734 34.7103 205.007 36.3812L200.38 34.4532C200.38 34.4532 201.279 45.6354 200.637 49.6199C199.994 53.7329 196.138 57.0747 188.941 57.0747C181.743 57.0747 177.501 53.4758 177.116 49.4913C176.602 45.3783 177.116 35.3529 177.116 35.3529L174.159 37.0238C174.159 37.0238 168.247 35.2244 169.532 28.7978Z" fill="#DFDCD9"/>
<path d="M176.216 24.9419C176.473 26.4843 187.912 30.0832 188.941 30.0832C190.097 30.0832 200.38 25.0704 200.637 24.1707C201.022 23.1425 197.681 20.0577 196.524 20.4433C195.239 20.8289 189.069 27.8981 189.069 27.8981C189.069 27.8981 184.056 21.2145 182 20.7004C179.943 20.3148 175.959 23.7851 176.216 24.9419Z" fill="#C9C5BF"/>
<path d="M199.48 49.6199C198.709 53.6043 194.724 56.0464 189.069 56.0464C183.414 56.0464 178.53 53.8614 178.272 49.3628C178.144 45.6354 183.414 43.9645 189.069 43.9645C194.724 43.9645 200.123 46.1496 199.48 49.6199Z" fill="#B2AFAB"/>
<path d="M185.599 39.5944C185.47 39.5944 185.342 39.4659 185.342 39.3374C184.571 35.0959 184.571 30.8543 185.085 26.6128C185.085 26.4843 185.213 26.3558 185.342 26.3558C185.47 26.3558 185.599 26.6128 185.599 26.7413C185.085 30.8543 185.213 35.0959 185.856 39.2089C185.856 39.3374 185.856 39.4659 185.727 39.5944C185.642 39.5944 185.599 39.5944 185.599 39.5944Z" fill="#5E5254"/>
<path d="M193.825 39.0803C193.696 39.0803 193.568 38.9518 193.568 38.8233C193.439 34.9673 193.054 30.9829 192.539 27.1269C192.539 26.9984 192.668 26.8699 192.796 26.8699C192.925 26.8699 193.054 26.9984 193.182 27.1269C193.696 30.9829 193.953 34.9673 194.082 38.8233C194.082 38.9518 193.953 39.0803 193.825 39.0803Z" fill="#5E5254"/>
<path fill-rule="evenodd" clip-rule="evenodd" d="M174.159 37.2809C174.031 37.2809 170.689 35.9956 169.661 33.5535C168.633 30.7258 169.275 28.9264 169.275 28.7978C169.361 28.7122 169.404 28.6693 169.404 28.6693L171.589 27.384C171.675 27.2983 171.76 27.2983 171.846 27.384C171.932 27.4697 171.974 27.5554 171.974 27.6411C171.974 27.8981 170.561 33.682 176.602 35.2244C176.687 35.3101 176.773 35.3958 176.859 35.4815C176.859 35.5671 176.816 35.6528 176.73 35.7385L174.417 37.2809C174.331 37.2809 174.245 37.2809 174.159 37.2809ZM169.789 29.0549C169.661 29.4405 169.275 30.9829 170.175 33.2964C170.946 35.3529 173.645 36.5097 174.159 36.7668L175.83 35.61C171.075 34.0676 171.203 29.6976 171.332 28.1552L169.789 29.0549Z" fill="#C9C5BF"/>
<path d="M169.532 30.8543C169.447 30.8543 169.361 30.8115 169.275 30.7258C169.147 30.5973 169.275 30.4687 169.404 30.3402L171.332 29.4405C171.46 29.312 171.589 29.4405 171.717 29.569C171.717 29.6976 171.717 29.8261 171.589 29.9546L169.661 30.8543C169.575 30.8543 169.532 30.8543 169.532 30.8543Z" fill="#C9C5BF"/>
<path d="M169.661 32.5252C169.575 32.5252 169.49 32.4395 169.404 32.2682C169.404 32.1396 169.404 32.0111 169.532 32.0111L171.589 31.1114C171.717 30.9829 171.846 31.1114 171.974 31.2399C171.974 31.3685 171.974 31.497 171.846 31.497L169.789 32.3967C169.789 32.4824 169.747 32.5252 169.661 32.5252Z" fill="#C9C5BF"/>
<path d="M170.689 34.5817C170.603 34.5817 170.561 34.5389 170.561 34.4532C170.432 34.3247 170.432 34.1961 170.561 34.0676L172.489 33.0394C172.617 32.9108 172.746 32.9108 172.874 33.0394C172.874 33.1679 172.874 33.425 172.746 33.425L170.818 34.5817C170.818 34.5817 170.775 34.5817 170.689 34.5817Z" fill="#C9C5BF"/>
<path d="M171.974 35.7385C171.889 35.7385 171.846 35.6957 171.846 35.61C171.717 35.4814 171.717 35.3529 171.846 35.2244L173.645 34.1961C173.774 34.1961 173.902 34.1961 174.031 34.3247C174.031 34.4532 174.031 34.5817 173.902 34.7103L172.231 35.7385C172.146 35.7385 172.06 35.7385 171.974 35.7385Z" fill="#C9C5BF"/>
<path d="M173.388 36.5097C173.303 36.5097 173.217 36.4669 173.131 36.3812C173.131 36.2526 173.131 36.1241 173.26 35.9956L175.059 34.9673C175.188 34.8388 175.316 34.8388 175.445 34.9673C175.445 35.0959 175.445 35.2244 175.316 35.3529L173.517 36.5097C173.517 36.5097 173.474 36.5097 173.388 36.5097Z" fill="#C9C5BF"/>
<path fill-rule="evenodd" clip-rule="evenodd" d="M205.135 36.6382L202.693 35.7385C202.608 35.6528 202.565 35.5672 202.565 35.4815C202.565 35.3101 202.608 35.2244 202.693 35.2244C202.693 35.2244 204.621 33.9391 205.521 32.1397C206.421 30.3402 206.164 27.8981 206.164 27.8981C206.164 27.7268 206.207 27.6411 206.292 27.6411C206.378 27.5554 206.506 27.5554 206.678 27.6411L208.477 28.7979C208.563 28.7979 208.649 28.8407 208.734 28.9264C208.734 29.0549 208.863 30.9829 208.092 33.1679C207.32 35.4815 205.393 36.5097 205.264 36.5097C205.264 36.5954 205.221 36.6382 205.135 36.6382ZM203.465 35.3529L205.135 35.9956C205.521 35.7385 206.935 34.7103 207.578 33.0394C208.22 31.2399 208.092 29.6976 208.092 29.1834L206.806 28.2837C206.806 29.1835 206.678 30.9829 206.035 32.3967C205.264 33.8106 204.107 34.8388 203.465 35.3529Z" fill="#C9C5BF"/>
<path d="M206.164 35.7385C206.164 35.7385 206.121 35.7385 206.035 35.7385L203.85 34.7103C203.722 34.7103 203.593 34.5817 203.722 34.4532C203.722 34.1961 203.979 34.1961 204.107 34.1961L206.292 35.2244C206.421 35.3529 206.549 35.4814 206.421 35.61C206.421 35.6957 206.335 35.7385 206.164 35.7385Z" fill="#C9C5BF"/>
<path d="M207.321 34.3247C207.321 34.3247 207.278 34.3247 207.192 34.3247L205.135 33.2964C205.007 33.2964 205.007 33.1679 205.007 32.9108C205.135 32.7823 205.264 32.7823 205.393 32.7823L207.449 33.8106C207.578 33.8106 207.706 33.9391 207.578 34.1962C207.492 34.2818 207.406 34.3247 207.321 34.3247Z" fill="#C9C5BF"/>
<path d="M208.22 32.1397C208.134 32.1397 208.092 32.1397 208.092 32.1397L206.292 31.2399C206.164 31.2399 206.035 30.9829 206.164 30.8543C206.164 30.7258 206.421 30.7258 206.549 30.7258L208.349 31.6255C208.477 31.6255 208.477 31.8826 208.477 32.0111C208.392 32.0968 208.306 32.1397 208.22 32.1397Z" fill="#C9C5BF"/>
<path d="M208.22 30.4687C208.22 30.4687 208.177 30.4687 208.092 30.4687L206.678 29.6976C206.549 29.569 206.421 29.4405 206.549 29.312C206.549 29.1834 206.806 29.0549 206.935 29.1834L208.349 29.9546C208.606 30.0831 208.606 30.2117 208.477 30.3402C208.477 30.4259 208.392 30.4687 208.22 30.4687Z" fill="#C9C5BF"/>
</svg>
