<svg width="50" height="50" viewBox="0 0 50 50" fill="none" xmlns="http://www.w3.org/2000/svg">
<path d="M32.06 31.67L29.92 27.4L27.78 31.67" stroke="#292D32" stroke-width="1.5" stroke-linecap="round" stroke-linejoin="round"/>
<path d="M28.17 30.9099H31.69" stroke="#292D32" stroke-width="1.5" stroke-linecap="round" stroke-linejoin="round"/>
<path d="M29.92 35.0001C27.12 35.0001 24.84 32.73 24.84 29.92C24.84 27.12 27.11 24.8401 29.92 24.8401C32.72 24.8401 35 27.11 35 29.92C35 32.73 32.73 35.0001 29.92 35.0001Z" stroke="#292D32" stroke-width="1.5" stroke-linecap="round" stroke-linejoin="round"/>
<path d="M18.02 15H21.94C24.01 15 25.01 16 24.96 18.02V21.94C25.01 24.01 24.01 25.01 21.94 24.96H18.02C16 25 15 24 15 21.93V18.01C15 16 16 15 18.02 15Z" stroke="#292D32" stroke-width="1.5" stroke-linecap="round" stroke-linejoin="round"/>
<path d="M22.01 18.8499H17.95" stroke="#292D32" stroke-width="1.5" stroke-linecap="round" stroke-linejoin="round"/>
<path d="M19.97 18.1699V18.8499" stroke="#292D32" stroke-width="1.5" stroke-linecap="round" stroke-linejoin="round"/>
<path d="M20.99 18.84C20.99 20.59 19.62 22.0099 17.94 22.0099" stroke="#292D32" stroke-width="1.5" stroke-linecap="round" stroke-linejoin="round"/>
<path d="M22.01 22.01C21.28 22.01 20.62 21.62 20.16 21" stroke="#292D32" stroke-width="1.5" stroke-linecap="round" stroke-linejoin="round"/>
<path d="M15 28C15 31.87 18.13 35 22 35L20.95 33.25" stroke="#292D32" stroke-width="1.5" stroke-linecap="round" stroke-linejoin="round"/>
<path d="M35 22C35 18.13 31.87 15 28 15L29.05 16.75" stroke="#292D32" stroke-width="1.5" stroke-linecap="round" stroke-linejoin="round"/>
</svg>
