<svg width="35" height="16" viewBox="0 0 35 16" fill="none" xmlns="http://www.w3.org/2000/svg">
<path d="M0.464844 12V1.29199H1.70996V10.8867H6.46338V12H0.464844ZM14.7985 7.97168C14.7985 8.63086 14.7131 9.21924 14.5422 9.73682C14.3713 10.2544 14.1247 10.6914 13.8024 11.0479C13.4802 11.4043 13.0896 11.6777 12.6306 11.8682C12.1765 12.0537 11.6613 12.1465 11.0852 12.1465C10.5481 12.1465 10.0549 12.0537 9.60567 11.8682C9.16133 11.6777 8.77559 11.4043 8.44844 11.0479C8.12618 10.6914 7.87471 10.2544 7.69405 9.73682C7.51827 9.21924 7.43038 8.63086 7.43038 7.97168C7.43038 7.09277 7.5793 6.3457 7.87715 5.73047C8.175 5.11035 8.59981 4.63916 9.15157 4.31689C9.70821 3.98975 10.3698 3.82617 11.1364 3.82617C11.8689 3.82617 12.5085 3.98975 13.0554 4.31689C13.6071 4.64404 14.0344 5.11768 14.3371 5.73779C14.6447 6.35303 14.7985 7.09766 14.7985 7.97168ZM8.69014 7.97168C8.69014 8.61621 8.77559 9.17529 8.94649 9.64893C9.11739 10.1226 9.38106 10.4888 9.7375 10.7476C10.0939 11.0063 10.5529 11.1357 11.1145 11.1357C11.6711 11.1357 12.1276 11.0063 12.4841 10.7476C12.8454 10.4888 13.1115 10.1226 13.2824 9.64893C13.4533 9.17529 13.5388 8.61621 13.5388 7.97168C13.5388 7.33203 13.4533 6.78027 13.2824 6.31641C13.1115 5.84766 12.8479 5.48633 12.4914 5.23242C12.135 4.97852 11.6735 4.85156 11.1071 4.85156C10.2722 4.85156 9.65938 5.12744 9.26875 5.6792C8.88301 6.23096 8.69014 6.99512 8.69014 7.97168ZM18.9003 15.6035C17.8456 15.6035 17.0326 15.4058 16.4613 15.0103C15.89 14.6196 15.6044 14.0703 15.6044 13.3623C15.6044 12.8594 15.7631 12.4297 16.0805 12.0732C16.4027 11.7168 16.8471 11.48 17.4135 11.3628C17.2035 11.2651 17.0229 11.1187 16.8715 10.9233C16.725 10.728 16.6518 10.5034 16.6518 10.2495C16.6518 9.95654 16.7323 9.7002 16.8935 9.48047C17.0595 9.25586 17.3109 9.04102 17.6479 8.83594C17.2279 8.66504 16.8861 8.37695 16.6225 7.97168C16.3637 7.56152 16.2343 7.08545 16.2343 6.54346C16.2343 5.96729 16.3539 5.47656 16.5932 5.07129C16.8324 4.66113 17.1791 4.34863 17.6332 4.13379C18.0873 3.91895 18.6366 3.81152 19.2812 3.81152C19.4228 3.81152 19.5644 3.81885 19.706 3.8335C19.8524 3.84326 19.9916 3.86035 20.1234 3.88477C20.2553 3.9043 20.37 3.92871 20.4677 3.95801H23.2216V4.7417L21.7421 4.9248C21.8886 5.11523 22.0107 5.34473 22.1083 5.61328C22.206 5.88184 22.2548 6.17969 22.2548 6.50684C22.2548 7.30762 21.9838 7.94482 21.4418 8.41846C20.8998 8.88721 20.1552 9.12158 19.2079 9.12158C18.9833 9.12158 18.7538 9.10205 18.5194 9.06299C18.2802 9.19482 18.0971 9.34131 17.9701 9.50244C17.8481 9.66357 17.787 9.84912 17.787 10.0591C17.787 10.2153 17.8334 10.3398 17.9262 10.4326C18.0238 10.5254 18.163 10.5938 18.3437 10.6377C18.5243 10.6768 18.7416 10.6963 18.9955 10.6963H20.4091C21.2831 10.6963 21.9521 10.8794 22.4159 11.2456C22.8847 11.6118 23.1191 12.1465 23.1191 12.8496C23.1191 13.7383 22.7577 14.4194 22.0351 14.8931C21.3124 15.3667 20.2675 15.6035 18.9003 15.6035ZM18.9369 14.6514C19.601 14.6514 20.1503 14.583 20.5849 14.4463C21.0243 14.3145 21.3515 14.1216 21.5663 13.8677C21.786 13.6187 21.8959 13.3208 21.8959 12.9741C21.8959 12.6519 21.8227 12.4077 21.6762 12.2417C21.5297 12.0806 21.3149 11.9731 21.0316 11.9194C20.7484 11.8608 20.4018 11.8315 19.9916 11.8315H18.6C18.2387 11.8315 17.9237 11.8877 17.6552 12C17.3866 12.1123 17.1791 12.2783 17.0326 12.498C16.891 12.7178 16.8202 12.9912 16.8202 13.3184C16.8202 13.7529 17.0033 14.0825 17.3695 14.3071C17.7358 14.5366 18.2582 14.6514 18.9369 14.6514ZM19.2519 8.23535C19.8329 8.23535 20.2699 8.08887 20.5629 7.7959C20.8559 7.50293 21.0024 7.07568 21.0024 6.51416C21.0024 5.91357 20.8534 5.46436 20.5556 5.1665C20.2577 4.86377 19.8183 4.7124 19.2372 4.7124C18.6806 4.7124 18.2509 4.86865 17.9482 5.18115C17.6503 5.48877 17.5014 5.94043 17.5014 6.53613C17.5014 7.08301 17.6527 7.50293 17.9555 7.7959C18.2582 8.08887 18.6903 8.23535 19.2519 8.23535ZM25.7779 3.97266V12H24.5621V3.97266H25.7779ZM25.1847 0.969727C25.3849 0.969727 25.5558 1.03564 25.6974 1.16748C25.8439 1.29443 25.9171 1.49463 25.9171 1.76807C25.9171 2.03662 25.8439 2.23682 25.6974 2.36865C25.5558 2.50049 25.3849 2.56641 25.1847 2.56641C24.9747 2.56641 24.7989 2.50049 24.6573 2.36865C24.5206 2.23682 24.4523 2.03662 24.4523 1.76807C24.4523 1.49463 24.5206 1.29443 24.6573 1.16748C24.7989 1.03564 24.9747 0.969727 25.1847 0.969727ZM31.9158 3.82617C32.868 3.82617 33.5882 4.06055 34.0765 4.5293C34.5648 4.99316 34.8089 5.74023 34.8089 6.77051V12H33.6077V6.85107C33.6077 6.18213 33.4539 5.68164 33.1463 5.34961C32.8436 5.01758 32.3773 4.85156 31.7474 4.85156C30.8587 4.85156 30.2337 5.10303 29.8724 5.60596C29.5111 6.10889 29.3304 6.83887 29.3304 7.7959V12H28.1146V3.97266H29.096L29.2791 5.12988H29.345C29.5159 4.84668 29.7332 4.60986 29.9969 4.41943C30.2606 4.22412 30.556 4.07764 30.8831 3.97998C31.2103 3.87744 31.5545 3.82617 31.9158 3.82617Z" fill="black"/>
</svg>
