<svg version="1.2" xmlns="http://www.w3.org/2000/svg" viewBox="0 0 840 412" width="840" height="412">
	<title>9544552_4208919-ai</title>
	<defs>
		<linearGradient id="g1" x1="505.5" y1="158.3" x2="390.4" y2="434.2" gradientUnits="userSpaceOnUse">
			<stop offset="0" stop-color="#9f1efb"/>
			<stop offset="1" stop-color="#7a17bf"/>
		</linearGradient>
		<linearGradient id="g2" x1="408.6" y1="48.1" x2="413.6" y2="82.3" gradientUnits="userSpaceOnUse">
			<stop offset="0" stop-color="#9f1efb"/>
			<stop offset="1" stop-color="#541085"/>
		</linearGradient>
		<linearGradient id="g3" x1="-33.9" y1="265.3" x2="63.8" y2="49.2" gradientUnits="userSpaceOnUse">
			<stop offset="0" stop-color="#e974fc" stop-opacity="1"/>
			<stop offset="1" stop-color="#e974fc" stop-opacity="0"/>
		</linearGradient>
		<linearGradient id="g4" x1="360.2" y1="86.7" x2="415.5" y2="66.2" gradientUnits="userSpaceOnUse">
			<stop offset="0" stop-color="#e974fc" stop-opacity="1"/>
			<stop offset="1" stop-color="#e974fc" stop-opacity="0"/>
		</linearGradient>
		<linearGradient id="g5" x1="303.4" y1="145.1" x2="303.4" y2="108.2" gradientUnits="userSpaceOnUse">
			<stop offset="0" stop-color="#9f1efb"/>
			<stop offset="1" stop-color="#541085"/>
		</linearGradient>
		<linearGradient id="g6" x1="-87.9" y1="204.3" x2="141.1" y2="-4" gradientUnits="userSpaceOnUse">
			<stop offset="0" stop-color="#e974fc" stop-opacity="1"/>
			<stop offset="1" stop-color="#e974fc" stop-opacity="0"/>
		</linearGradient>
		<linearGradient id="g7" x1="437.6" y1="208.8" x2="435.7" y2="318.8" gradientUnits="userSpaceOnUse">
			<stop offset="0" stop-color="#f9532c"/>
			<stop offset="1" stop-color="#ff9948"/>
		</linearGradient>
		<linearGradient id="g8" x1="284.1" y1="221.1" x2="164.2" y2="334.6" gradientUnits="userSpaceOnUse">
			<stop offset="0" stop-color="#f9532c"/>
			<stop offset="1" stop-color="#ff9948"/>
		</linearGradient>
	</defs>
	<style>
		.s0 { fill: url(#g1) } 
		.s1 { fill: url(#g2) } 
		.s2 { fill: url(#g3) } 
		.s3 { fill: url(#g4) } 
		.s4 { fill: url(#g5) } 
		.s5 { fill: url(#g6) } 
		.s6 { fill: url(#g7) } 
		.s7 { opacity: .3;mix-blend-mode: color-dodge;fill: #ff9948 } 
		.s8 { fill: url(#g8) } 
		.s9 { fill: #7a17bf } 
		.s10 { fill: #ff9948 } 
		.s11 { fill: #f9532c } 
	</style>
	<g id="OBJECTS">
		<g id="&lt;Group&gt;">
			<g id="&lt;Group&gt;">
				<g id="&lt;Group&gt;">
					<path id="&lt;Path&gt;" class="s0" d="m425 96.9c0 11-16.6 18.7-34.2 17.3l-20.1-1.6-17.7 50.6c-1.7 5-6.4 8.3-11.7 8.4l-7.1 0.1-0.6-60.1c-93.3 21.9-158.3 114.7-163.3 181.9-5.5 73.8 69.7 73.8 69.7 73.8-64.9 60.7-181.5 4.9-104.2-128.6 51.7-89.2 133.1-122.5 178.2-133.7q0.1 0 0.1-0.1c0.8-0.2 1.3-0.9 1.1-1.7-0.2-0.8-0.9-1.3-1.7-1.2h-0.1q0 0-0.1 0.1c-32.1 5.8-63.5 16.2-93.3 30 29.1-15.1 60.1-27.1 92.4-34.5q0.1-0.1 0.1-0.1c0.7-0.1 1.2-0.7 1.1-1.4-0.1-0.8-0.8-1.3-1.5-1.2q-0.1 0-0.2 0c-97.1 14.6-208.9 69.9-243.8 141.7-39.3 81 17.3 137.5 17.3 137.5-54.5-35.3-88.3-142.7 34.5-223.7 88.7-58.4 158.3-63.5 206.2-66.5l7.2 0.1-0.8-63.7 7.1-0.1c5.3 0 10 3.2 11.9 8.2l19.7 52.7 19.6-1.6q2.1-0.2 4.1-0.2c16 0 30.1 7.4 30.1 17.6z"/>
					<path id="&lt;Path&gt;" class="s1" d="m371.2 81.1l-19.7-52.7c-1.9-5-6.6-8.2-11.9-8.2l-7.1 0.1 0.8 63.7c0 0 17.3-2.2 37.9-2.9z"/>
					<path id="&lt;Path&gt;" class="s2" d="m170.3 293.5c5-67.2 70-160 163.3-181.9 0 0-126 14.2-183 150.8-22.1 52.9-6.5 98.7 44.9 127.9 15.6-2.9 31.1-10.5 44.5-23 0 0-75.2 0-69.7-73.8z"/>
					<path id="&lt;Path&gt;" class="s3" d="m425 96.9c0 11-16.6 18.7-34.2 17.3l-20.1-1.6c-10.9-0.1-28-0.7-34.5-0.9q-0.2-0.1-0.4-0.1-1-0.1-2.2 0c21.3-1.2 91.1-7 76.8-29.8 8.6 3 14.6 8.4 14.6 15.1z"/>
					<path id="&lt;Path&gt;" class="s4" d="m333.6 111.6l0.6 60.1 7.1-0.1c5.3-0.1 10-3.4 11.7-8.4l17.7-50.6c-13.6-0.1-37.1-1-37.1-1z"/>
					<path id="&lt;Path&gt;" class="s5" d="m85.4 374.1c0 0-56.6-56.5-17.3-137.5 34.9-71.8 146.7-127.1 243.8-141.7q0.1 0 0.2 0c0 0-114.4 9.1-186.3 65.4-71.9 56.3-77.6 97.3-76.6 146.3 0.5 24.5 17.9 48.7 35.1 66.8q0.6 0.3 1.1 0.7z"/>
				</g>
				<g id="&lt;Group&gt;">
					<path id="&lt;Path&gt;" class="s6" d="m254.3 166.5c0 0-68.8 53.2-70.2 127-1.4 73.8 64.9 70.4 84.9 44.2 0 0-57.2-2.9-53.9-68.4 3.4-65.4 39.2-102.8 39.2-102.8z"/>
					<path id="&lt;Path&gt;" class="s7" d="m251.4 169.9c-14.8 17.6-79.5 101.3-45.8 177.3 20.8 14.2 51 6.7 63.4-9.5 0 0-57.2-2.9-53.9-68.4 2.8-54 27.7-88.9 36.3-99.4z"/>
				</g>
				<g id="&lt;Group&gt;">
					<path id="&lt;Path&gt;" class="s8" d="m27.3 274.9c0 0-5.4-145.5 247.9-195.6 0 0-146.8 13.3-205.6 81.7-55.2 64.2-42.3 113.9-42.3 113.9z"/>
					<path id="&lt;Path&gt;" class="s7" d="m27.3 274.9c0 0-4.1-111.7 165.2-173-49.9 12.6-87.7 31.6-116.1 51.8q-3.6 3.5-6.8 7.3c-55.2 64.2-42.3 113.9-42.3 113.9z"/>
				</g>
			</g>
			<g id="&lt;Group&gt;">
				<path id="TRAVELGO
" class="s9" aria-label="TRAVELGO"  d="m332.1 216.6q0.6 0 1 0.5 0.4 0.3 0.4 0.9v8.7q0 0.6-0.4 1-0.4 0.4-1 0.4h-20.8q-0.6 0-0.6 0.6v65.9q0 0.6-0.4 1.1-0.4 0.3-0.9 0.3h-10.5q-0.5 0-1-0.3-0.3-0.5-0.3-1.1v-65.9q0-0.6-0.6-0.6h-20.1q-0.5 0-1-0.4-0.3-0.4-0.3-1v-8.7q0-0.6 0.3-0.9 0.5-0.5 1-0.5zm58.1 79.4q-1.2 0-1.6-1l-15-32.7q-0.2-0.4-0.7-0.4h-13.6q-0.5 0-0.5 0.5v32.2q0 0.6-0.5 1.1-0.3 0.3-0.9 0.3h-10.4q-0.6 0-1-0.3-0.4-0.5-0.4-1.1v-76.6q0-0.6 0.4-0.9 0.4-0.5 1-0.5h31.2q6.9 0 12.2 3 5.3 2.8 8.3 8.1 2.9 5.3 2.9 12.1 0 7.8-4 13.3-4 5.5-11.2 7.6-0.2 0-0.3 0.3-0.1 0.2 0 0.4l16 33q0.2 0.5 0.2 0.7 0 0.9-1.2 0.9zm-30.9-68q-0.5 0-0.5 0.5v22.6q0 0.6 0.5 0.6h17q5.5 0 8.8-3.2 3.4-3.3 3.4-8.6 0-5.4-3.4-8.6-3.3-3.3-8.8-3.3zm107.6 68q-1.1 0-1.4-1.1l-3.8-12.2q-0.2-0.4-0.6-0.4h-29.9q-0.3 0-0.6 0.4l-3.7 12.2q-0.3 1.1-1.5 1.1h-11.3q-0.7 0-1-0.3-0.4-0.5-0.1-1.3l24.6-76.6q0.3-1.2 1.4-1.2h14.2q1.1 0 1.5 1.2l24.7 76.6q0.1 0.2 0.1 0.6 0 1-1.2 1zm-32.8-24.7q-0.1 0.7 0.5 0.7h23q0.6 0 0.4-0.7l-11.7-38q-0.1-0.5-0.3-0.5-0.2 0-0.3 0.5zm74.2 24.7q-1.1 0-1.4-1.1l-23.9-76.7-0.1-0.4q0-1.1 1.3-1.1h11.2q1.2 0 1.6 1.1l17 59.2q0.1 0.3 0.3 0.3 0.3 0 0.4-0.3l16.9-59.2q0.3-1.1 1.6-1.1h11q0.6 0 1 0.4 0.3 0.5 0.1 1.1l-24.2 76.7q-0.3 1.1-1.4 1.1zm101.3-69.4q0 0.6-0.4 1.1-0.4 0.3-0.9 0.3h-38.7q-0.6 0-0.6 0.6v21.2q0 0.5 0.6 0.5h26q0.5 0 0.9 0.5 0.4 0.3 0.4 0.9v8.6q0 0.6-0.4 1-0.4 0.4-0.9 0.4h-26q-0.6 0-0.6 0.5v21.9q0 0.6 0.6 0.6h38.7q0.5 0 0.9 0.4 0.4 0.4 0.4 0.9v8.7q0 0.5-0.4 1-0.4 0.3-0.9 0.3h-51.1q-0.5 0-1-0.3-0.3-0.5-0.3-1v-76.7q0-0.6 0.3-0.9 0.5-0.4 1-0.4h51.1q0.5 0 0.9 0.4 0.4 0.3 0.4 0.9zm14.8 69.4q-0.6 0-1.1-0.3-0.3-0.5-0.3-1.1v-76.6q0-0.6 0.3-0.9 0.5-0.5 1.1-0.5h10.4q0.6 0 0.9 0.5 0.5 0.3 0.5 0.9v66.1q0 0.6 0.5 0.6h38q0.6 0 0.9 0.4 0.5 0.4 0.5 0.9v8.6q0 0.6-0.5 1.1-0.3 0.3-0.9 0.3z"/>
				<path id="TRAVELGO
" class="s10" aria-label="TRAVELGO"  d="m713.8 296.9q-8.5 0-15-3.3-6.5-3.4-10-9.5-3.5-6.1-3.5-14.1v-27.4q0-8.1 3.5-14.1 3.5-6.1 10-9.4 6.5-3.4 15-3.4 8.4 0 14.7 3.3 6.5 3.3 10 9 3.5 5.6 3.5 12.8v0.9q0 0.6-0.4 1-0.4 0.4-1 0.4h-10.3q-0.5 0-1-0.4-0.3-0.4-0.3-1v-0.6q0-6.1-4.2-10.1-4.1-3.9-11-3.9-6.9 0-11.1 4.2-4.2 4-4.2 10.8v28.4q0 6.8 4.4 11 4.4 4.1 11.4 4.1 6.8 0 10.7-3.5 4-3.7 4-9.9v-7q0-0.6-0.6-0.6h-13.9q-0.6 0-1.1-0.3-0.3-0.5-0.3-1.1v-8.4q0-0.5 0.3-0.9 0.5-0.4 1.1-0.4h26.1q0.6 0 1 0.4 0.4 0.4 0.4 0.9v14.6q0 13-7.7 20.3-7.6 7.2-20.5 7.2zm69.8 0.2q-8.5 0-15.1-3.4-6.5-3.5-10.2-9.8-3.5-6.4-3.5-14.7v-25.8q0-8.2 3.6-14.4 3.7-6.4 10.1-9.8 6.6-3.5 15.1-3.5 8.6 0 15.1 3.5 6.6 3.4 10.2 9.8 3.6 6.2 3.6 14.4v25.8q0 8.3-3.6 14.7-3.6 6.3-10.2 9.8-6.5 3.4-15.1 3.4zm0-11.3q7.2 0 11.5-4.4 4.3-4.4 4.3-11.7v-26.4q0-7.4-4.3-11.8-4.3-4.4-11.5-4.4-7 0-11.3 4.4-4.3 4.4-4.3 11.8v26.4q0 7.3 4.3 11.7 4.3 4.4 11.3 4.4z"/>
				<path id="SLOGAN COMPANY HERE
" class="s11" aria-label="SLOGAN COMPANY HERE"  d="m396.8 338.2q-2.2 0-3.8-0.7-1.6-0.6-2.5-1.9-0.9-1.3-0.9-3v-0.8q0-0.3 0.3-0.3h2.1q0.3 0 0.3 0.3v0.7q0 1.4 1.2 2.4 1.3 0.9 3.5 0.9 2 0 3-0.8 1-0.8 1-2.2 0-0.9-0.5-1.5-0.5-0.6-1.5-1.1-1-0.6-2.9-1.3-2.1-0.8-3.3-1.5-1.2-0.7-2-1.7-0.8-1.1-0.8-2.8 0-2.4 1.7-3.8 1.8-1.4 4.8-1.4 2.1 0 3.7 0.7 1.7 0.7 2.5 2 0.9 1.3 0.9 3v0.5q0 0.3-0.3 0.3h-2.1q-0.3 0-0.3-0.3v-0.4q0-1.5-1.2-2.5-1.2-1-3.3-1-1.8 0-2.8 0.8-0.9 0.7-0.9 2.1 0 0.9 0.4 1.5 0.5 0.6 1.5 1.1 1 0.5 2.9 1.2 2.1 0.8 3.3 1.5 1.3 0.7 2.1 1.8 0.9 1.1 0.9 2.7 0 2.6-1.9 4.1-1.8 1.4-5.1 1.4zm11-0.2q-0.3 0-0.3-0.3v-19.5q0-0.3 0.3-0.3h2.2q0.3 0 0.3 0.3v17.3q0 0.1 0.1 0.1h9.9q0.3 0 0.3 0.3v1.8q0 0.3-0.3 0.3zm22.5 0.3q-2.1 0-3.7-0.9-1.6-0.9-2.5-2.4-0.9-1.6-0.9-3.6v-6.9q0-2 0.9-3.6 0.9-1.5 2.5-2.4 1.6-0.8 3.7-0.8 2.1 0 3.7 0.8 1.6 0.9 2.5 2.4 0.9 1.6 0.9 3.6v6.9q0 2-0.9 3.6-0.9 1.5-2.5 2.4-1.6 0.9-3.7 0.9zm0-2.4q2 0 3.2-1.2 1.2-1.2 1.2-3.2v-7q0-2-1.2-3.2-1.2-1.3-3.2-1.3-2 0-3.2 1.3-1.1 1.2-1.1 3.2v7q0 2 1.1 3.2 1.2 1.2 3.2 1.2zm17.8 2.3q-2.1 0-3.7-0.8-1.6-0.8-2.5-2.3-0.8-1.5-0.8-3.5v-7.3q0-2 0.8-3.5 0.9-1.5 2.5-2.3 1.6-0.8 3.7-0.8 2.1 0 3.6 0.8 1.6 0.8 2.5 2.2 0.9 1.4 0.9 3.2v0.3q0 0.3-0.3 0.3h-2.2q-0.3 0-0.3-0.3v-0.3q0-1.7-1.2-2.7-1.1-1.1-3-1.1-1.9 0-3.1 1.1-1.2 1.1-1.2 3v7.5q0 1.9 1.2 3 1.3 1.1 3.2 1.1 1.9 0 3-1 1.1-1 1.1-2.7v-2.2q0-0.1-0.1-0.1h-3.9q-0.3 0-0.3-0.3v-1.8q0-0.3 0.3-0.3h6.5q0.3 0 0.3 0.3v3.7q0 3.3-1.9 5-1.9 1.8-5.1 1.8zm23.2-0.2q-0.3 0-0.4-0.2l-1-3.4q0-0.1-0.1-0.1h-8.1q-0.1 0-0.1 0.1l-1 3.4q-0.1 0.2-0.4 0.2h-2.3q-0.3 0-0.2-0.3l6.3-19.6q0-0.2 0.3-0.2h2.9q0.2 0 0.3 0.2l6.4 19.6v0.1q0 0.2-0.3 0.2zm-8.9-6q-0.1 0.1 0 0.1 0 0 0.1 0h6.6q0.1 0 0.1 0 0 0 0-0.1l-3.3-10.7q0 0-0.1 0-0.1 0-0.1 0zm26.7-13.8q0-0.3 0.3-0.3h2.2q0.3 0 0.3 0.3v19.6q0 0.2-0.3 0.2h-2.1q-0.2 0-0.4-0.2l-9-14.6q0-0.1 0-0.1-0.1 0-0.1 0.1v14.6q0 0.2-0.3 0.2h-2.1q-0.3 0-0.3-0.2v-19.6q0-0.3 0.3-0.3h2.1q0.2 0 0.3 0.2l9 14.7q0 0.1 0.1 0.1 0 0 0-0.1zm19.8 20.1q-2.1 0-3.7-0.8-1.6-0.9-2.5-2.4-0.9-1.5-0.9-3.4v-7.5q0-1.9 0.9-3.4 0.9-1.5 2.5-2.3 1.6-0.8 3.7-0.8 2 0 3.6 0.8 1.6 0.7 2.4 2.2 0.9 1.4 0.9 3.3 0 0.2-0.1 0.3 0 0.1-0.2 0.1l-2.1 0.1q-0.3 0-0.3-0.3v-0.1q0-1.8-1.2-2.9-1.1-1.2-3-1.2-2 0-3.2 1.2-1.1 1.1-1.1 2.9v7.7q0 1.8 1.1 2.9 1.2 1.2 3.2 1.2 1.9 0 3-1.2 1.2-1.1 1.2-2.9v-0.1q0-0.2 0.3-0.2l2.1 0.1q0.3 0 0.3 0.3 0 1.9-0.9 3.3-0.8 1.5-2.4 2.3-1.6 0.8-3.6 0.8zm17.5 0q-2.1 0-3.7-0.9-1.6-0.9-2.5-2.4-0.9-1.6-0.9-3.6v-6.9q0-2 0.9-3.6 0.9-1.5 2.5-2.4 1.6-0.8 3.7-0.8 2.1 0 3.7 0.8 1.6 0.9 2.5 2.4 0.9 1.6 0.9 3.6v6.9q0 2-0.9 3.6-0.9 1.5-2.5 2.4-1.6 0.9-3.7 0.9zm0-2.4q1.9 0 3.1-1.2 1.3-1.2 1.3-3.2v-7q0-2-1.3-3.2-1.2-1.3-3.1-1.3-2 0-3.2 1.3-1.2 1.2-1.2 3.2v7q0 2 1.2 3.2 1.2 1.2 3.2 1.2zm24.3-17.8q0.2-0.2 0.4-0.2h2.2q0.2 0 0.2 0.3v19.5q0 0.3-0.2 0.3h-2.2q-0.3 0-0.3-0.3v-14.7q0-0.1-0.1-0.1 0 0-0.1 0l-4.1 6.3q-0.1 0.2-0.3 0.2h-1.1q-0.2 0-0.4-0.2l-4.1-6.2q0-0.1-0.1-0.1 0 0.1 0 0.2v14.6q0 0.3-0.3 0.3h-2.2q-0.3 0-0.3-0.3v-19.5q0-0.3 0.3-0.3h2.2q0.2 0 0.3 0.2l5.1 7.5q0 0 0 0 0.1 0 0.1 0zm15.4-0.2q1.8 0 3.1 0.7 1.4 0.8 2.1 2.1 0.7 1.3 0.7 3 0 1.8-0.7 3-0.8 1.3-2.2 2.1-1.3 0.7-3.1 0.7h-5q-0.2 0-0.2 0.1v8.2q0 0.2-0.2 0.2h-2.2q-0.3 0-0.3-0.2v-19.6q0-0.3 0.3-0.3zm-0.4 9.3q1.6 0 2.5-0.9 1-1 1-2.5 0-1.6-1-2.5-0.9-1-2.5-1h-4.8q-0.1 0-0.1 0.1v6.7q0 0.1 0.1 0.1zm20.7 10.8q-0.2 0-0.3-0.2l-1-3.4q-0.1 0-0.2 0h-8q-0.1 0-0.1 0l-1.1 3.4q-0.1 0.2-0.3 0.2h-2.3q-0.4 0-0.3-0.3l6.3-19.5q0.1-0.3 0.4-0.3h2.8q0.3 0 0.4 0.3l6.3 19.5 0.1 0.1q0 0.2-0.3 0.2zm-9-6q0 0.1 0 0.1 0.1 0.1 0.1 0.1h6.7q0 0 0-0.1 0.1 0 0.1-0.1l-3.4-10.6q0-0.1 0-0.1-0.1 0-0.1 0.1zm26.7-13.9q0-0.2 0.3-0.2h2.1q0.3 0 0.3 0.2v19.6q0 0.3-0.3 0.3h-2.1q-0.2 0-0.3-0.2l-9-14.7q0-0.1-0.1-0.1 0 0 0 0.1v14.6q0 0.3-0.3 0.3h-2.2q-0.3 0-0.3-0.3v-19.6q0-0.2 0.3-0.2h2.1q0.2 0 0.4 0.2l9 14.6q0 0.1 0 0.1 0.1 0 0.1-0.1zm12.4 19.8q-0.2 0-0.2-0.3v-8q0-0.2-0.1-0.2l-6-11.2q0-0.1 0-0.2 0-0.2 0.2-0.2h2.4q0.3 0 0.3 0.2l4.4 8.5q0.1 0 0.1 0 0.1 0 0.1 0l4.4-8.5q0.1-0.2 0.4-0.2h2.3q0.2 0 0.2 0.1 0.1 0.1 0 0.3l-6 11.2q0 0 0 0.2v8q0 0.3-0.3 0.3zm28.8-19.8q0-0.3 0.3-0.3h2.2q0.3 0 0.3 0.3v19.6q0 0.2-0.3 0.2h-2.2q-0.3 0-0.3-0.2v-8.6q0-0.1-0.1-0.1h-8.2q-0.1 0-0.1 0.1v8.6q0 0.2-0.3 0.2h-2.2q-0.3 0-0.3-0.2v-19.6q0-0.3 0.3-0.3h2.2q0.3 0 0.3 0.3v8.4q0 0.1 0.1 0.1h8.2q0.1 0 0.1-0.1zm20.7 1.8q0 0.3-0.2 0.3h-10.2q-0.2 0-0.2 0.1v6.2q0 0.1 0.2 0.1h7q0.3 0 0.3 0.3v1.8q0 0.3-0.3 0.3h-7q-0.2 0-0.2 0.1v6.3q0 0.2 0.2 0.2h10.2q0.2 0 0.2 0.2v1.9q0 0.2-0.2 0.2h-12.8q-0.3 0-0.3-0.2v-19.6q0-0.3 0.3-0.3h12.8q0.2 0 0.2 0.3zm15.3 18q-0.2 0-0.3-0.2l-4-8.6q0-0.1-0.1-0.1h-4.2q-0.1 0-0.1 0.2v8.4q0 0.3-0.3 0.3h-2.1q-0.3 0-0.3-0.3v-19.5q0-0.3 0.3-0.3h7.7q1.7 0 3 0.7 1.3 0.7 2 2 0.8 1.3 0.8 3 0 2-1.1 3.4-1 1.4-2.9 1.9-0.1 0.1-0.1 0.2l4.2 8.6q0 0 0 0.1 0 0.2-0.2 0.2zm-8.6-17.7q-0.1 0-0.1 0.1v6.4q0 0.2 0.1 0.2h4.8q1.5 0 2.4-0.9 1-0.9 1-2.4 0-1.6-1-2.5-0.9-0.9-2.4-0.9zm28.1-0.3q0 0.3-0.3 0.3h-10.2q-0.1 0-0.1 0.1v6.2q0 0.1 0.1 0.1h7q0.3 0 0.3 0.3v1.8q0 0.3-0.3 0.3h-7q-0.1 0-0.1 0.1v6.3q0 0.1 0.1 0.1h10.2q0.3 0 0.3 0.3v1.8q0 0.3-0.3 0.3h-12.8q-0.3 0-0.3-0.3v-19.5q0-0.3 0.3-0.3h12.8q0.3 0 0.3 0.3z"/>
			</g>
		</g>
	</g>
</svg>