<svg width="124" height="40" viewBox="0 0 124 40" fill="none" xmlns="http://www.w3.org/2000/svg">
<path d="M36.864 19.783C36.864 24.155 35.1537 28.124 32.4049 31.0698C29.4729 34.2326 25.3192 36.1861 20.7074 36.1861C16.6759 36.1861 12.9803 34.6667 10.1399 32.1861C7.23842 29.6434 5.2532 26.1085 4.70344 22.0775C4.60164 21.3333 4.55074 20.5685 4.55074 19.783C4.55074 19.7209 4.55074 19.6589 4.55074 19.5969C4.55074 19.5349 4.55074 19.4832 4.55074 19.4419C5.58916 18.9147 6.90246 18.7597 8.06305 18.8837C10.0788 19.1318 12.003 19.938 14.0187 19.845C16.6759 19.7209 18.997 18.0465 21.5931 17.4264C23.9754 16.8372 26.5714 17.1783 28.7399 18.3566C29.3813 18.6977 30.0227 19.1318 30.7557 19.3178C31.4887 19.5039 32.3744 19.3178 32.7714 18.6977C33.1379 18.1395 33.0463 17.4264 33.1379 16.7752C33.3517 15.3799 34.4512 14.2326 35.7951 13.8915C35.7951 13.8915 35.7951 13.9018 35.7951 13.9225C36.467 15.7209 36.864 17.7054 36.864 19.783Z" fill="#FF8D45"/>
<path d="M35.7951 13.9225C35.0315 14.2016 34.3596 14.7597 33.8709 15.4109C33.0158 16.5582 32.6187 18.0155 32.7409 19.4109C31.2545 19.1008 29.7681 18.7804 28.2818 18.4496C26.8768 18.1706 25.3497 17.7675 24.5251 16.5892C22.0818 19.4109 19.2108 21.7365 16.0345 23.4419C16.4315 23.721 16.8897 24.0621 16.8897 24.5272C16.8897 25.0853 16.3399 25.4264 15.8818 25.6124C14.6296 26.1396 13.3468 26.5117 12.003 26.6667C12.2066 26.0259 12.4102 25.3851 12.6138 24.7442C9.7734 25.2093 6.74975 24.1551 4.70344 22.0776C4.60164 21.3334 4.55074 20.5685 4.55074 19.783C4.55074 18.3876 4.70344 17.0543 5.00886 15.783C6.47487 9.8605 11.1172 5.20934 16.9813 3.81399C18.1724 3.50391 19.4246 3.37988 20.7074 3.37988C23.2424 3.37988 25.6246 3.96903 27.7626 5.02329C29.8699 6.04655 31.6719 7.53492 33.1379 9.30236C34.268 10.6667 35.1537 12.2171 35.7951 13.9225Z" fill="#C2B9EA"/>
<path d="M28.5872 8.49622C26.5103 9.39544 25.0443 11.597 24.9527 13.8606C24.8916 14.8838 25.1054 15.9071 25.6552 16.7443C26.2049 17.5505 27.1212 18.1706 28.1291 18.1706C29.1064 18.2016 30.1143 17.6125 30.5724 16.7133" fill="#C2B9EA"/>
<g opacity="0.6">
<path d="M28.6177 8.55823C27.0601 9.02334 26.1133 10.5117 25.3803 11.8761C24.8305 12.6823 25.136 13.5815 25.7773 14.1706C25.4414 11.752 27.2128 9.79854 28.6177 8.55823Z" fill="white"/>
</g>
<path d="M28.6177 8.55824C28.4956 8.71328 28.3734 8.8063 28.2512 8.89932C28.1902 8.96134 28.1291 9.01302 28.068 9.05436L27.9764 9.11638L27.8847 9.17839C27.8033 9.24041 27.732 9.29209 27.6709 9.33343C27.6099 9.37477 27.5488 9.42645 27.4877 9.48847C27.4266 9.52981 27.3655 9.57116 27.3044 9.6125L27.1212 9.76754C26.6631 10.2016 26.266 10.6978 25.9606 11.2559C25.6552 11.8141 25.4414 12.4032 25.3192 13.0234C25.1971 13.6435 25.1665 14.2947 25.2581 14.9148C25.2989 15.2249 25.3803 15.5246 25.5025 15.8141C25.5941 16.0931 25.7468 16.3722 25.9301 16.6203C26.266 17.1474 26.7547 17.5195 27.3044 17.7365C27.4571 17.7985 27.5793 17.8606 27.732 17.8606C27.8237 17.8916 27.8847 17.8916 27.9458 17.8916L28.068 17.9226C28.1087 17.9226 28.1494 17.9226 28.1902 17.9226H28.2818C28.3225 17.9226 28.3632 17.9122 28.4039 17.8916C28.465 17.8916 28.5261 17.8916 28.6177 17.8606C28.7603 17.8399 28.9028 17.7985 29.0453 17.7365C29.1675 17.6952 29.2998 17.6332 29.4424 17.5505C29.5035 17.5091 29.5544 17.4678 29.5951 17.4265C29.6358 17.4058 29.6663 17.3748 29.6867 17.3334L29.7783 17.2714L30.0838 16.9613C30.2059 16.8683 30.2975 16.7443 30.4503 16.6513L30.5724 16.5892C30.5724 16.5892 30.603 16.5892 30.6335 16.6203V16.6513C30.664 16.7133 30.6335 16.7753 30.5724 16.7753C30.5521 16.796 30.5317 16.796 30.5113 16.7753H30.4808L30.664 16.7443C30.664 16.7856 30.6539 16.8373 30.6335 16.8993C30.6335 16.92 30.6335 16.9407 30.6335 16.9613C30.6335 16.982 30.6233 17.0027 30.603 17.0234C30.603 17.0647 30.5928 17.106 30.5724 17.1474C30.5521 17.1887 30.5317 17.2301 30.5113 17.2714C30.4503 17.3644 30.3892 17.4265 30.3281 17.4885C30.267 17.5712 30.2059 17.6435 30.1448 17.7055L30.0227 17.7675C30.0023 17.8089 29.9718 17.8399 29.931 17.8606C29.8496 17.9019 29.7783 17.9433 29.7172 17.9846C29.5544 18.088 29.3915 18.1706 29.2286 18.2327C29.0657 18.3153 28.8926 18.367 28.7094 18.3877C28.6177 18.4187 28.5261 18.4187 28.4345 18.4497C28.3938 18.4497 28.353 18.4497 28.3123 18.4497H28.1596C28.1189 18.4497 28.0782 18.4497 28.0374 18.4497C27.9967 18.4497 27.956 18.4497 27.9153 18.4497C27.8237 18.4187 27.732 18.4187 27.6404 18.3877C27.4571 18.3567 27.3044 18.2947 27.1212 18.2327C26.7954 18.1086 26.49 17.9329 26.2049 17.7055C26.0624 17.6022 25.9301 17.4885 25.8079 17.3644C25.7061 17.2197 25.6043 17.075 25.5025 16.9303C25.2887 16.6513 25.136 16.3412 25.0138 16.0001C24.8916 15.6693 24.8 15.3283 24.7389 14.9768C24.6473 14.2947 24.6473 13.6125 24.8 12.9303C24.9222 12.2482 25.1665 11.597 25.5025 11.0078C25.5228 10.9665 25.5432 10.9252 25.5636 10.8838L25.6552 10.7598L25.7773 10.5427C25.8181 10.4807 25.869 10.4187 25.9301 10.3567C25.9708 10.274 26.0217 10.2016 26.0828 10.1396C26.2864 9.8709 26.5104 9.6125 26.7547 9.36444L26.9379 9.17839C27.0194 9.13705 27.0906 9.08537 27.1517 9.02335L27.2434 8.96134C27.2841 8.91999 27.3248 8.88899 27.3655 8.86831C27.4266 8.82697 27.4979 8.78563 27.5793 8.74428L27.6709 8.65126C27.7117 8.63059 27.7524 8.62025 27.7931 8.62025C27.8746 8.57891 27.956 8.53756 28.0374 8.49622C28.0985 8.46521 28.1902 8.46521 28.2818 8.43421C28.3632 8.41353 28.4447 8.4032 28.5261 8.4032C28.5872 8.4032 28.6483 8.43421 28.6483 8.49622C28.6483 8.51689 28.6381 8.53757 28.6177 8.55824Z" fill="#000072"/>
<path d="M25.3803 17.7055C26.266 17.2714 27.335 17.5504 28.2512 17.9845C29.137 18.4186 29.9921 19.0388 30.9695 19.2248C31.733 19.3799 32.5271 19.2869 33.3212 19.3799C34.0847 19.4729 34.9094 19.814 35.2453 20.5272C35.6118 21.2714 35.2759 22.2016 34.665 22.7597C34.0542 23.3179 33.2296 23.5349 32.4049 23.6589C30.5113 23.938 28.5567 23.6589 26.8463 22.7907C25.8995 22.3256 25.0138 21.6124 24.5862 20.6512C24.1892 19.6589 24.3419 18.2636 25.3803 17.7055Z" fill="#A34319"/>
<g opacity="0.6">
<path d="M35.9172 14.0465C32.9547 14.3256 33.3823 17.3023 32.4049 19.3178C32.6493 19.4005 32.9038 19.4419 33.1685 19.4419C33.535 18.1395 33.5044 16.8682 34.0542 15.6589C34.4207 14.9767 35.3064 14.4806 35.9172 14.0465Z" fill="white"/>
</g>
<g opacity="0.6">
<path d="M26.6325 18.1396C28.2207 18.0155 28.801 19.0698 30.2059 19.5659C31.7941 20.0931 33.4128 19.2248 35.4591 20.5582C34.4207 18.8838 32.8631 19.4729 31.2443 19.1938C29.6867 18.6047 28.2207 17.7055 26.5714 17.3024C26.6631 17.6435 26.6325 17.9845 26.6325 18.1396Z" fill="white"/>
</g>
<path fill-rule="evenodd" clip-rule="evenodd" d="M31 24.0311C29.4729 24.0311 28.0069 23.69 26.7241 23.0388C25.533 22.4497 24.7389 21.6745 24.3724 20.7442C23.8837 19.5969 24.0975 18.0776 25.2581 17.4884C26.2966 16.9613 27.5182 17.3334 28.3734 17.7365C28.6177 17.8605 28.8926 18.0155 29.1369 18.1706C29.7783 18.5117 30.3586 18.8218 31.0305 18.9768C31.4581 19.0698 31.8857 19.0698 32.3438 19.0698C32.6798 19.0698 33.0158 19.0698 33.3517 19.1318C34.3596 19.2249 35.1537 19.721 35.4897 20.4031C35.9172 21.3024 35.4897 22.3876 34.8483 22.9768C34.268 23.4729 33.535 23.783 32.466 23.938C31.9773 24 31.4887 24.0311 31 24.0311ZM26.3882 17.7365C26.0828 17.7365 25.7773 17.7985 25.4719 17.9535C24.6168 18.4187 24.464 19.659 24.8305 20.5272C25.1665 21.3334 25.8995 22.0156 26.9685 22.5737C28.5567 23.3799 30.4808 23.69 32.3744 23.4109C33.3517 23.2559 34.0236 23.0078 34.4818 22.5737C34.9704 22.1396 35.3369 21.3024 35.001 20.6512C34.665 19.876 33.6877 19.69 33.2906 19.659C32.9852 19.628 32.6493 19.5969 32.3438 19.5969C31.8552 19.5969 31.397 19.5969 30.9389 19.5039C30.1754 19.3489 29.534 18.9768 28.8926 18.6357C28.6483 18.4807 28.4039 18.3566 28.1291 18.2326C27.6404 17.9845 27.0296 17.7365 26.3882 17.7365Z" fill="#000072"/>
<path d="M34.2985 28.6202C32.2522 27.721 30.8778 27.3179 29.534 26.9148C28.1291 26.5117 26.6936 26.1086 25.533 25.2714C24.3419 24.4032 23.3951 23.0388 23.4562 21.5504C23.4867 20.8373 23.7921 20.0931 24.403 19.659C24.403 19.6383 24.4131 19.628 24.4335 19.628C25.2887 19.0388 26.4493 19.2869 27.3655 19.752C28.3123 20.2481 29.1064 20.9303 30.1143 21.2404C31.4276 21.6745 32.9547 21.3954 34.1458 22.0776C34.3902 22.2223 34.6141 22.398 34.8177 22.6047C35.4897 23.2869 35.8562 24.2791 35.8867 25.2714C35.8867 25.3127 35.8867 25.3541 35.8867 25.3954" fill="#FF8D45"/>
<g opacity="0.2">
<path d="M34.2374 22.1707C34.8483 23.1009 34.8788 24.3722 34.4512 25.4265C34.0237 26.4497 33.3823 27.442 32.4355 28.0621C31.4887 28.6823 30.0532 27.8451 29.0148 28.2172C27.7015 28.6823 26.4798 29.8916 25.1054 29.9536C23.731 29.9846 22.4177 29.9226 21.4099 28.9924C21.0434 30.0673 20.6769 31.1422 20.3103 32.2172C22.8453 31.1629 23.67 31.7521 27.5793 29.3955C28.1291 29.0544 29.2591 28.4342 29.9921 28.3412C30.6946 28.2792 31.4887 28.4342 32.0384 28.9303C32.5576 29.4265 32.7409 30.3257 32.3438 30.9459C33.1379 30.1086 33.9626 29.2714 34.6039 28.3102C35.2453 27.3179 35.6729 26.2017 35.6729 25.0234C35.6729 23.8761 35.1842 22.6668 34.2374 22.1707Z" fill="#000072"/>
</g>
<path d="M33.199 23.6589C33.3212 23.814 33.4128 23.969 33.4739 24.1241C33.5146 24.2067 33.5452 24.2998 33.5655 24.4031C33.5655 24.4238 33.5757 24.4548 33.5961 24.4961C33.5961 24.5168 33.5961 24.5375 33.5961 24.5582V24.6512C33.5961 24.6719 33.5961 24.6925 33.5961 24.7132C33.5961 24.9303 33.535 25.1163 33.4434 25.3023C33.3619 25.4884 33.2601 25.6538 33.1379 25.7985C32.9954 25.9638 32.8427 26.0982 32.6798 26.2016C32.5169 26.3049 32.354 26.398 32.1911 26.4806C31.8246 26.6047 31.4887 26.6977 31.1222 26.7287L31.3665 26.5116C31.3054 27.0078 31.1222 27.4729 30.8168 27.876C30.5419 28.2791 30.1448 28.5892 29.6867 28.8062C29.4424 28.8889 29.198 28.9509 28.9537 28.9923C28.7094 29.0129 28.465 29.0026 28.2207 28.9613C27.9764 28.8992 27.7524 28.7959 27.5488 28.6512C27.3655 28.5272 27.1823 28.3721 27.0601 28.1551C27.0296 28.1241 27.0296 28.093 27.0601 28.093C27.0805 28.093 27.0906 28.093 27.0906 28.093C27.3146 28.1964 27.5182 28.2688 27.7015 28.3101C27.9051 28.3721 28.1087 28.4135 28.3123 28.4341C28.4141 28.4341 28.5159 28.4341 28.6177 28.4341C28.7195 28.4341 28.8112 28.4341 28.8926 28.4341C29.1064 28.4031 29.2897 28.3721 29.4729 28.3101C29.8394 28.1551 30.1448 27.876 30.3892 27.5659C30.6335 27.2248 30.7862 26.8527 30.8168 26.4496C30.8168 26.3256 30.9084 26.2326 31.0306 26.2016C31.3665 26.1396 31.6719 26.0465 31.9468 25.9225C32.2522 25.7985 32.4966 25.6434 32.6798 25.4264C32.8936 25.2093 33.0463 24.9303 33.1074 24.6512L33.1379 24.5582C33.1379 24.5375 33.1379 24.5168 33.1379 24.4961C33.1379 24.4961 33.1379 24.4858 33.1379 24.4651C33.1379 24.3824 33.1379 24.2998 33.1379 24.2171C33.1176 24.0517 33.1074 23.876 33.1074 23.6899C33.1074 23.6589 33.1379 23.6589 33.1685 23.6589C33.1685 23.6589 33.1787 23.6589 33.199 23.6589Z" fill="#000072"/>
<path d="M33.199 28.3102C33.0972 28.4549 32.9852 28.5892 32.8631 28.7133C31.6719 29.9226 29.87 29.5195 28.9232 28.9303C28.8315 28.8683 28.7399 28.8063 28.6483 28.7133C28.9842 28.7133 29.2897 28.6823 29.5951 28.5582C30.4197 28.1861 31 27.3489 31.0916 26.4807C31.7025 26.3877 32.3439 26.1706 32.802 25.7365C33.1074 25.4264 33.3517 24.9923 33.3517 24.5272C33.6266 25.1164 34.268 26.8218 33.199 28.3102Z" fill="#000072"/>
<path d="M33.199 28.3101C33.0972 28.4548 32.9852 28.5891 32.8631 28.7132C31.6719 29.9225 29.87 29.5194 28.9232 28.9302C29.025 28.8062 29.137 28.6925 29.2591 28.5891C29.5035 28.3721 29.8089 28.2481 30.1143 28.124C30.6946 27.907 31.3054 27.7519 31.9468 27.814C32.3744 27.845 32.8325 28.031 33.199 28.3101Z" fill="#FF4193"/>
<path fill-rule="evenodd" clip-rule="evenodd" d="M30.9084 29.7675C30.1143 29.7675 29.3202 29.4884 28.801 29.1474C28.7094 29.1164 28.5872 29.0233 28.465 28.8993C28.4039 28.8373 28.3734 28.7133 28.4039 28.6202C28.465 28.5272 28.5567 28.4652 28.6483 28.4652C28.9537 28.4652 29.2286 28.4032 29.5035 28.3101C30.2059 28.0001 30.7557 27.2249 30.8168 26.4497C30.8473 26.3257 30.9389 26.2326 31.0306 26.2016C31.733 26.1086 32.2522 25.8915 32.6187 25.5505C32.8936 25.2714 33.0769 24.8993 33.1074 24.5272C33.1074 24.4032 33.199 24.3101 33.3212 24.2791C33.4434 24.2481 33.535 24.3101 33.5961 24.4342C33.8404 24.9613 34.5734 26.8528 33.4128 28.4652C33.311 28.6099 33.1888 28.7546 33.0463 28.8993C32.4355 29.5505 31.6719 29.7675 30.9084 29.7675ZM29.4118 28.8993C30.2975 29.3024 31.7025 29.4884 32.6798 28.5272C32.802 28.4032 32.9038 28.2791 32.9852 28.1551C33.6877 27.1939 33.5961 26.1396 33.3823 25.3644C33.2805 25.5711 33.1481 25.7572 32.9852 25.9226C32.5576 26.2946 32.0384 26.5737 31.3054 26.6977C31.1527 27.597 30.5419 28.4342 29.6867 28.7753C29.6053 28.8166 29.5136 28.858 29.4118 28.8993Z" fill="#000072"/>
<path d="M18.5389 32.2481C24.7084 31.0698 24.9222 30.8838 27.732 29.2714C28.7704 28.6822 29.931 27.9691 31.0916 28.3101C32.2522 28.6512 32.9241 29.8915 32.3438 31.2869C30.7251 32.1861 28.8926 32.6512 27.0906 33.0853C25.7773 33.3954 24.464 33.7055 23.1202 33.7055C21.5931 33.7365 20.066 33.3644 18.5389 32.2481Z" fill="#FF8D45"/>
<g opacity="0.6">
<path d="M32.3133 31.0698C32.802 30.3876 32.5271 29.3333 31.8552 28.8062C31.1833 28.3101 30.267 28.2791 29.4729 28.4961C28.6483 28.7132 27.9153 29.1783 27.1823 29.5814C25.0749 30.7597 22.7842 31.5659 20.402 32.031C23.0286 31.969 25.6246 31.2248 27.9153 29.9535C28.4345 29.6434 28.9537 29.3333 29.534 29.1163C30.0838 28.9302 30.7251 28.8682 31.2749 29.1163C32.069 29.4574 32.5271 30.4186 32.3133 31.0698Z" fill="white"/>
</g>
<path d="M18.5389 32.4962C18.4167 32.4962 18.2946 32.4032 18.264 32.2791C18.264 32.1241 18.3557 32.0001 18.5084 31.9691C21.6847 31.628 24.8305 30.6047 27.6099 29.0233L27.732 28.9613C28.7704 28.3722 29.931 27.721 31.1527 28.0621C31.7941 28.2481 32.3438 28.7133 32.6187 29.3024C32.8936 29.9226 32.8631 30.6357 32.5576 31.2869C32.4966 31.4109 32.3438 31.4729 32.1911 31.4109C32.069 31.3489 32.0079 31.1939 32.069 31.0698C32.3133 30.5427 32.3438 29.9846 32.13 29.5195C31.9163 29.0543 31.5192 28.7133 31 28.5582C29.9921 28.2791 28.9842 28.8683 27.9764 29.4264L27.8542 29.4884C25.0138 31.1008 21.8069 32.1551 18.5695 32.4962C18.5491 32.4962 18.5389 32.4962 18.5389 32.4962Z" fill="#000072"/>
<path d="M20.1882 21.3954C18.3557 20.0001 16.798 21.9225 16.4621 23.783C15.8716 25.9122 15.2913 28.0311 14.7212 30.1396C14.1103 31.814 14.9655 33.3024 16.401 33.5815C21.8069 34.6977 22.7537 23.3799 20.1882 21.3954Z" fill="#A34319"/>
<path fill-rule="evenodd" clip-rule="evenodd" d="M17.1034 33.9225C16.8591 33.9225 16.6046 33.9018 16.3399 33.8605C15.5763 33.7054 14.9655 33.2403 14.599 32.5892C14.202 31.845 14.1409 30.9458 14.4463 30.0465L16.2177 23.721C16.4315 22.5737 17.134 21.2093 18.2335 20.7752C18.7222 20.5892 19.4552 20.4961 20.3409 21.1783C21.1655 21.8295 21.7153 23.3489 21.8069 25.3644C21.868 27.3179 21.532 29.4264 20.8296 30.9768C19.9744 32.8992 18.6611 33.9225 17.1034 33.9225ZM18.936 21.1783C18.7527 21.1783 18.5796 21.2093 18.4167 21.2713C17.6532 21.5814 16.9507 22.6357 16.7064 23.845L14.9655 30.2016C14.9655 30.2222 14.9655 30.2326 14.9655 30.2326C14.6906 30.9768 14.7212 31.721 15.0571 32.3411C15.3626 32.8682 15.8512 33.2093 16.4315 33.3334C18.5389 33.7675 19.73 32.1551 20.3409 30.7597C21.0128 29.2713 21.3488 27.2868 21.2571 25.3954C21.1961 23.5659 20.7379 22.1396 20.0355 21.6124C19.6486 21.323 19.2821 21.1783 18.936 21.1783Z" fill="#000072"/>
<g opacity="0.6">
<path d="M35.5813 24.5272C34.9704 22.9148 34.0236 22.5117 32.9547 22.3566C32.9547 22.3566 32.9547 22.367 32.9547 22.3876C32.9241 22.5427 32.5271 22.6667 32.0079 22.6047C31.5192 22.5737 31.1222 22.3876 31.1222 22.2326C31.1222 22.2119 31.1323 22.1913 31.1527 22.1706C30.4502 22.1086 29.7478 21.9535 29.0759 21.5194C28.0374 20.8993 27.0601 19.721 25.7468 19.907C25.8995 19.752 26.0217 19.5659 26.1744 19.3179C26.9685 19.2559 27.6709 19.845 28.3123 20.3101C29.1369 20.8993 30.1143 21.3334 31.1222 21.5504C32.8325 21.8605 35.7645 22.1086 35.5813 24.5272Z" fill="white"/>
</g>
<path d="M35.4286 26.8218C35.3879 26.8218 35.3471 26.8114 35.3064 26.7908C35.1842 26.7288 35.1232 26.5427 35.1842 26.4187C35.5813 25.6745 35.6424 24.7443 35.3675 23.9381C35.0926 23.1629 34.4512 22.4807 33.6877 22.1706C33.1074 21.9226 32.4966 21.8605 31.8246 21.7985C31.1527 21.7675 30.4808 21.7055 29.8394 21.4264C29.3507 21.2404 28.9232 20.9303 28.4956 20.6202C28.3327 20.4962 28.1596 20.3825 27.9764 20.2791C27.3044 19.814 26.6936 19.628 26.1744 19.721C26.0522 19.752 25.8995 19.659 25.869 19.504C25.869 19.3489 25.9606 19.2249 26.1133 19.1939C26.7547 19.1009 27.4572 19.2869 28.2818 19.814C28.4447 19.9381 28.6177 20.0621 28.801 20.1861C29.198 20.4962 29.5951 20.7443 30.0227 20.9303C30.603 21.1784 31.2138 21.2404 31.8857 21.2714C32.5271 21.3334 33.2296 21.3954 33.8709 21.6745C34.7872 22.0466 35.5202 22.8218 35.8562 23.783C36.1921 24.7133 36.131 25.7985 35.6424 26.6667C35.6118 26.7598 35.5202 26.8218 35.4286 26.8218Z" fill="#000072"/>
<path d="M32.5576 19.5969C32.5373 19.5969 32.5067 19.5866 32.466 19.5659C32.3439 19.5039 32.2828 19.3489 32.3133 19.2248C32.5271 18.6977 32.6493 18.0775 32.7409 17.5194C32.8936 16.6202 33.0769 15.6899 33.6571 14.9147C34.1764 14.2636 34.9705 13.8295 35.8256 13.7675C35.9783 13.7675 36.1005 13.8915 36.1005 14.0155C36.131 14.1706 36.0089 14.2946 35.8562 14.3256C35.1537 14.3566 34.4818 14.6977 34.0542 15.2558C33.5655 15.907 33.4128 16.7442 33.2601 17.6124C33.1685 18.2016 33.0463 18.8527 32.802 19.4109C32.7714 19.5349 32.6798 19.5969 32.5576 19.5969Z" fill="#000072"/>
<path d="M36.1921 15.5969C36.0903 15.5969 35.9885 15.5969 35.8867 15.5969C35.7849 15.5969 35.6831 15.5969 35.5813 15.5969C35.3573 15.6176 35.1333 15.6796 34.9094 15.783C34.889 15.783 34.8788 15.7726 34.8788 15.7519C34.8788 15.7519 34.8788 15.7416 34.8788 15.7209C35.0315 15.5349 35.2453 15.3488 35.4897 15.2558C35.6118 15.2145 35.734 15.1835 35.8562 15.1628C35.9987 15.1421 36.131 15.1525 36.2532 15.1938C36.3448 15.2248 36.4059 15.3488 36.3754 15.4419C36.3448 15.5349 36.2837 15.5969 36.1921 15.5969Z" fill="#000072"/>
<path d="M36.5281 16.6823C36.4059 16.6823 36.2939 16.6926 36.1921 16.7133C36.0903 16.7133 35.9783 16.7236 35.8562 16.7443C35.6322 16.7856 35.4082 16.858 35.1842 16.9613C35.1639 16.9613 35.1435 16.951 35.1232 16.9303C35.1232 16.9303 35.1232 16.92 35.1232 16.8993C35.2046 16.796 35.2962 16.7029 35.398 16.6203C35.4998 16.5376 35.6118 16.4652 35.734 16.4032C35.8562 16.3412 35.9885 16.2998 36.131 16.2792C36.2736 16.2585 36.4161 16.2585 36.5586 16.2792C36.6502 16.3102 36.7113 16.4032 36.7113 16.5272C36.6808 16.5893 36.6197 16.6513 36.5281 16.6823Z" fill="#000072"/>
<path d="M28.2512 23.3489C28.0374 22.8838 28.0985 22.3567 28.4345 22.2017C28.7399 22.0466 29.198 22.2947 29.4118 22.7908C29.6562 23.2559 29.5645 23.783 29.2591 23.9381C28.9232 24.0931 28.4956 23.8451 28.2512 23.3489Z" fill="#000072"/>
<path d="M29.5951 24.0621C28.7094 24.5272 26.7852 25.9226 28.4956 26.3877C29.1675 26.4497 29.8394 26.2637 30.3892 25.8606C30.9695 25.4575 31.7636 24.4962 31.3054 23.8761C31.0305 23.535 29.9616 23.8761 29.5951 24.0621Z" fill="#000072"/>
<path d="M31.1222 26.7598C31.0305 26.7598 30.9695 26.7287 30.9084 26.6357L30.1143 25.5504C30.0227 25.4264 30.0532 25.2714 30.1754 25.1784C30.2975 25.0853 30.4502 25.1163 30.5419 25.2404L31.336 26.3256C31.4276 26.4497 31.397 26.6047 31.2749 26.6977C31.2341 26.7391 31.1832 26.7598 31.1222 26.7598Z" fill="#000072"/>
<path d="M4.79508 16.7753C5.19212 15.566 5.74188 14.4187 6.47488 13.3954C7.97143 11.2869 10.201 9.70549 12.7665 9.11635C12.7971 8.15511 13.2857 7.22487 14.0493 6.66673C14.4769 6.32565 15.1793 6.51169 15.5153 6.69774C16.6148 7.28689 17.531 9.20937 18.203 11.1008C19.1498 11.783 20.0966 12.4962 20.8296 13.3644C21.5931 14.2636 22.1429 15.3489 22.1123 16.5272C22.1123 17.8915 21.3488 19.1318 20.4631 20.1551C18.3557 22.6047 15.332 24.2171 12.1557 24.6202C10.537 24.8063 8.82661 24.6822 7.33006 24.0311C6.26109 23.566 5.22267 22.7908 4.67291 21.8915" fill="#C2B9EA"/>
<g opacity="0.2">
<path d="M19.3941 17.0853C18.5084 17.9846 17.9586 17.7675 17.134 16.9303C17.1951 18.0466 17.0729 18.9458 15.7596 19.5039C16.5232 19.597 17.3478 19.1318 17.6532 18.4187C18.3862 18.4807 19.1498 17.8915 19.3941 17.0853Z" fill="#000072"/>
</g>
<path d="M12.8887 8.34115C12.8581 8.62022 12.7054 9.11635 12.6443 9.39542C14.3241 9.7365 14.1103 9.70549 18.0197 10.8218C17.7143 9.79852 17.2867 8.83728 16.7369 7.93805C16.4315 7.41092 16.0345 6.88379 15.4847 6.66673C14.9655 6.41867 14.3241 6.5117 13.8355 6.82177C13.3468 7.16286 13.0414 7.68999 12.8887 8.34115Z" fill="#7162AF"/>
<g opacity="0.6">
<path d="M14.6296 9.64343C16.065 10.4186 17.47 11.2248 18.7527 12.2171C20.0355 13.2403 21.1961 14.4186 22.0207 15.845C20.7074 12.6822 17.7754 10.2636 14.6296 9.64343Z" fill="white"/>
</g>
<g opacity="0.6">
<path d="M17.4699 9.36439C15.9123 6.82176 13.5911 5.70548 13.3163 9.55044C12.8683 9.63313 12.4407 9.74682 12.0335 9.89153C12.064 10.1086 11.5754 10.5737 10.8424 10.9458C10.1399 11.2869 9.49852 11.4109 9.34581 11.2559C8.03251 12.1241 6.87192 13.2714 5.89458 14.4807C7.36059 11.3799 9.86502 10.1086 12.7665 8.83726C13.2246 8.00005 12.9803 7.13184 14.0493 6.63571C15.9123 5.86052 16.7369 7.96905 17.4699 9.36439Z" fill="white"/>
</g>
<path d="M9.16256 14.5428C9.13201 14.1396 9.10147 13.7055 8.94876 13.3024C8.76551 12.9303 8.42955 12.5893 8.03251 12.5583C7.54384 12.4962 7.11625 12.8373 6.78029 13.1784C5.43645 14.5427 4.64236 16.4342 4.61182 18.3567C4.61182 18.4807 4.61182 18.6048 4.6729 18.7288C4.79507 18.9769 5.16157 19.0079 5.43645 19.0079C6.37306 19.0079 7.31986 19.0079 8.27684 19.0079C8.52118 19.0079 8.79605 18.9769 9.04039 18.8528C9.25418 18.6978 9.37635 18.4187 9.43743 18.1707C9.74285 16.9924 9.22364 15.7521 9.16256 14.5428Z" fill="#7162AF"/>
<path d="M15.4542 7.90707C15.3626 7.78304 15.1488 7.78304 15.0266 7.84506C14.8739 7.93808 14.7823 8.09312 14.7517 8.24816C14.6906 8.4032 14.6906 8.58924 14.6906 8.74428C14.711 9.03369 14.7212 9.34377 14.7212 9.67451C15.4236 9.82955 16.1567 9.98459 16.798 10.3257C16.4621 9.45746 16.0956 8.58924 15.4542 7.90707Z" fill="#FF6C7A"/>
<path d="M10.7507 24.9613C9.44763 24.9613 8.27686 24.7339 7.23843 24.2792C5.98622 23.721 4.97833 22.9148 4.45912 22.0466L4.88671 21.7675C5.37538 22.5117 6.32218 23.2869 7.45222 23.783C8.76553 24.3722 10.3537 24.5582 12.1251 24.3412C15.2404 23.9691 18.203 22.3877 20.2798 20.0001C21.3182 18.7908 21.868 17.6125 21.868 16.5272C21.868 15.535 21.4404 14.4807 20.6463 13.5505C19.9133 12.6823 18.9665 12.0001 18.0503 11.3179L17.9892 11.2869L17.9586 11.1939C17.134 8.8683 16.2483 7.41093 15.3931 6.94582C15.1182 6.79078 14.5685 6.66675 14.1714 6.8838C13.5606 7.22489 13.0719 8.18613 13.0108 9.11636V9.33342L12.8276 9.36442C10.3842 9.95357 8.21577 11.4419 6.68868 13.5505C5.98622 14.5427 5.43646 15.659 5.06996 16.8373L4.55075 16.6823C4.94779 15.4419 5.52809 14.2636 6.26109 13.2404C7.81873 11.0698 10.0177 9.55047 12.5222 8.89931C12.6138 7.96907 13.1025 6.8838 13.9271 6.41869C14.5379 6.0776 15.3015 6.26365 15.6374 6.44969C16.6148 7.00783 17.5616 8.49621 18.4168 10.9458C19.333 11.597 20.2798 12.3102 21.0434 13.1784C21.9291 14.2326 22.3872 15.4109 22.3872 16.5272C22.3872 17.7675 21.8069 19.0388 20.6769 20.3412C18.5084 22.8218 15.4237 24.4652 12.1862 24.8683C11.6975 24.9303 11.2191 24.9613 10.7507 24.9613Z" fill="#000072"/>
<path d="M23.2424 14.9457C23.3645 16.9613 22.0818 17.7985 22.0818 17.7985C20.9517 18.7907 19.9438 19.907 19.0276 21.1163C18.6611 21.5814 18.3251 22.0775 18.264 22.6667C18.1724 23.2558 18.5084 23.907 19.0581 24.031C19.4857 24.124 19.8828 23.907 20.2493 23.7209C21.0637 23.2662 21.8782 22.8114 22.6926 22.3566C24.0365 21.6124 25.4719 20.7752 26.1744 19.3799C26.8158 18.1395 26.7241 16.6202 26.2965 15.3178C25.7773 13.7985 24.7695 12.4031 23.3034 11.814C23.3034 11.814 23.1507 12.9302 23.2424 14.9457Z" fill="#C2B9EA"/>
<g opacity="0.2">
<path d="M32.1911 8.21716C33.1685 9.86057 34.1153 11.504 33.6877 13.3644C33.2601 15.2249 32.069 16.8993 30.4808 17.9226C30.3892 17.7676 30.267 17.5815 30.1754 17.4265C28.3429 17.2404 26.6631 15.9381 26.0217 14.2017C26.2355 15.8141 25.8079 17.5505 24.8306 18.8838C23.8227 20.1862 22.3261 21.0854 20.7074 21.3024C20.402 21.3334 20.066 21.3645 19.7911 21.1784C19.5468 21.0234 19.4246 20.5893 19.5468 20.2792C20.1576 19.7831 20.7685 19.2559 21.2571 18.6358C21.7153 18.0156 22.0818 17.2404 22.0818 16.4342C22.1123 15.3489 21.4709 14.3257 20.8601 13.7055C21.3488 16.0621 20.5547 18.6668 18.8443 20.3412C17.134 22.0156 14.5685 22.7288 12.2778 22.0776C12.2778 22.1086 12.3084 22.1396 12.3084 22.1707C12.4102 22.6254 12.5018 23.0905 12.5833 23.566C13.2857 23.2869 14.0187 23.0389 14.7823 23.0389C15.5153 23.0389 16.3094 23.38 16.6148 24.0621C16.2177 24.6513 15.5458 25.0854 14.8128 25.1784C14.1104 25.3024 13.3468 25.0544 12.7971 24.5893C12.5324 25.2921 12.2778 25.9949 12.0335 26.6978C12.003 26.8218 11.9724 26.9148 11.9419 27.0699C13.7133 26.7598 15.4237 26.0466 17.0424 25.1474C17.1035 24.4962 16.7675 23.8451 16.2483 23.473C16.9609 23.1009 17.6634 22.7288 18.3557 22.3567C17.9892 23.0079 18.6916 23.8451 19.4246 23.9071C20.1576 24.0001 20.8296 23.566 21.4404 23.1629C22.2549 22.6461 23.0693 22.1293 23.8837 21.6125C24.6473 21.1164 25.4108 20.6203 25.9606 19.9381C26.5409 19.2559 26.8769 18.3257 26.7241 17.3955C27.7626 17.4575 28.6788 18.0776 29.5645 18.5738C30.4808 19.0699 31.5192 19.504 32.5882 19.2559C32.7409 18.1396 32.8936 16.9924 33.3823 16.0001C33.8709 15.0079 34.7872 14.1396 35.9172 13.9536C34.9704 12.0311 34.1458 10.2017 32.1911 8.21716Z" fill="#000072"/>
</g>
<g opacity="0.6">
<path d="M22.2039 17.7985C21.3182 18.8837 20.4936 20 19.669 21.1473C19.3941 21.5194 19.0887 21.9225 18.9054 22.3566C18.6916 22.7907 18.5389 23.2868 18.6 23.783C18.3251 23.5969 18.203 23.2248 18.2335 22.8837C18.2335 22.5426 18.3862 22.2326 18.5389 21.9535C19.3941 20.3101 20.7074 18.9768 22.2039 17.7985Z" fill="white"/>
</g>
<g opacity="0.6">
<path d="M23.2729 11.938C24.067 12.8062 24.8 13.7054 25.3803 14.7287C25.9911 15.7519 26.4187 16.8372 26.602 18.0155C26.6631 16.7442 26.3882 15.4729 25.8079 14.3566C25.197 13.2403 24.3113 12.3101 23.2729 11.938Z" fill="white"/>
</g>
<path fill-rule="evenodd" clip-rule="evenodd" d="M18.1113 11.3489C18.0502 11.3489 17.9993 11.3283 17.9586 11.2869C17.9586 11.2869 16.3399 10.1086 14.6601 9.89158C14.5685 9.86057 14.5074 9.79856 14.4768 9.67453C14.4463 9.36445 14.3241 7.78305 15.0877 7.62801C15.5153 7.50398 15.9734 7.93809 16.4621 8.89933C16.7675 9.48848 16.9813 10.1086 17.0424 10.2327C17.7143 10.5738 18.203 10.9148 18.2335 10.9458C18.3251 11.0079 18.3557 11.1629 18.264 11.2559C18.2335 11.3179 18.1724 11.3489 18.1113 11.3489ZM14.9044 9.45747C15.4542 9.5815 16.0039 9.73654 16.4621 9.9536C16.065 8.93034 15.4847 7.9691 15.1793 8.03111C14.935 8.09313 14.8434 8.80631 14.9044 9.45747Z" fill="#000072"/>
<path d="M8.97931 13.3644C9.1931 13.7675 9.34581 14.1706 9.46798 14.6047C9.59015 15.0181 9.69196 15.4419 9.7734 15.876C9.83448 16.3101 9.87521 16.7546 9.89557 17.2093C9.89557 17.4367 9.87521 17.6641 9.83448 17.8915C9.80394 18.1086 9.7734 18.3566 9.65123 18.6047C9.59015 18.7287 9.5087 18.8424 9.4069 18.9458C9.30509 19.0285 9.20328 19.1008 9.10148 19.1628C8.85714 19.2869 8.61281 19.3179 8.39902 19.3799C7.94089 19.4419 7.5133 19.4109 7.05517 19.3799C6.2 19.3179 5.34483 19.1318 4.5202 18.9458C4.36749 18.8838 4.27586 18.7597 4.3064 18.6047C4.36749 18.4807 4.48966 18.3876 4.64236 18.4186C5.467 18.6047 6.29163 18.7907 7.11626 18.8528C7.5133 18.8838 7.94089 18.8838 8.33793 18.8528C8.52118 18.8217 8.70443 18.7597 8.85714 18.6977C9.00985 18.6047 9.10148 18.5117 9.1931 18.3566C9.25419 18.2016 9.31527 18.0155 9.31527 17.8295C9.35599 17.6228 9.36618 17.4161 9.34581 17.2093C9.34581 16.8062 9.28473 16.3721 9.22365 15.969C9.10148 15.1318 8.91823 14.2946 8.8266 13.4264C8.8266 13.3644 8.85714 13.3334 8.88769 13.3334C8.94877 13.3334 8.97931 13.3334 8.97931 13.3644Z" fill="#000072"/>
<path d="M22.1429 17.8605C21.8374 18.3256 21.4709 18.6977 21.135 19.1008L20.5852 19.6899C20.402 19.876 20.2289 20.062 20.066 20.2481C19.6995 20.6512 19.3636 21.0853 19.0581 21.4884C18.9054 21.7054 18.7833 21.9225 18.6916 22.1396C18.6305 22.2429 18.5898 22.3566 18.5695 22.4806C18.5287 22.584 18.5084 22.6977 18.5084 22.8217C18.5084 23.0388 18.5695 23.2558 18.6611 23.4419C18.7833 23.6279 18.936 23.752 19.1192 23.783C19.2007 23.8036 19.3025 23.8036 19.4246 23.783C19.5264 23.7623 19.6282 23.7313 19.7301 23.6899C19.8522 23.6486 19.9642 23.5866 20.066 23.5039L20.402 23.3178L21.8069 22.5426C22.265 22.2946 22.7537 22.0465 23.1813 21.7675C23.6394 21.5194 24.0975 21.2403 24.4946 20.9302C24.7084 20.7442 24.8916 20.5892 25.0749 20.4031L25.136 20.3411L25.2276 20.2791C25.2683 20.2377 25.309 20.1861 25.3498 20.124C25.4108 20.031 25.5025 19.938 25.5941 19.845C25.869 19.4419 26.1133 18.9768 26.2355 18.5116C26.2558 18.3876 26.2762 18.2636 26.2966 18.1395C26.3169 18.0155 26.3373 17.8812 26.3576 17.7364C26.3576 17.6124 26.3576 17.4884 26.3576 17.3644C26.3576 17.2403 26.3576 17.1163 26.3576 16.9923C26.2966 15.969 25.9606 14.9458 25.4108 14.0775C25.3498 13.9535 25.2887 13.8398 25.2276 13.7364C25.1461 13.6331 25.0647 13.5297 24.9833 13.4264C24.8204 13.2403 24.6473 13.0646 24.464 12.8992C24.3724 12.8062 24.2502 12.7442 24.1586 12.6512C24.067 12.5582 23.9754 12.4961 23.8837 12.4031C23.67 12.2481 23.4867 12.093 23.2729 11.907C23.2424 11.876 23.2424 11.814 23.2729 11.783C23.2933 11.7623 23.3136 11.752 23.334 11.752C23.4154 11.752 23.4867 11.752 23.5478 11.752C23.6292 11.7726 23.7005 11.7933 23.7616 11.814C23.8227 11.8346 23.8837 11.8553 23.9448 11.876C24.0263 11.9173 24.0975 11.9483 24.1586 11.969C24.179 11.9897 24.2095 12.0104 24.2503 12.031L24.3419 12.093C24.403 12.1137 24.4539 12.1447 24.4946 12.1861C24.6168 12.2894 24.7287 12.3824 24.8305 12.4651C25.0443 12.6512 25.2276 12.8992 25.3803 13.0853C25.4821 13.2093 25.5737 13.323 25.6552 13.4264C25.7163 13.5504 25.7875 13.6744 25.869 13.7985C26.0115 14.0259 26.1438 14.2636 26.266 14.5116C26.3271 14.6563 26.378 14.7907 26.4187 14.9147C26.4391 14.9768 26.4594 15.0388 26.4798 15.1008C26.5205 15.1628 26.5511 15.2352 26.5714 15.3178C26.6529 15.5659 26.714 15.8346 26.7547 16.124C26.8158 16.3928 26.8565 16.6718 26.8769 16.9613C26.8972 17.0853 26.9074 17.2197 26.9074 17.3644C26.887 17.5091 26.8769 17.6538 26.8769 17.7985C26.8565 17.9432 26.8361 18.0775 26.8158 18.2016C26.7954 18.3463 26.7649 18.491 26.7241 18.6357C26.602 19.1938 26.3271 19.7209 25.9911 20.1551C25.9301 20.2791 25.8384 20.3721 25.7468 20.4961C25.6857 20.5375 25.6348 20.5892 25.5941 20.6512L25.533 20.7132L25.4414 20.8062C25.2581 20.9923 25.0443 21.1783 24.8305 21.3333C24.3724 21.6744 23.9143 21.9535 23.4562 22.2326C22.998 22.5116 22.5094 22.7597 22.0512 23.0078L20.6769 23.783L20.3103 24C20.1882 24.062 20.066 24.124 19.9438 24.1861C19.8013 24.2481 19.6486 24.2894 19.4857 24.3101C19.333 24.3411 19.1803 24.3411 18.997 24.3101C18.8443 24.2791 18.6916 24.1861 18.5389 24.093C18.4168 23.969 18.3149 23.845 18.2335 23.7209C18.0502 23.4419 17.9892 23.1318 17.9892 22.7907C17.9892 22.6253 18.0095 22.4703 18.0502 22.3256C18.091 22.1809 18.1419 22.0465 18.203 21.9225C18.3251 21.6434 18.4778 21.3954 18.6305 21.1783C18.9665 20.7442 19.3025 20.3101 19.6384 19.907C19.9744 19.4729 20.3409 19.0698 20.7379 18.6977C21.135 18.3256 21.532 17.9845 22.0207 17.7364C22.0818 17.7054 22.1123 17.7364 22.1429 17.7675C22.1632 17.8088 22.1632 17.8398 22.1429 17.8605Z" fill="#000072"/>
<path d="M18.9054 20.062C18.8851 20.1241 18.8647 20.1861 18.8443 20.2481C18.3862 21.2713 17.531 20.7752 17.1034 20.031C16.9507 19.814 16.8591 19.5969 16.8286 19.3799C17.134 19.1938 17.4699 18.8837 17.6532 18.2946C17.6532 18.2946 18.4778 18.4806 18.997 17.6744C19.0581 18.4186 19.1497 19.3489 18.9054 20.062Z" fill="#000072"/>
<path d="M29.4424 31.0698C29.6052 31.1318 29.7681 31.2145 29.931 31.3179C30.0736 31.4212 30.2059 31.5453 30.3281 31.69C30.4502 31.814 30.552 31.969 30.6335 32.1551C30.6946 32.3101 30.7557 32.4962 30.7557 32.7132C30.7557 32.8373 30.664 32.9613 30.5419 32.9613C30.4197 32.9613 30.3281 32.8993 30.2975 32.7753C30.2364 32.6202 30.2059 32.4962 30.1448 32.3411C30.1041 32.1964 30.043 32.0621 29.9616 31.938C29.9005 31.7933 29.819 31.6486 29.7172 31.5039C29.6358 31.3799 29.534 31.2559 29.4118 31.1318C29.3915 31.1112 29.3915 31.0905 29.4118 31.0698C29.4118 31.0698 29.422 31.0698 29.4424 31.0698Z" fill="#000072"/>
<path d="M30.603 30.1707C30.7862 30.2327 30.9389 30.3257 31.0611 30.4497C31.2036 30.5738 31.336 30.7081 31.4581 30.8528C31.5498 31.0079 31.6719 31.1629 31.733 31.3489C31.7534 31.4316 31.7737 31.5247 31.7941 31.628C31.7941 31.69 31.7941 31.752 31.7941 31.7831C31.7941 31.8451 31.7941 31.9071 31.7941 31.9691C31.7635 32.0931 31.6414 32.1862 31.5192 32.1551C31.397 32.1551 31.336 32.0621 31.336 31.9381L31.3054 31.9071C31.3054 31.7831 31.2851 31.6487 31.2443 31.504C31.2036 31.3593 31.1527 31.2146 31.0916 31.0699C31.0102 30.9252 30.9287 30.7805 30.8473 30.6358C30.7658 30.4911 30.6742 30.3567 30.5724 30.2327C30.5521 30.212 30.5521 30.1913 30.5724 30.1707C30.5724 30.1707 30.5826 30.1707 30.603 30.1707Z" fill="#000072"/>
<path d="M23.8227 25.9226C23.6089 25.2714 23.7616 24.5892 24.2197 24.4342C24.6778 24.2791 25.2276 24.6822 25.4719 25.3334C25.6857 26.0156 25.533 26.6977 25.0749 26.8528C24.6168 27.0078 24.067 26.6047 23.8227 25.9226Z" fill="#000072"/>
<path d="M19.4552 24.1241C19.3737 24.0208 19.3228 23.8967 19.3025 23.752C19.2617 23.628 19.2414 23.504 19.2414 23.3799C19.2414 23.1319 19.333 22.8528 19.4857 22.6667C19.4857 22.6461 19.4959 22.6461 19.5163 22.6667C19.5163 22.6667 19.5163 22.6771 19.5163 22.6978C19.5163 22.9251 19.5468 23.1422 19.6079 23.3489C19.6282 23.4316 19.6588 23.5246 19.6995 23.628C19.7402 23.7107 19.781 23.8037 19.8217 23.9071C19.8522 24.0311 19.7911 24.1241 19.6995 24.1861C19.6079 24.1861 19.5163 24.1861 19.4552 24.1241Z" fill="#000072"/>
<path d="M20.402 23.628C20.3612 23.5246 20.3307 23.4213 20.3103 23.3179C20.29 23.1939 20.29 23.0802 20.3103 22.9768C20.3307 22.8735 20.3612 22.7701 20.402 22.6668C20.4223 22.5634 20.4631 22.4704 20.5241 22.3877C20.5445 22.3877 20.5649 22.3877 20.5852 22.3877C20.5852 22.3877 20.5852 22.398 20.5852 22.4187C20.6056 22.5221 20.6158 22.6151 20.6158 22.6978C20.6361 22.8011 20.6565 22.8942 20.6768 22.9768C20.6972 23.0595 20.7176 23.1422 20.7379 23.2249C20.7583 23.3076 20.7685 23.3903 20.7685 23.473V23.504C20.799 23.597 20.7074 23.721 20.5852 23.721C20.5241 23.721 20.4325 23.69 20.402 23.628Z" fill="#000072"/>
<path d="M12.1557 29.6125C12.2778 30.2326 12.1557 30.8838 11.7586 31.3489C11.3616 31.845 10.7813 32.0621 10.1399 32.1861C7.23842 29.6745 5.2532 26.1086 4.70344 22.0776C4.60164 21.3334 4.55074 20.5685 4.55074 19.783C4.55074 19.721 4.55074 19.659 4.55074 19.597C5.95566 18.7908 7.5133 18.6357 8.91822 19.1008C10.598 19.659 12.003 21.1473 12.4611 22.9148C12.9192 24.6822 12.4611 26.6667 11.2699 28.0311C11.6975 28.4652 12.0335 29.0233 12.1557 29.6125Z" fill="#FF8D45"/>
<g opacity="0.2">
<path d="M12.1862 30.2946C12.1251 31.3799 11.1783 32.031 10.1399 32.1861C6.62758 29.1783 4.45911 24.4031 4.55074 19.5969C4.59146 19.5556 4.63218 19.5246 4.6729 19.5039C5.31428 22.2946 5.92512 26.0465 9.07093 27.752C9.65123 28.031 10.0788 28.5582 10.2315 29.1783C10.4759 30.1396 11.4227 30.6977 12.1862 30.2946Z" fill="#000072"/>
</g>
<path d="M8.67389 30.6046C8.75533 30.5633 8.83678 30.522 8.91822 30.4806C8.99967 30.4599 9.09129 30.4289 9.1931 30.3876C9.27454 30.3462 9.35599 30.3049 9.43743 30.2636C9.51888 30.2015 9.6105 30.1499 9.71231 30.1085C9.73267 30.0878 9.74285 30.0878 9.74285 30.1085C9.74285 30.1292 9.74285 30.1395 9.74285 30.1395C9.70213 30.2429 9.65123 30.3359 9.59014 30.4186C9.52906 30.522 9.45779 30.6046 9.37635 30.6667C9.2949 30.7493 9.20328 30.8217 9.10147 30.8837C9.02003 30.9251 8.91822 30.9561 8.79605 30.9767C8.70443 31.0077 8.58226 30.9147 8.58226 30.8217C8.58226 30.7287 8.6128 30.6667 8.67389 30.6046Z" fill="#000072"/>
<path d="M9.40689 31.3489C9.5087 31.3076 9.60032 31.2662 9.68177 31.2249C9.78357 31.2042 9.88538 31.1732 9.98719 31.1319C10.1704 31.0285 10.3537 30.8941 10.5369 30.7288C10.5369 30.7081 10.5471 30.7081 10.5675 30.7288C10.5369 31.0078 10.3842 31.2249 10.201 31.4109C10.0992 31.4936 9.98719 31.566 9.86502 31.628C9.74285 31.69 9.6105 31.721 9.46797 31.721C9.34581 31.721 9.25418 31.628 9.25418 31.535C9.25418 31.4419 9.31526 31.3799 9.40689 31.3489Z" fill="#000072"/>
<path d="M12.1251 17.7675C11.8197 17.1163 11.9419 16.4031 12.3695 16.1861C12.8276 15.969 13.4079 16.3411 13.7133 16.9613C14.0187 17.6124 13.9271 18.3256 13.469 18.5427C13.0414 18.7597 12.4305 18.4186 12.1251 17.7675Z" fill="#000072"/>
<path d="M12.4916 17.5814C12.3695 17.3644 12.4 17.1473 12.5222 17.0853C12.6749 17.0233 12.8581 17.1473 12.9497 17.3644C13.0719 17.5814 13.0414 17.7985 12.9192 17.8605C12.7665 17.9225 12.5832 17.7985 12.4916 17.5814Z" fill="white"/>
<path d="M24.1892 25.8295C24.067 25.6124 24.067 25.3954 24.1892 25.3644C24.2808 25.3023 24.4335 25.4264 24.5557 25.6434C24.6473 25.8605 24.6473 26.0775 24.5557 26.1395C24.4335 26.1706 24.2808 26.0465 24.1892 25.8295Z" fill="white"/>
<path d="M28.4956 23.2249C28.4039 23.0699 28.4345 22.8838 28.4956 22.8218C28.5872 22.7908 28.7399 22.9148 28.8315 23.0699C28.8926 23.2559 28.8926 23.442 28.801 23.473C28.7094 23.535 28.5872 23.4109 28.4956 23.2249Z" fill="white"/>
<path d="M16.401 15.0698C16.1261 14.4806 16.1872 13.8605 16.5537 13.6744C16.9202 13.5194 17.4394 13.8605 17.7143 14.4496C17.9892 15.0388 17.9281 15.6589 17.5616 15.814C17.1951 16 16.6759 15.6589 16.401 15.0698Z" fill="#000072"/>
<path d="M17.6837 16.1861C17.3478 16.0621 15.4542 17.2404 16.401 17.4884C17.0424 17.6435 17.6532 17.6745 17.7448 16.8993C17.7754 16.7132 17.867 16.2481 17.6837 16.1861Z" fill="#000072"/>
<path d="M16.6453 14.9458C16.5537 14.7287 16.5537 14.5117 16.6453 14.4497C16.7675 14.4187 16.9202 14.5427 17.0118 14.7597C17.134 14.9768 17.134 15.1628 17.0118 15.2249C16.9202 15.2869 16.7675 15.1318 16.6453 14.9458Z" fill="white"/>
<path d="M18.9054 20.062C18.8851 20.1241 18.8647 20.1861 18.8443 20.2481C18.3862 21.2713 17.531 20.7752 17.1035 20.031C17.2867 19.752 17.6227 19.5659 17.9892 19.5659C18.3862 19.5659 18.7222 19.783 18.9054 20.062Z" fill="#FF4193"/>
<path d="M19.333 16.8993C19.3635 17.1163 19.3635 17.3644 19.3025 17.5815C19.2821 17.6228 19.2617 17.6745 19.2414 17.7365L19.2108 17.7985C19.1905 17.8192 19.1701 17.8502 19.1498 17.8915C19.109 17.9949 19.0479 18.0879 18.9665 18.1706C18.7832 18.3567 18.5695 18.4807 18.3251 18.5427C18.203 18.5634 18.0808 18.5737 17.9586 18.5737C17.9179 18.5737 17.867 18.5737 17.8059 18.5737H17.7143H17.6532C17.6532 18.5737 17.6227 18.5737 17.5921 18.5427L17.8975 18.3877C17.8364 18.5737 17.7448 18.7908 17.6227 19.0078C17.5005 19.1939 17.3478 19.3799 17.1645 19.5039C16.9507 19.628 16.7369 19.721 16.5231 19.752C16.3094 19.783 16.065 19.752 15.8818 19.628C15.8512 19.597 15.8512 19.566 15.8512 19.535C15.8512 19.535 15.8614 19.535 15.8818 19.535C16.065 19.4109 16.2483 19.3489 16.401 19.2869C16.4824 19.2455 16.5537 19.2042 16.6148 19.1629C16.6962 19.1215 16.7675 19.0802 16.8286 19.0388C16.9507 18.9355 17.0627 18.8114 17.1645 18.6667C17.2663 18.5427 17.3478 18.3877 17.4089 18.2016L17.7143 18.0466H17.7448H17.7754C17.7957 18.0466 17.8161 18.0466 17.8364 18.0466C17.8568 18.0466 17.8874 18.0466 17.9281 18.0466C18.0095 18.0466 18.091 18.0259 18.1724 17.9846C18.3149 17.9432 18.4473 17.8709 18.5695 17.7675C18.6305 17.7055 18.6916 17.6435 18.7527 17.5815L18.7832 17.5505L18.8443 17.4884C18.8647 17.4471 18.8851 17.4058 18.9054 17.3644C19.0276 17.2404 19.1192 17.0853 19.2414 16.8993C19.2414 16.8683 19.2719 16.8683 19.3025 16.8683C19.3228 16.889 19.333 16.8993 19.333 16.8993Z" fill="#000072"/>
<g opacity="0.2">
<path d="M11.1478 28.3721L9.80394 26.8528C9.22365 26.2016 10.0483 25.2403 10.7813 25.7365C11.4837 26.2326 11.7586 27.3489 11.1478 28.3721Z" fill="#000072"/>
</g>
<path fill-rule="evenodd" clip-rule="evenodd" d="M18.1724 21.1163C17.6227 21.1163 17.134 20.6202 16.8591 20.1551C16.7064 19.938 16.6148 19.659 16.5537 19.4419C16.5232 19.3179 16.5842 19.1938 16.7064 19.1318C17.0322 18.9458 17.2663 18.6357 17.4089 18.2016C17.4394 18.0776 17.5921 18.0155 17.7143 18.0466C17.7448 18.0466 18.3557 18.1706 18.7527 17.5504C18.8138 17.4574 18.936 17.3954 19.0581 17.4264C19.1498 17.4574 19.2414 17.5504 19.2414 17.6435C19.333 18.4807 19.4246 19.4109 19.1803 20.1551C19.1396 20.2171 19.109 20.2895 19.0887 20.3721C18.8443 20.9303 18.4778 21.0853 18.2335 21.0853C18.2131 21.106 18.1928 21.1163 18.1724 21.1163ZM17.134 19.5039C17.1747 19.628 17.2358 19.752 17.3172 19.876C17.5616 20.3101 17.9281 20.5892 18.1724 20.5582C18.3557 20.5582 18.4982 20.4238 18.6 20.1551C18.6204 20.0931 18.6407 20.0414 18.6611 20C18.8443 19.5039 18.8443 18.8838 18.7833 18.2946C18.4473 18.5427 18.0808 18.5737 17.8365 18.5737C17.6736 18.9665 17.4394 19.2765 17.134 19.5039Z" fill="#000072"/>
<g opacity="0.6">
<path d="M12.2167 26.3876C13.3773 21.6745 8.42956 17.4884 4.55074 20.4031C4.53038 20.1551 4.51002 19.907 4.48965 19.659C8.88768 16.8062 14.2325 21.5814 12.2167 26.3876Z" fill="white"/>
</g>
<g opacity="0.2">
<path d="M26.5409 18.5737C27.3961 18.7598 28.2512 19.0388 29.0453 19.4109C29.7783 19.752 30.4503 20.1861 31.1833 20.5272C31.9163 20.8683 32.7103 21.1164 33.5044 21.0854C33.8404 21.0854 34.2069 21.0233 34.4818 20.8063C34.7261 20.6202 34.9094 20.2481 34.8177 19.9381C35.1537 20.2481 35.3675 20.7443 35.3675 21.2094C35.3675 21.7055 35.1842 22.2016 34.8177 22.5117C34.1458 21.9226 33.199 21.7675 32.3133 21.6435C31.397 21.5195 30.4808 21.4575 29.6867 20.9923C29.2897 20.7443 28.9232 20.3722 28.5261 20.1241C27.7931 19.628 26.9379 19.3799 26.0828 19.4109C26.2049 19.1629 26.3576 18.8838 26.5409 18.5737Z" fill="#000072"/>
</g>
<path d="M17.7143 18.6047C17.6227 18.6047 17.5005 18.5427 17.47 18.4186L17.0729 17.3954C17.0118 17.2403 17.0729 17.0853 17.1951 17.0233C17.3478 16.9923 17.5005 17.0543 17.5616 17.1783L17.9586 18.2326C18.0197 18.3566 17.9586 18.5117 17.8059 18.5737C17.7856 18.5943 17.755 18.6047 17.7143 18.6047Z" fill="#000072"/>
<path d="M12.2168 26.6358C14.1409 26.3567 15.8818 25.8296 16.6453 25.1474C17.4089 24.4652 16.065 22.0156 12.6443 23.566" fill="#C2B9EA"/>
<path d="M27.7626 5.02329C27.6098 5.39539 27.3655 5.70546 27.0296 5.92252C25.93 6.60469 24.2808 5.89151 23.2729 6.69771C22.6621 7.19384 22.4788 8.12407 21.8069 8.55818C21.1655 8.96128 20.3103 8.74422 19.6995 8.27911C18.3557 7.19384 18.0197 5.11632 16.9813 3.81399C18.1724 3.50391 19.4246 3.37988 20.7074 3.37988C23.2424 3.37988 25.6246 3.96903 27.7626 5.02329Z" fill="#7162AF"/>
<g opacity="0.6">
<path d="M12.7054 24.1551C13.8966 23.4729 15.3931 23.4109 16.6148 24.0001C16.2177 23.3799 15.4847 23.0388 14.7517 23.0388C14.0187 23.0388 13.2857 23.2869 12.6138 23.5349C12.6952 23.7417 12.7258 23.9484 12.7054 24.1551Z" fill="white"/>
</g>
<path d="M12.2168 26.8838C12.0946 26.8838 11.9724 26.7908 11.9419 26.6667C11.9419 26.5117 12.0335 26.3877 12.1862 26.3567C14.1409 26.1086 15.7902 25.5505 16.4926 24.9303C16.6453 24.7753 16.6148 24.4652 16.4315 24.1551C15.9734 23.4109 14.7517 22.9148 12.736 23.814C12.6138 23.876 12.4611 23.814 12.4 23.659C12.3389 23.535 12.4 23.3799 12.5222 23.3179C14.8434 22.2946 16.3094 22.9458 16.8591 23.845C17.2256 24.4032 17.1951 25.0233 16.8286 25.3334C16.065 26.0156 14.3547 26.6047 12.2473 26.8838C12.2269 26.8838 12.2168 26.8838 12.2168 26.8838Z" fill="#000072"/>
<path d="M14.5379 24.8993C14.6194 24.9613 14.6906 25.0337 14.7517 25.1163C14.8128 25.1784 14.8739 25.261 14.935 25.3644C14.9757 25.4471 15.0164 25.5401 15.0571 25.6435C15.0877 25.7365 15.1182 25.8605 15.0877 25.9536C15.0877 26.0776 14.9655 26.1396 14.8739 26.1396C14.7823 26.1396 14.7212 26.0776 14.6906 25.9846C14.6703 25.9019 14.6499 25.8192 14.6296 25.7365C14.6296 25.6538 14.6194 25.5711 14.599 25.4884L14.5379 25.2094C14.5176 25.1267 14.4972 25.0337 14.4769 24.9303C14.4769 24.9096 14.487 24.8993 14.5074 24.8993C14.5074 24.8993 14.5176 24.8993 14.5379 24.8993Z" fill="#000072"/>
<path d="M15.6374 24.4032C15.7901 24.5272 15.9429 24.7133 16.0345 24.8993C16.0752 25.0027 16.1057 25.106 16.1261 25.2094C16.1465 25.3128 16.1567 25.4161 16.1567 25.5195C16.1261 25.6435 16.0345 25.7055 15.9123 25.7055C15.8512 25.6745 15.7901 25.6125 15.7596 25.5505C15.7392 25.4678 15.7189 25.3748 15.6985 25.2714C15.6985 25.1887 15.6985 25.106 15.6985 25.0234C15.6782 24.92 15.6578 24.827 15.6374 24.7443C15.6171 24.6409 15.5967 24.5376 15.5764 24.4342C15.5764 24.4135 15.5865 24.4032 15.6069 24.4032C15.6069 24.4032 15.6171 24.4032 15.6374 24.4032Z" fill="#000072"/>
<path fill-rule="evenodd" clip-rule="evenodd" d="M10.1399 32.4651C10.0788 32.4651 10.0279 32.4445 9.98719 32.4031C6.96355 29.7675 4.97833 26.1086 4.42857 22.1086C4.33695 21.3644 4.27586 20.5582 4.27586 19.783C4.27586 19.721 4.27586 19.6589 4.27586 19.5969C4.27586 19.4729 4.33695 19.4109 4.39803 19.3489C4.45911 19.3282 4.51002 19.3075 4.55074 19.2869C5.95567 18.5117 7.54384 18.3566 8.97931 18.8527C10.7507 19.4419 12.2167 21.0233 12.7054 22.8527C13.1635 24.6202 12.736 26.6047 11.6059 28.031C12.0335 28.4962 12.3084 29.0233 12.4 29.5504C12.4611 29.7985 12.4814 30.0465 12.4611 30.2946C12.4 30.7597 12.2473 31.1938 11.9724 31.5349C11.4837 32.1241 10.7202 32.3411 10.201 32.4651C10.1806 32.4651 10.1603 32.4651 10.1399 32.4651ZM4.79508 19.752C4.79508 19.752 4.79508 19.7623 4.79508 19.783C4.79508 20.5272 4.85616 21.3024 4.94778 22.0465C5.49754 25.8605 7.36059 29.3644 10.2315 31.907C10.8729 31.752 11.3005 31.5349 11.5754 31.1938C11.7586 30.9458 11.8808 30.6047 11.9113 30.2636C11.9317 30.0569 11.9215 29.8605 11.8808 29.6744C11.7892 29.1783 11.5143 28.6822 11.0867 28.2171C10.9645 28.1241 10.9645 27.969 11.0562 27.876C12.1862 26.5737 12.6443 24.6512 12.2167 23.0078C11.7586 21.3334 10.4453 19.907 8.8266 19.3489C7.5133 18.9148 6.07783 19.0698 4.79508 19.752Z" fill="#000072"/>
<g opacity="0.6">
<path d="M33.1379 9.30242C22.9675 0.465206 10.7202 3.06986 5.00887 15.783C7.54384 3.13187 25.4719 -0.992158 33.1379 9.30242Z" fill="white"/>
</g>
<path fill-rule="evenodd" clip-rule="evenodd" d="M20.7074 36.4342C16.7675 36.4342 12.9498 35.0078 9.98719 32.4032C6.96355 29.7675 4.97833 26.1086 4.42857 22.1086C4.33695 21.3644 4.27586 20.5582 4.27586 19.783C4.27586 19.721 4.27586 19.659 4.27586 19.597C4.27586 19.5349 4.27586 19.4729 4.27586 19.4109C4.36749 15.0388 6.10838 10.9458 9.19311 7.87602C12.2778 4.80626 16.3704 3.10083 20.7074 3.10083C24.0975 3.10083 27.335 4.15509 30.1143 6.10858C32.802 8.03106 34.8483 10.6977 36.0394 13.7985C36.7419 15.721 37.1084 17.7055 37.1084 19.783C37.1084 24.2171 35.398 28.4032 32.3133 31.5659C29.198 34.6977 25.0749 36.4342 20.7074 36.4342ZM20.7074 3.62796C12.1251 3.62796 4.97833 10.7287 4.79508 19.4419C4.79508 19.4833 4.79508 19.5349 4.79508 19.597C4.79508 19.659 4.79508 19.721 4.79508 19.783C4.79508 20.5272 4.85616 21.3024 4.94778 22.0466C5.49754 25.8915 7.39113 29.4264 10.3232 32.0001C13.1941 34.5117 16.8897 35.907 20.7074 35.907C29.4729 35.907 36.5892 28.6822 36.5892 19.783C36.5892 17.7985 36.2532 15.845 35.5507 14.0156V13.9846C33.199 7.783 27.2434 3.62796 20.7074 3.62796Z" fill="#000072"/>
<g opacity="0.2">
<path d="M32.4049 31.0699C29.4729 34.2326 25.3192 36.1861 20.7074 36.1861C16.6759 36.1861 12.9803 34.6668 10.1399 32.1861C10.5064 32.0621 10.9035 31.9691 11.2089 31.783C12.003 31.3179 12.3084 30.2016 11.9113 29.3954C11.667 28.8993 11.1783 28.4032 11.3005 27.8761C11.4532 27.3179 12.1862 27.1009 12.3389 26.5427C12.6443 26.5427 12.9803 26.5427 13.0719 26.6668C12.9498 27.752 12.8276 28.8683 13.0414 29.9536C13.2552 31.0388 13.8355 32.1241 14.8128 32.5892C14.9655 33.2094 15.5153 33.6435 16.0956 33.7985C16.7064 33.9536 17.3478 33.8295 17.8975 33.5505C18.4778 33.3024 18.9665 32.9303 19.4246 32.6823C21.5931 33.5815 24.067 33.7985 26.3882 33.2404C28.6788 32.6823 30.7862 31.3489 32.3744 29.4575C32.4762 29.9949 32.4864 30.5324 32.4049 31.0699Z" fill="#000072"/>
</g>
<g opacity="0.2">
<path d="M35.9172 14.2327C36.1921 16.1551 35.7951 18.1707 34.8177 19.8141C35.4591 20.5272 35.4286 21.7675 34.7567 22.4497C35.4286 23.1629 35.8562 24.0621 36.0089 25.0234C37.0778 21.4885 37.0167 17.6745 35.9172 14.2327Z" fill="#000072"/>
</g>
<g opacity="0.2">
<path d="M21.3182 24.1551C20.2187 24.8373 18.8749 25.0854 17.6227 24.7753C17.7448 25.1474 17.5616 25.5505 17.3172 25.8606C17.0424 26.1396 16.7064 26.3877 16.4621 26.6668C16.0956 27.1319 15.9123 27.721 15.7596 28.2792C15.4847 29.2404 15.2404 30.2947 15.7902 31.1319C16.3399 32.0001 17.6227 32.1551 18.5695 31.783C19.5163 31.3799 20.2493 30.5427 20.9212 29.7675C20.6463 30.7288 20.2798 31.69 19.6384 32.4342C18.997 33.2094 18.0503 33.7675 17.0729 33.7675C16.0956 33.7986 15.0571 33.2404 14.7212 32.2792C14.4158 31.504 14.6296 30.6358 14.8128 29.7986C15.1488 28.4032 15.4847 26.9768 15.8818 25.5505C16.3704 25.5195 16.798 25.1164 16.8591 24.6513C16.9507 24.1862 16.6759 23.659 16.2483 23.473C16.9202 23.0699 17.5921 22.6668 18.264 22.2637C18.1724 22.5117 18.0808 22.7598 18.0808 23.0389C18.0503 23.3179 18.1113 23.597 18.3251 23.783C18.5084 23.9691 18.8138 24.0311 19.0887 24.0001C19.333 23.9691 19.6079 23.8451 19.8522 23.721C20.3103 23.535 20.7685 23.3179 21.2266 23.1629C21.2571 23.566 21.2877 23.9381 21.3182 24.1551Z" fill="#000072"/>
</g>
<g opacity="0.2">
<path d="M21.4099 24.2481C25.7468 22.4496 27.2739 20.8062 28.0985 17.9535C27.6302 17.8295 27.1517 17.7055 26.6631 17.5814C26.9074 20.8682 22.8759 21.4574 21.0739 23.3489C21.1655 23.752 21.2571 24.1551 21.4099 24.2481Z" fill="#000072"/>
</g>
<g opacity="0.2">
<path d="M33.2906 23.969C32.8936 25.0233 32.1606 25.6124 30.5724 25.6124C30.5724 26.4496 30.267 27.3798 29.6256 27.876C28.9842 28.4031 28.0374 28.4961 27.2433 28.2791C27.8236 28.9612 28.8926 29.0853 29.6867 28.6512C30.4808 28.2481 30.9695 27.3798 31.1527 26.5426C31.5803 26.4496 31.9773 26.3256 32.3744 26.1395C32.7714 25.9225 33.1074 25.6124 33.2906 25.2093C33.4739 24.8372 33.4739 24.3411 33.2906 23.969Z" fill="#000072"/>
</g>
<g opacity="0.6">
<path d="M28.801 25.2094C28.7705 25.1474 29.0148 24.9303 29.3507 24.7132C29.7172 24.4962 30.0227 24.3722 30.0838 24.4342C30.1143 24.4962 29.87 24.7132 29.5035 24.9303C29.1675 25.1474 28.8315 25.2714 28.801 25.2094Z" fill="white"/>
</g>
<g opacity="0.2">
<path d="M9.2542 14.2947C9.37636 15.1319 9.22365 16.0621 8.70444 16.7443C8.21577 17.4265 7.29952 17.8606 6.47489 17.6435C5.65025 17.4575 5.00888 16.5582 5.16158 15.721C4.79508 16.6823 4.55075 17.7055 4.45912 18.6978C5.33466 18.8838 6.23055 19.0285 7.14681 19.1319C7.57439 19.1629 8.00198 19.1939 8.42957 19.0699C8.82661 18.9458 9.22365 18.6668 9.37636 18.2637C9.46799 17.9846 9.46799 17.6745 9.43745 17.3955C9.37636 16.3722 9.28474 15.3179 9.2542 14.2947Z" fill="#000072"/>
</g>
<path d="M44.5301 27.2869C44.0617 27.2869 43.6851 27.1835 43.4 26.9768C43.0946 26.7494 42.9419 26.5117 42.9419 26.2636V16.4962C42.9419 16.2068 43.0946 15.969 43.4 15.783C43.6851 15.597 44.0617 15.5039 44.5301 15.5039C44.9169 15.5039 45.2427 15.597 45.5074 15.783C45.7721 15.969 45.9044 16.2068 45.9044 16.4962V17.2404C46.1895 16.7649 46.5967 16.3308 47.1261 15.938C47.6759 15.5453 48.358 15.3489 49.1724 15.3489C49.8647 15.3489 50.4755 15.5866 51.0049 16.0621C51.5547 16.5168 51.9619 17.106 52.2266 17.8295C52.6338 16.982 53.1632 16.3618 53.8148 15.969C54.4867 15.5556 55.179 15.3489 55.8916 15.3489C56.6246 15.3489 57.3169 15.5453 57.9685 15.938C58.6404 16.3308 59.18 16.9096 59.5872 17.6745C60.0148 18.4187 60.2286 19.3282 60.2286 20.4032V26.2636C60.2286 26.5117 60.0759 26.7494 59.7704 26.9768C59.465 27.1835 59.0883 27.2869 58.6404 27.2869C58.2128 27.2869 57.8463 27.1835 57.5409 26.9768C57.2355 26.7494 57.0828 26.5117 57.0828 26.2636V20.4032C57.0828 19.907 56.981 19.4936 56.7773 19.1628C56.5941 18.8321 56.3498 18.584 56.0443 18.4187C55.7389 18.2326 55.4233 18.1396 55.0975 18.1396C54.7718 18.1396 54.4663 18.2326 54.1813 18.4187C53.8962 18.584 53.6519 18.8321 53.4483 19.1628C53.265 19.4936 53.1734 19.8967 53.1734 20.3721V26.2946C53.1734 26.646 53.0003 26.9044 52.6542 27.0698C52.3284 27.2145 51.9721 27.2869 51.5852 27.2869C51.2187 27.2869 50.8624 27.2145 50.5163 27.0698C50.1905 26.9044 50.0276 26.646 50.0276 26.2946V20.4032C50.0276 19.9277 49.9258 19.5246 49.7222 19.1939C49.5389 18.8631 49.2946 18.6047 48.9892 18.4187C48.7041 18.2533 48.3885 18.1706 48.0424 18.1706C47.7166 18.1706 47.401 18.2533 47.0956 18.4187C46.8105 18.584 46.5662 18.8321 46.3626 19.1628C46.1997 19.4936 46.1182 19.907 46.1182 20.4032V26.2636C46.1182 26.5117 45.9553 26.7494 45.6296 26.9768C45.3241 27.1835 44.9576 27.2869 44.5301 27.2869ZM62.7636 32.7752C62.3563 32.7752 62.0204 32.7029 61.7557 32.5582C61.4706 32.3928 61.3281 32.0104 61.3281 31.4109C61.3281 31.0388 61.3892 30.7184 61.5113 30.4497C61.6335 30.2016 61.8371 30.0776 62.1222 30.0776C62.4072 30.0776 62.733 30.0259 63.0995 29.9225C63.466 29.8192 63.8325 29.6331 64.199 29.3644C64.5859 29.0957 64.9117 28.7236 65.1764 28.2481C65.4207 27.7727 65.5734 27.1628 65.6345 26.4187L61.4197 17.3024C61.3586 17.137 61.3281 16.9923 61.3281 16.8683C61.3281 16.5789 61.4401 16.3205 61.664 16.0931C61.9084 15.8657 62.1934 15.69 62.5192 15.5659C62.845 15.4006 63.1504 15.3179 63.4355 15.3179C63.6187 15.3179 63.7918 15.3592 63.9547 15.4419C64.1379 15.5246 64.2601 15.6693 64.3212 15.876L67.2532 23.2869L69.6049 15.876C69.6864 15.6693 69.8085 15.5246 69.9714 15.4419C70.1343 15.3592 70.2972 15.3179 70.4601 15.3179C70.7044 15.3179 70.9997 15.4006 71.3458 15.5659C71.692 15.69 71.9872 15.876 72.2315 16.1241C72.4962 16.3515 72.6286 16.6202 72.6286 16.9303C72.6286 17.075 72.598 17.199 72.537 17.3024L68.9636 26.5427C68.6785 27.2869 68.3934 28.0311 68.1084 28.7752C67.8437 29.4988 67.4975 30.1706 67.07 30.7908C66.6627 31.3902 66.113 31.8657 65.4207 32.2171C64.7488 32.5892 63.8631 32.7752 62.7636 32.7752ZM75.8355 27.2869C75.4486 27.2869 75.0821 27.2042 74.736 27.0388C74.4102 26.8528 74.2473 26.5944 74.2473 26.2636V10.1396C74.2473 9.87085 74.3593 9.64346 74.5833 9.45742C74.8276 9.2507 75.1228 9.14734 75.469 9.14734H80.3557C81.3941 9.14734 82.3307 9.33339 83.1655 9.70548C84.0207 10.0569 84.6926 10.646 85.1813 11.4729C85.67 12.2998 85.9143 13.3851 85.9143 14.7287V14.8838C85.9143 16.2481 85.6598 17.3437 85.1507 18.1706C84.6417 18.9975 83.9494 19.597 83.0739 19.969C82.2187 20.3411 81.2516 20.5272 80.1724 20.5272H77.4237V26.2636C77.4237 26.5944 77.2608 26.8528 76.935 27.0388C76.6092 27.2042 76.2427 27.2869 75.8355 27.2869ZM77.4237 11.969V17.9845H80.1724C80.9869 17.9845 81.6079 17.7572 82.0355 17.3024C82.5038 16.8063 82.7379 16.0827 82.7379 15.1318V14.8218C82.7379 13.8709 82.5038 13.168 82.0355 12.7132C81.6079 12.2171 80.9869 11.969 80.1724 11.969H77.4237ZM92.5113 27.5039C91.3507 27.5039 90.3225 27.2972 89.4266 26.8838C88.5511 26.4497 87.8588 25.8605 87.3498 25.1163C86.8611 24.3308 86.6168 23.4316 86.6168 22.4187V20.3101C86.6168 19.4212 86.8509 18.6047 87.3192 17.8605C87.8079 17.0957 88.4493 16.4962 89.2434 16.0621C90.0578 15.5866 90.9639 15.3489 91.9616 15.3489C92.8778 15.3489 93.7025 15.5453 94.4355 15.938C95.2092 16.3515 95.8302 16.8993 96.2985 17.5814C96.7668 18.2843 97.001 19.1008 97.001 20.0311C97.001 20.7339 96.889 21.2404 96.665 21.5504C96.4411 21.8605 96.1458 22.0569 95.7793 22.1396C95.4535 22.2016 95.0972 22.2326 94.7104 22.2326H89.7626V22.6047C89.7626 23.3075 90.0171 23.8864 90.5261 24.3411C91.0759 24.7752 91.7682 24.9923 92.603 24.9923C93.1527 24.9923 93.6007 24.9096 93.9468 24.7442C94.3133 24.5789 94.6289 24.4135 94.8936 24.2481C95.1583 24.1034 95.4026 24.0311 95.6266 24.0311C95.8709 24.0311 96.0847 24.1137 96.268 24.2791C96.4309 24.4445 96.5632 24.6409 96.665 24.8683C96.7668 25.0957 96.8177 25.292 96.8177 25.4574C96.8177 25.7262 96.6345 26.0259 96.268 26.3566C95.9422 26.6874 95.4535 26.9665 94.802 27.1938C94.1504 27.4006 93.3869 27.5039 92.5113 27.5039ZM89.7626 19.659V20.3411H93.336C93.6007 20.3411 93.7839 20.2998 93.8857 20.2171C94.0079 20.1137 94.069 19.9277 94.069 19.659C94.069 19.2869 93.9672 18.9561 93.7636 18.6667C93.5599 18.3566 93.2952 18.1189 92.9695 17.9535C92.6437 17.7882 92.2874 17.7055 91.9005 17.7055C91.534 17.7055 91.1879 17.7882 90.8621 17.9535C90.5363 18.0982 90.2614 18.3256 90.0374 18.6357C89.8542 18.9044 89.7626 19.2455 89.7626 19.659ZM104.331 27.2869H103.354C101.888 27.2869 100.768 26.9665 99.9941 26.3256C99.2204 25.6848 98.8335 24.6616 98.8335 23.2559V11.2249C98.8335 10.9355 99.0066 10.6977 99.3527 10.5117C99.6989 10.3256 100.055 10.2326 100.422 10.2326C100.809 10.2326 101.165 10.3256 101.491 10.5117C101.837 10.6977 102.01 10.9355 102.01 11.2249V15.5039H104.881C105.145 15.5039 105.339 15.628 105.461 15.876C105.604 16.1034 105.675 16.3721 105.675 16.6822C105.675 16.9716 105.604 17.2404 105.461 17.4884C105.339 17.7158 105.145 17.8295 104.881 17.8295H102.01V23.2559C102.01 23.752 102.101 24.0931 102.285 24.2791C102.509 24.4858 102.865 24.5892 103.354 24.5892H104.331C104.779 24.5892 105.105 24.7236 105.308 24.9923C105.553 25.2817 105.675 25.5918 105.675 25.9225C105.675 26.274 105.553 26.584 105.308 26.8528C105.105 27.1422 104.779 27.2869 104.331 27.2869ZM111.081 27.5039C110.266 27.5039 109.523 27.4109 108.851 27.2249C108.179 26.9975 107.65 26.7184 107.263 26.3876C106.876 26.0569 106.683 25.7158 106.683 25.3644C106.683 25.199 106.723 25.013 106.805 24.8063C106.907 24.5789 107.029 24.3825 107.171 24.2171C107.334 24.0517 107.528 23.969 107.752 23.969C107.976 23.969 108.21 24.0621 108.454 24.2481C108.719 24.4342 109.034 24.6202 109.401 24.8063C109.788 24.9923 110.327 25.0853 111.02 25.0853C111.753 25.0853 112.231 24.9716 112.455 24.7442C112.7 24.4962 112.822 24.2481 112.822 24.0001C112.822 23.6486 112.679 23.3696 112.394 23.1628C112.109 22.9768 111.743 22.8114 111.295 22.6667C110.867 22.5427 110.399 22.4083 109.89 22.2636C109.401 22.1189 108.933 21.9329 108.485 21.7055C108.057 21.4574 107.701 21.1267 107.416 20.7132C107.151 20.2791 107.019 19.721 107.019 19.0388C107.019 18.46 107.151 17.8812 107.416 17.3024C107.701 16.7442 108.159 16.2895 108.79 15.938C109.421 15.5453 110.287 15.3489 111.386 15.3489C112.058 15.3489 112.679 15.4212 113.249 15.5659C113.86 15.7106 114.349 15.907 114.715 16.1551C115.102 16.4032 115.296 16.6719 115.296 16.9613C115.296 17.106 115.245 17.3024 115.143 17.5504C115.041 17.7985 114.899 18.0156 114.715 18.2016C114.552 18.4083 114.349 18.5117 114.104 18.5117C113.942 18.5117 113.728 18.4497 113.463 18.3256C113.219 18.2016 112.934 18.0776 112.608 17.9535C112.282 17.8502 111.885 17.7985 111.417 17.7985C111.01 17.7985 110.684 17.8502 110.439 17.9535C110.195 18.0776 110.022 18.2223 109.92 18.3876C109.798 18.553 109.737 18.7287 109.737 18.9148C109.737 19.2042 109.879 19.4316 110.165 19.597C110.429 19.7623 110.786 19.907 111.234 20.0311C111.681 20.1344 112.15 20.2584 112.638 20.4032C113.147 20.5479 113.626 20.7546 114.074 21.0233C114.522 21.292 114.888 21.6538 115.173 22.1086C115.438 22.5427 115.57 23.1318 115.57 23.876C115.57 24.9716 115.184 25.8502 114.41 26.5117C113.636 27.1732 112.526 27.5039 111.081 27.5039Z" fill="#21212C"/>
</svg>
